<svg xmlns="http://www.w3.org/2000/svg" viewBox="0 0 183.26 17.84"><defs><style>.cls-1{fill:#231815;}</style></defs><title>logo_dummy</title><g id="レイヤー_2" data-name="レイヤー 2"><g id="レイヤー_1-2" data-name="レイヤー 1"><path class="cls-1" d="M0,.27H8.51q4.6,0,7.1,2.54a8.43,8.43,0,0,1,2.5,6.13A8.7,8.7,0,0,1,17,13.27a7.79,7.79,0,0,1-3.34,3.16,11.52,11.52,0,0,1-5.31,1.13H0ZM7.65,6.89v4.05h.19a3.28,3.28,0,0,0,2-.48,1.88,1.88,0,0,0,.62-1.58q0-2-2.32-2Z"/><path class="cls-1" d="M37.43.27V8.11q0,5.13-2.62,7.43a8.82,8.82,0,0,1-6,2.3,9.1,9.1,0,0,1-4.63-1.27,7,7,0,0,1-3.08-3.35,14.13,14.13,0,0,1-.88-5.45V.27H27.9v8a3.57,3.57,0,0,0,.23,1.63.84.84,0,0,0,1.48-.28,8.8,8.8,0,0,0,.17-2.08V.27Z"/><path class="cls-1" d="M40.51,17.56V.27h7.43l3.13,3.6L54.21.27h7.42V17.56H54V8.9l-2.9,3.34L48.17,8.9v8.65Z"/><path class="cls-1" d="M64.91,17.56V.27h7.43l3.13,3.6L78.6.27H86V17.56H78.37V8.9l-2.9,3.34L72.57,8.9v8.65Z"/><path class="cls-1" d="M102,17.56H94.35V10L87.76.27H95.5l2.67,3.92L100.84.27h7.75L102,10Z"/><path class="cls-1" d="M110.34,17.56V.27H118V13.22h6.71v4.34Z"/><path class="cls-1" d="M134.77,17.84a8.51,8.51,0,0,1-6.28-2.6,8.66,8.66,0,0,1-2.58-6.34,8.61,8.61,0,0,1,2.58-6.31,8.93,8.93,0,0,1,12.57,0,8.61,8.61,0,0,1,2.58,6.31,8.66,8.66,0,0,1-2.58,6.34A8.52,8.52,0,0,1,134.77,17.84Zm0-11.21a1.61,1.61,0,0,0-1.22.52,1.81,1.81,0,0,0-.49,1.3,1.81,1.81,0,0,0,.49,1.3,1.72,1.72,0,0,0,2.46,0,1.81,1.81,0,0,0,.49-1.3,1.81,1.81,0,0,0-.49-1.3A1.63,1.63,0,0,0,134.77,6.63Z"/><path class="cls-1" d="M163.85,2.31l-3.69,5.2a10,10,0,0,0-4.27-1.11,3.1,3.1,0,0,0-2.09.67A2.23,2.23,0,0,0,153,8.86Q153,11,155.77,11V8.26h7.66v9.32q-4.64.26-6.29.26-6.34,0-8.81-2.7a9,9,0,0,1-2.47-6.29A9.14,9.14,0,0,1,147,4.33a7.88,7.88,0,0,1,3.32-3.19A11,11,0,0,1,155.47,0a16.45,16.45,0,0,1,4.32.61A16.06,16.06,0,0,1,163.85,2.31Z"/><path class="cls-1" d="M174.39,17.84a8.51,8.51,0,0,1-6.28-2.6,8.66,8.66,0,0,1-2.58-6.34,8.61,8.61,0,0,1,2.58-6.31,8.93,8.93,0,0,1,12.57,0,8.61,8.61,0,0,1,2.58,6.31,8.66,8.66,0,0,1-2.58,6.34A8.52,8.52,0,0,1,174.39,17.84Zm0-11.21a1.61,1.61,0,0,0-1.22.52,1.81,1.81,0,0,0-.49,1.3,1.81,1.81,0,0,0,.49,1.3,1.72,1.72,0,0,0,2.46,0,1.81,1.81,0,0,0,.49-1.3,1.81,1.81,0,0,0-.49-1.3A1.63,1.63,0,0,0,174.39,6.63Z"/></g></g></svg>