<svg id="グループ_380" data-name="グループ 380" xmlns="http://www.w3.org/2000/svg" width="18" height="18" viewBox="0 0 18 18">
  <g id="グループ_372" data-name="グループ 372" transform="translate(-5270 -818)">
    <rect id="長方形_236" data-name="長方形 236" width="18" height="18" transform="translate(5270 818)" fill="none"/>
    <rect id="長方形_237" data-name="長方形 237" width="18" height="13" rx="1" transform="translate(5270 821)" fill="#505050"/>
  </g>
  <path id="パス_85" data-name="パス 85" d="M-1.466,0H-2.1l-.52-1.374H-4.7L-5.188,0h-.639l1.88-4.9h.595ZM-2.809-1.89l-.769-2.088a2,2,0,0,1-.075-.328h-.014a1.831,1.831,0,0,1-.079.328L-4.508-1.89ZM2.148,0H-.395V-4.9H.179V-.52H2.148ZM5.793,0H3.25V-4.9h.574V-.52H5.793Z" transform="translate(9 12)" fill="#fff"/>
</svg>
