<svg xmlns="http://www.w3.org/2000/svg" width="30" height="29.84" viewBox="0 0 30 29.84">
  <g id="グループ_330" data-name="グループ 330" transform="translate(-5794.783 -2316)">
    <g id="グループ_329" data-name="グループ 329">
      <g id="グループ_244" data-name="グループ 244" transform="translate(5794.783 2316)">
        <path id="パス_76" data-name="パス 76" d="M10.955,132.8a31.512,31.512,0,0,0,6.189,3.564,7.851,7.851,0,0,0,2.231.727h.056c1.527,0,3.5-2.86,3.734-3.788a2.885,2.885,0,0,0-1.023-2.983l-2.05-1.6a2.857,2.857,0,0,0-1.772-.609,2.892,2.892,0,0,0-1.952.757,9.636,9.636,0,0,0-.98,1,.165.165,0,0,1-.081.016c-.858,0-3.861-2.612-4.663-3.446-.847-.814-3.487-3.851-3.441-4.676,0-.058.022-.072.027-.076a9.213,9.213,0,0,0,.989-.966A2.883,2.883,0,0,0,8.368,117l-1.6-2.05a3.058,3.058,0,0,0-.752-.669,2.878,2.878,0,0,0-1.2-.417,3.086,3.086,0,0,0-.353-.021,2.79,2.79,0,0,0-.682.083c-.818.206-3.858,2.18-3.786,3.79a7.849,7.849,0,0,0,.727,2.23A31.6,31.6,0,0,0,10.955,132.8Z" transform="translate(0.001 -107.251)" fill="#56b500"/>
        <path id="パス_77" data-name="パス 77" d="M263.517,5.864a15.9,15.9,0,0,0-8.744-4.483,1.633,1.633,0,0,0-.6.021h-.006a1.64,1.64,0,0,0-.3.093l-.02.008a1.672,1.672,0,0,0-.264.144l-.017.012a1.685,1.685,0,0,0-.236.2h0a1.659,1.659,0,0,0-.495,1.175v0a1.651,1.651,0,0,0,1.368,1.643,12.688,12.688,0,0,1,10.5,10.492,1.651,1.651,0,0,0,1.641,1.366,1.671,1.671,0,0,0,1.653-1.932A15.933,15.933,0,0,0,263.517,5.864Z" transform="translate(-238.027 -1.363)" fill="#56b500"/>
        <path id="パス_78" data-name="パス 78" d="M254.023,121.376a6.01,6.01,0,0,1,3.876,3.87,1.679,1.679,0,0,0,1.593,1.18h0A1.662,1.662,0,0,0,261.1,124.3a9.358,9.358,0,0,0-6.135-6.133,1.663,1.663,0,0,0-2.128,1.606v.009A1.679,1.679,0,0,0,254.023,121.376Z" transform="translate(-238.024 -111.254)" fill="#56b500"/>
      </g>
    </g>
  </g>
</svg>
