<?xml version="1.0" encoding="UTF-8"?>
<svg id="_フォーマット" data-name="フォーマット" xmlns="http://www.w3.org/2000/svg" xmlns:xlink="http://www.w3.org/1999/xlink" viewBox="0 0 90 700">
  <defs>
    <style>
      .cls-1 {
        fill: url(#_名称未設定グラデーション_457);
      }

      .cls-2 {
        opacity: .7;
      }
    </style>
    <linearGradient id="_名称未設定グラデーション_457" data-name="名称未設定グラデーション 457" x1="45" y1="660.75" x2="45" y2="49.88" gradientUnits="userSpaceOnUse">
      <stop offset="0" stop-color="#56d9dc"/>
      <stop offset=".19" stop-color="#6df1c2"/>
      <stop offset=".34" stop-color="#65d7b2"/>
      <stop offset=".46" stop-color="#72e6be"/>
      <stop offset=".66" stop-color="#00e7b8"/>
      <stop offset="1" stop-color="#6dbeb4"/>
    </linearGradient>
  </defs>
  <g class="cls-2">
    <path class="cls-1" d="m35.1,235.4h19.05c4.67,0,8.42-1.52,11.23-4.55,2.81-3.03,4.22-7.17,4.22-12.41s-1.41-9.29-4.22-12.32c-2.81-3.03-6.55-4.55-11.23-4.55h-19.05c-4.74,0-8.5,1.5-11.28,4.5-2.78,3-4.17,7.12-4.17,12.37s1.39,9.46,4.17,12.46c2.78,3,6.54,4.5,11.28,4.5Zm-4.03-21.23c1.23-1.07,2.86-1.61,4.88-1.61h17.44c2.02,0,3.65.54,4.88,1.61,1.23,1.07,1.85,2.49,1.85,4.26s-.63,3.2-1.9,4.31c-1.26,1.11-2.88,1.66-4.83,1.66h-17.44c-2.02,0-3.65-.55-4.88-1.66-1.23-1.11-1.85-2.54-1.85-4.31s.62-3.19,1.85-4.26Zm38.52,49.67c0-1.52-.28-3.06-.85-4.64-.57-1.58-1.49-3-2.75-4.26-.19-.13-.25-.25-.19-.38.06-.13.19-.19.38-.19h1.52c.31,0,.58-.11.81-.33.22-.22.33-.49.33-.81v-8.62c0-.32-.11-.59-.33-.8-.22-.22-.49-.33-.81-.33H21.55c-.32,0-.58.11-.81.33-.22.22-.33.49-.33.8v8.62c0,.32.11.58.33.81.22.22.49.33.81.33h31.08c2.34,0,4.17.5,5.5,1.52,1.33,1.01,1.99,2.4,1.99,4.17,0,1.58-.66,2.86-1.99,3.84-1.33.98-3.19,1.47-5.59,1.47h-30.99c-.32,0-.58.11-.81.33-.22.22-.33.49-.33.81v8.62c0,.32.11.58.33.8.22.22.49.33.81.33h31.08c2.34,0,4.17.51,5.5,1.52,1.33,1.01,1.99,2.4,1.99,4.17,0,1.64-.66,2.94-1.99,3.89-1.33.95-3.19,1.42-5.59,1.42h-30.99c-.32,0-.58.11-.81.33-.22.22-.33.49-.33.81v8.62c0,.32.11.58.33.81.22.22.49.33.81.33h31.74c5.12,0,9.11-1.06,11.99-3.17,2.87-2.12,4.31-5.23,4.31-9.33,0-1.96-.44-3.9-1.33-5.83-.88-1.93-2.34-3.52-4.36-4.79-.44-.38-.54-.66-.28-.85,3.98-2.21,5.97-5.65,5.97-10.33ZM36.23,104.61h31.46c.31,0,.58-.11.81-.33.22-.22.33-.49.33-.81v-8.72c0-.32-.11-.58-.33-.81-.22-.22-.49-.33-.81-.33h-33.83c-4.8,0-8.36,1.18-10.66,3.55-2.31,2.37-3.46,5.48-3.46,9.33s1.36,6.98,4.07,8.81c.19.13.25.25.19.38-.06.13-.19.19-.38.19h-2.08c-.32,0-.58.11-.81.33-.22.22-.33.49-.33.81v8.72c0,.32.11.58.33.81.22.22.49.33.81.33h46.15c.31,0,.58-.11.81-.33.22-.22.33-.49.33-.81v-8.72c0-.32-.11-.59-.33-.81-.22-.22-.49-.33-.81-.33h-30.99c-2.34,0-4.19-.51-5.54-1.52-1.36-1.01-2.04-2.43-2.04-4.26,0-3.66,2.37-5.5,7.11-5.5Zm1.23-18.91h1.14c.31,0,.58-.11.81-.33.22-.22.33-.49.33-.8l.38-8.81c0-.32-.11-.59-.33-.8-.22-.22-.49-.33-.81-.33h-2.37c-2.21,0-4.01-.63-5.4-1.9-1.39-1.26-2.08-2.94-2.08-5.02s.69-3.66,2.08-4.93c1.39-1.26,3.19-1.89,5.4-1.89h33.92c2.21,0,4.01.63,5.4,1.89,1.39,1.26,2.08,2.91,2.08,4.93s-.7,3.76-2.08,5.02c-1.39,1.26-3.19,1.9-5.4,1.9h-2.37c-.76,0-1.14.38-1.14,1.14l.38,8.81c0,.31.13.58.38.8.25.22.54.33.85.33h1.14c5.43,0,9.74-1.64,12.94-4.93,3.19-3.29,4.79-7.65,4.79-13.08s-1.6-9.68-4.79-12.93c-3.19-3.25-7.5-4.88-12.94-4.88h-32.31c-5.37,0-9.68,1.63-12.93,4.88-3.25,3.25-4.88,7.56-4.88,12.93s1.63,9.79,4.88,13.08c3.25,3.28,7.56,4.93,12.93,4.93Zm24,109.32c.22.22.49.33.81.33h5.5c.32,0,.58-.11.81-.33.22-.22.33-.49.33-.81v-5.87c0-.32.16-.47.47-.47h10.42c.31,0,.58-.11.81-.33.22-.22.33-.49.33-.81v-8.34c0-.32-.11-.59-.33-.81-.22-.22-.49-.33-.81-.33h-10.42c-.32,0-.47-.16-.47-.47v-3.32c0-.32-.11-.59-.33-.81-.22-.22-.49-.33-.81-.33h-5.5c-.32,0-.58.11-.81.33-.22.22-.33.49-.33.81v3.32c0,.32-.16.47-.47.47h-28.9c-4.36,0-7.33,1.09-8.91,3.27-1.58,2.18-2.37,5.42-2.37,9.71v3.22c0,.31.11.58.33.8.22.22.49.33.81.33h7.3c.31,0,.58-.11.81-.33.22-.22.33-.49.33-.8v-.66c-.06-1.64.33-2.87,1.18-3.7.85-.82,2.38-1.23,4.6-1.23h24.83c.31,0,.47.16.47.47v5.87c0,.32.11.58.33.81Zm-27.89-27.7c2.84,0,5.23-.68,7.15-2.04,1.93-1.36,3.41-2.94,4.45-4.74,1.04-1.8,2.1-4.03,3.17-6.68.95-2.21,1.66-3.79,2.13-4.74.47-.95,1.12-1.8,1.94-2.56.82-.76,1.83-1.14,3.03-1.14,1.45,0,2.7.49,3.74,1.47,1.04.98,1.56,2.29,1.56,3.93s-.51,2.89-1.52,3.93c-1.01,1.04-2.27,1.56-3.79,1.56h-.57c-.32,0-.58.11-.81.33-.22.22-.33.49-.33.81v7.96c0,.32.11.58.33.81.22.22.49.33.81.33,4.42,0,7.94-1.44,10.57-4.31,2.62-2.88,3.93-6.78,3.93-11.7s-1.25-8.61-3.74-11.42c-2.5-2.81-5.95-4.22-10.38-4.22s-7.42,1.15-9.57,3.46c-2.15,2.3-3.92,5.26-5.31,8.86-1.01,2.46-1.74,4.17-2.18,5.12-.44.95-1.09,1.83-1.94,2.65-.85.82-1.91,1.23-3.17,1.23-1.45,0-2.65-.47-3.6-1.42-.95-.95-1.42-2.24-1.42-3.89s.5-3.14,1.52-4.31c1.01-1.17,2.27-1.75,3.79-1.75h.47c.31,0,.58-.11.81-.33.22-.22.33-.49.33-.81v-8.15c0-.32-.11-.59-.33-.8-.22-.22-.49-.33-.81-.33h-.66c-4.11,0-7.36,1.48-9.76,4.45-2.4,2.97-3.6,6.95-3.6,11.94s1.23,9.07,3.7,12.03c2.46,2.97,5.81,4.45,10.04,4.45Zm-10.42,368.8c.06.13.03.25-.09.38-1.2,1.2-2.07,2.56-2.61,4.08-.54,1.52-.81,3-.81,4.45,0,4.23,1.36,7.52,4.07,9.85,2.72,2.34,6.51,3.51,11.37,3.51h19.14c4.74,0,8.48-1.17,11.23-3.51,2.75-2.34,4.12-5.62,4.12-9.85,0-3.35-1.01-6.13-3.03-8.34-.25-.19-.36-.36-.33-.52.03-.16.14-.24.33-.24h1.14c.31,0,.58-.11.81-.33.22-.22.33-.49.33-.8v-8.72c0-.32-.11-.59-.33-.81-.22-.22-.49-.33-.81-.33H3.64c-.31,0-.58.11-.81.33-.22.22-.33.49-.33.81v8.72c0,.31.11.58.33.8.22.22.49.33.81.33h19.14c.19,0,.31.06.38.19Zm7.82,1.37c1.23-1.04,2.86-1.56,4.88-1.56h17.53c2.02,0,3.66.52,4.93,1.56,1.26,1.04,1.9,2.42,1.9,4.12s-.63,3.19-1.9,4.26c-1.26,1.07-2.91,1.61-4.93,1.61h-17.53c-2.02,0-3.65-.54-4.88-1.61-1.23-1.07-1.85-2.5-1.85-4.26s.62-3.08,1.85-4.12Zm27.24,93.2l8.81,1.52c.63.13,1.11-.06,1.42-.57.63-.95.95-2.27.95-3.98,0-3.85-2.05-6.63-6.16-8.34-.25-.06-.36-.16-.33-.28.03-.13.17-.19.43-.19h4.36c.31,0,.58-.11.81-.33.22-.22.33-.49.33-.81v-8.72c0-.32-.11-.59-.33-.81-.22-.22-.49-.33-.81-.33H21.64c-.32,0-.58.11-.81.33-.22.22-.33.49-.33.81v8.72c0,.32.11.59.33.81.22.22.49.33.81.33h26.82c2.4,0,4.47.55,6.21,1.66,1.74,1.1,2.73,2.54,2.98,4.31.19.63.28,1.33.28,2.09s-.13,1.58-.38,2.46c-.32.82-.1,1.26.66,1.33Zm21.59,11.97h-10.42c-.32,0-.47-.16-.47-.47v-3.32c0-.32-.11-.59-.33-.81-.22-.22-.49-.33-.81-.33h-5.5c-.32,0-.58.11-.81.33-.22.22-.33.49-.33.81v3.32c0,.32-.16.47-.47.47h-28.9c-4.36,0-7.33,1.09-8.91,3.27-1.58,2.18-2.37,5.42-2.37,9.71v3.22c0,.31.11.58.33.8.22.22.49.33.81.33h7.3c.31,0,.58-.11.81-.33.22-.22.33-.49.33-.8v-.66c-.06-1.64.33-2.88,1.18-3.7.85-.82,2.38-1.23,4.6-1.23h24.83c.31,0,.47.16.47.47v5.88c0,.32.11.58.33.81s.49.33.81.33h5.5c.32,0,.58-.11.81-.33.22-.22.33-.49.33-.81v-5.88c0-.32.16-.47.47-.47h10.42c.31,0,.58-.11.81-.33.22-.22.33-.49.33-.81v-8.34c0-.32-.11-.59-.33-.81-.22-.22-.49-.33-.81-.33Zm-46.41-303.43c.38.06.68-.02.9-.24.22-.22.33-.49.33-.81l.38-8.43c0-.63-.32-1.04-.95-1.23-1.45-.32-2.64-.99-3.55-2.04-.92-1.04-1.37-2.29-1.37-3.74,0-1.71.63-3.1,1.9-4.17,1.26-1.07,2.87-1.61,4.83-1.61h4.26c.31,0,.47.16.47.47v20.94c0,.32.11.58.33.8.22.22.49.33.81.33h12.51c4.61,0,8.32-1.5,11.13-4.5,2.81-3,4.22-7.09,4.22-12.27s-1.41-9.27-4.22-12.27c-2.81-3-6.52-4.5-11.13-4.5h-19.24c-4.74,0-8.48,1.5-11.23,4.5-2.75,3-4.12,7.09-4.12,12.27s1.18,8.88,3.55,11.65c2.37,2.78,5.76,4.39,10.19,4.83Zm15.26-21.8c0-.32.16-.47.47-.47h4.26c1.96,0,3.57.54,4.83,1.61,1.26,1.07,1.9,2.46,1.9,4.17s-.62,3.19-1.85,4.26c-1.23,1.07-2.86,1.61-4.88,1.61h-4.26c-.32,0-.47-.16-.47-.47v-10.71Zm21.7,80.89c-3.29,0-6.18.65-8.67,1.94-2.5,1.29-4.63,2.91-6.4,4.83-1.77,1.93-3.79,4.47-6.06,7.63-2.02,2.78-3.57,4.8-4.64,6.06-1.07,1.26-2.21,2.24-3.41,2.94-1.2.69-2.62,1.04-4.26,1.04-2.34,0-4.22-.63-5.64-1.89-1.42-1.26-2.13-2.88-2.13-4.83s.76-3.55,2.27-4.79c1.52-1.23,3.51-1.85,5.97-1.85h1.9c.32,0,.58-.11.81-.33.22-.22.33-.49.33-.81v-8.62c0-.32-.11-.58-.33-.8-.22-.22-.49-.33-.81-.33h-2.46c-5.12,0-9.26,1.61-12.41,4.83-3.16,3.22-4.74,7.45-4.74,12.7s1.63,9.48,4.88,12.7c3.25,3.22,7.56,4.83,12.93,4.83,2.97,0,5.53-.54,7.68-1.61,2.15-1.07,4.12-2.59,5.92-4.55,1.8-1.96,4.12-4.86,6.97-8.72,2.78-3.79,4.96-6.33,6.54-7.63,1.58-1.3,3.51-1.94,5.78-1.94,2.4,0,4.28.6,5.64,1.8,1.36,1.2,2.04,2.75,2.04,4.64,0,2.02-.74,3.65-2.23,4.88-1.49,1.23-3.46,1.85-5.92,1.85h-2.46c-.32,0-.58.11-.81.33-.22.22-.33.49-.33.81v8.53c0,.32.11.58.33.81.22.22.49.33.81.33h2.27c5.37,0,9.68-1.61,12.93-4.83,3.25-3.22,4.88-7.46,4.88-12.7s-1.55-9.35-4.64-12.51c-3.1-3.16-7.27-4.74-12.51-4.74Zm-35.25,201.47h19.05c4.67,0,8.42-1.52,11.23-4.55,2.81-3.03,4.22-7.17,4.22-12.41s-1.41-9.29-4.22-12.32c-2.81-3.03-6.55-4.55-11.23-4.55h-19.05c-4.74,0-8.5,1.5-11.28,4.5-2.78,3-4.17,7.12-4.17,12.37s1.39,9.46,4.17,12.46c2.78,3,6.54,4.5,11.28,4.5Zm-4.03-21.23c1.23-1.07,2.86-1.61,4.88-1.61h17.44c2.02,0,3.65.54,4.88,1.61,1.23,1.07,1.85,2.49,1.85,4.26s-.63,3.2-1.9,4.31c-1.26,1.11-2.88,1.66-4.83,1.66h-17.44c-2.02,0-3.65-.55-4.88-1.66-1.23-1.11-1.85-2.54-1.85-4.31s.62-3.19,1.85-4.26Zm5.16-126.42h31.46c.31,0,.58-.11.81-.33.22-.22.33-.49.33-.81v-8.72c0-.32-.11-.59-.33-.81-.22-.22-.49-.33-.81-.33h-33.83c-4.8,0-8.36,1.18-10.66,3.55-2.31,2.37-3.46,5.48-3.46,9.33s1.36,6.98,4.07,8.81c.19.13.25.25.19.38-.06.13-.19.19-.38.19h-2.08c-.32,0-.58.11-.81.33-.22.22-.33.49-.33.81v8.72c0,.32.11.58.33.81.22.22.49.33.81.33h46.15c.31,0,.58-.11.81-.33.22-.22.33-.49.33-.81v-8.72c0-.32-.11-.58-.33-.81-.22-.22-.49-.33-.81-.33h-30.99c-2.34,0-4.19-.51-5.54-1.52-1.36-1.01-2.04-2.43-2.04-4.26,0-3.66,2.37-5.5,7.11-5.5Zm21.98-82.06l8.81,1.52c.63.13,1.11-.06,1.42-.57.63-.95.95-2.27.95-3.98,0-3.85-2.05-6.63-6.16-8.34-.25-.06-.36-.16-.33-.28.03-.13.17-.19.43-.19h4.36c.31,0,.58-.11.81-.33.22-.22.33-.49.33-.81v-8.72c0-.32-.11-.59-.33-.8-.22-.22-.49-.33-.81-.33H21.64c-.32,0-.58.11-.81.33-.22.22-.33.49-.33.8v8.72c0,.32.11.58.33.81.22.22.49.33.81.33h26.82c2.4,0,4.47.55,6.21,1.66,1.74,1.1,2.73,2.54,2.98,4.31.19.63.28,1.33.28,2.08s-.13,1.58-.38,2.46c-.32.82-.1,1.26.66,1.33ZM3.64,494.15h19.14c.19,0,.31.06.38.19.06.13.03.25-.09.38-1.2,1.2-2.07,2.56-2.61,4.08-.54,1.52-.81,3-.81,4.45,0,4.23,1.36,7.52,4.07,9.85,2.72,2.34,6.51,3.51,11.37,3.51h19.14c4.74,0,8.48-1.17,11.23-3.51,2.75-2.34,4.12-5.62,4.12-9.85,0-3.35-1.01-6.13-3.03-8.34-.25-.19-.36-.36-.33-.52.03-.16.14-.24.33-.24h1.14c.31,0,.58-.11.81-.33.22-.22.33-.49.33-.8v-8.72c0-.32-.11-.59-.33-.81-.22-.22-.49-.33-.81-.33H3.64c-.31,0-.58.11-.81.33-.22.22-.33.49-.33.81v8.72c0,.31.11.58.33.8.22.22.49.33.81.33Zm27.34,1.56c1.23-1.04,2.86-1.56,4.88-1.56h17.53c2.02,0,3.66.52,4.93,1.56,1.26,1.04,1.9,2.42,1.9,4.12s-.63,3.19-1.9,4.26c-1.26,1.07-2.91,1.61-4.93,1.61h-17.53c-2.02,0-3.65-.54-4.88-1.61s-1.85-2.5-1.85-4.26.62-3.08,1.85-4.12Z"/>
  </g>
</svg>