<?xml version="1.0" encoding="UTF-8"?>
<svg id="_フォーマット" data-name="フォーマット" xmlns="http://www.w3.org/2000/svg" xmlns:xlink="http://www.w3.org/1999/xlink" viewBox="0 0 90 700">
  <defs>
    <style>
      .cls-1 {
        opacity: .35;
      }

      .cls-2 {
        fill: url(#_名称未設定グラデーション_6);
      }
    </style>
    <linearGradient id="_名称未設定グラデーション_6" data-name="名称未設定グラデーション 6" x1="45" y1="650.67" x2="45" y2="59.87" gradientUnits="userSpaceOnUse">
      <stop offset=".02" stop-color="#5a259b"/>
      <stop offset=".11" stop-color="#5440aa"/>
      <stop offset=".25" stop-color="#0e5cad"/>
      <stop offset=".36" stop-color="#133ea3"/>
      <stop offset=".54" stop-color="#1c1384"/>
      <stop offset=".73" stop-color="#0e5cad"/>
      <stop offset=".84" stop-color="#0080d3"/>
      <stop offset=".95" stop-color="#00dacd"/>
    </linearGradient>
  </defs>
  <g class="cls-1">
    <path class="cls-2" d="m24.37,129.92c.18.12.24.24.18.37-.06.12-.18.18-.37.18h-1.74c-.31,0-.56.11-.78.32-.21.21-.32.47-.32.78v8.42c0,.3.11.56.32.78.21.21.47.32.78.32h31.11c4.57,0,8.26-1.49,11.07-4.48,2.81-2.99,4.21-6.89,4.21-11.71,0-4.45-1.25-8.16-3.75-11.12-2.5-2.96-5.83-4.59-9.97-4.9-.73-.06-1.1.27-1.1,1.01v8.87c0,.73.37,1.13,1.1,1.19,1.4.18,2.52.7,3.34,1.56.82.85,1.24,1.92,1.24,3.2,0,1.65-.66,3.02-1.97,4.12-1.31,1.1-3.07,1.65-5.26,1.65h-2.38c-.31,0-.46-.15-.46-.46v-4.76c0-5.49-1.16-9.84-3.48-13.04-2.32-3.2-6.22-4.8-11.71-4.8s-8.86,1.33-10.84,3.98c-1.98,2.65-2.97,5.72-2.97,9.19,0,4.09,1.25,7.2,3.75,9.33Zm6.45-10.16c.94-.98,2.36-1.46,4.25-1.46,2.13,0,3.77.64,4.9,1.92,1.13,1.28,1.69,2.96,1.69,5.03v4.76c0,.3-.15.46-.46.46h-5.22c-2.07,0-3.69-.7-4.85-2.11-1.16-1.4-1.74-3.02-1.74-4.85,0-1.53.47-2.78,1.42-3.75Zm54.26,69.51c.21-.21.32-.47.32-.78v-8.42c0-.31-.11-.56-.32-.78-.21-.21-.47-.32-.78-.32H22.45c-.31,0-.56.11-.78.32-.21.21-.32.47-.32.78v8.42c0,.3.11.56.32.78.21.21.47.32.78.32h13.63c.12,0,.3.06.55.18l6.4,4.3c.18.06.26.15.23.27-.03.12-.14.21-.32.27l-20.68,6.77c-.61.18-.91.58-.91,1.19v8.69c0,.67.27,1.01.82,1.01.18,0,.34-.03.46-.09l29.1-10.98c.18-.06.4-.03.64.09l14.36,9.52c.37.24.69.3.96.18.27-.12.41-.4.41-.82v-8.78c0-.61-.24-1.04-.73-1.28l-15.74-9.97c-.18-.12-.27-.24-.27-.37s.12-.18.37-.18h32.57c.3,0,.56-.11.78-.32ZM22.45,99.77h61.85c.3,0,.56-.11.78-.32.21-.21.32-.47.32-.78v-8.42c0-.61-.24-1.07-.73-1.37l-15.65-8.69c-.24-.18-.24-.37,0-.55l15.65-8.87c.49-.31.73-.76.73-1.37v-8.42c0-.31-.11-.56-.32-.78-.21-.21-.47-.32-.78-.32H22.45c-.31,0-.56.11-.78.32-.21.21-.32.47-.32.78v8.42c0,.3.11.56.32.78.21.21.47.32.78.32h43.19c.24,0,.37.06.37.18s-.09.24-.27.37l-14.46,7.96c-.49.3-.73.58-.73.82s.24.52.73.82l14.46,7.96c.18.12.27.24.27.37s-.12.18-.37.18H22.45c-.31,0-.56.11-.78.32-.21.21-.32.47-.32.78v8.42c0,.3.11.56.32.78.21.21.47.32.78.32Zm11.44,149.62c.37.06.66-.02.87-.23.21-.21.32-.47.32-.78l.37-8.14c0-.61-.31-1.01-.92-1.19-1.4-.31-2.55-.96-3.43-1.97-.89-1.01-1.33-2.21-1.33-3.61,0-1.65.61-2.99,1.83-4.03,1.22-1.04,2.77-1.56,4.67-1.56h4.12c.3,0,.46.15.46.46v20.22c0,.3.11.56.32.78.21.21.47.32.78.32h12.08c4.45,0,8.04-1.45,10.75-4.35,2.71-2.9,4.07-6.85,4.07-11.85s-1.36-8.95-4.07-11.85c-2.72-2.9-6.3-4.35-10.75-4.35h-18.57c-4.58,0-8.19,1.45-10.84,4.35-2.65,2.9-3.98,6.85-3.98,11.85s1.14,8.57,3.43,11.25c2.29,2.68,5.57,4.24,9.84,4.67Zm14.73-21.04c0-.31.15-.46.46-.46h4.12c1.89,0,3.45.52,4.67,1.56,1.22,1.04,1.83,2.38,1.83,4.03s-.59,3.08-1.78,4.12c-1.19,1.04-2.76,1.56-4.71,1.56h-4.12c-.31,0-.46-.15-.46-.46v-10.34Zm9.24,95.65c-1.22.91-2.93,1.37-5.12,1.37h-30.29c-.31,0-.56.11-.78.32-.21.21-.32.47-.32.78v8.42c0,.3.11.56.32.78.21.21.47.32.78.32h31.11c4.88,0,8.65-1.02,11.3-3.07,2.65-2.04,3.98-5.05,3.98-9.01,0-3.72-1.22-6.62-3.66-8.69-.24-.18-.35-.35-.32-.5.03-.15.14-.23.32-.23h1.83c.3,0,.56-.11.78-.32.21-.21.32-.47.32-.78v-8.42c0-.31-.11-.56-.32-.78-.21-.21-.47-.32-.78-.32H22.45c-.31,0-.56.11-.78.32-.21.21-.32.47-.32.78v8.42c0,.3.11.56.32.78.21.21.47.32.78.32h30.01c2.26,0,4.03.49,5.31,1.46,1.28.98,1.92,2.35,1.92,4.12s-.61,3.02-1.83,3.93Zm21.62-53.98c.21-.21.32-.47.32-.78v-8.05c0-.31-.11-.57-.32-.78-.21-.21-.47-.32-.78-.32h-10.06c-.31,0-.46-.15-.46-.46v-3.2c0-.31-.11-.56-.32-.78-.21-.21-.47-.32-.78-.32h-5.31c-.31,0-.56.11-.78.32-.21.21-.32.47-.32.78v3.2c0,.3-.15.46-.46.46h-27.91c-4.21,0-7.08,1.05-8.6,3.16-1.53,2.1-2.29,5.23-2.29,9.38v3.11c0,.3.11.56.32.78.21.21.47.32.78.32h7.05c.3,0,.56-.11.78-.32.21-.21.32-.47.32-.78v-.64c-.06-1.59.32-2.78,1.14-3.57.82-.79,2.3-1.19,4.44-1.19h23.97c.3,0,.46.15.46.46v5.67c0,.3.11.56.32.78.21.21.47.32.78.32h5.31c.3,0,.56-.11.78-.32.21-.21.32-.47.32-.78v-5.67c0-.31.15-.46.46-.46h10.06c.3,0,.56-.11.78-.32Zm-57.03,25.35h44.56c.3,0,.56-.11.78-.32.21-.21.32-.47.32-.78v-8.42c0-.31-.11-.57-.32-.78-.21-.21-.47-.32-.78-.32H22.45c-.31,0-.56.11-.78.32-.21.21-.32.47-.32.78v8.42c0,.3.11.56.32.78.21.21.47.32.78.32Zm40.35-135.81h4.21c.3,0,.56-.11.78-.32.21-.21.32-.47.32-.78v-8.42c0-.31-.11-.56-.32-.78-.21-.21-.47-.32-.78-.32H22.54c-.31,0-.56.11-.78.32-.21.21-.32.47-.32.78v8.42c0,.3.11.56.32.78.21.21.47.32.78.32h25.89c2.32,0,4.32.53,5.99,1.6,1.68,1.07,2.64,2.45,2.88,4.16.18.61.27,1.28.27,2.01s-.12,1.52-.37,2.38c-.31.79-.09,1.22.64,1.28l8.51,1.46c.61.12,1.07-.06,1.37-.55.61-.92.92-2.2.92-3.84,0-3.72-1.98-6.4-5.95-8.05-.24-.06-.35-.15-.32-.27.03-.12.17-.18.41-.18Zm21.59,246.83H22.45c-.31,0-.56.11-.78.32-.21.21-.32.47-.32.78v8.42c0,.3.11.56.32.78.21.21.47.32.78.32h25.44c.3,0,.46.15.46.46v7.78c0,4.76,1.68,8.58,5.03,11.48,3.35,2.9,7.78,4.35,13.27,4.35,3.66,0,6.92-.69,9.79-2.06,2.87-1.37,5.09-3.29,6.68-5.76,1.58-2.47,2.38-5.32,2.38-8.55v-17.2c0-.31-.11-.56-.32-.78-.21-.21-.47-.32-.78-.32Zm-8.05,16.56c0,2.26-.9,4.07-2.7,5.44-1.8,1.37-4.23,2.06-7.27,2.06s-5.35-.69-7.09-2.06c-1.74-1.37-2.61-3.19-2.61-5.44v-5.49c0-.31.15-.46.46-.46h18.76c.3,0,.46.15.46.46v5.49Zm7.96,25.22H22.45c-.31,0-.56.11-.78.32-.21.21-.32.47-.32.78v8.42c0,.3.11.56.32.78.21.21.47.32.78.32h61.85c.3,0,.56-.11.78-.32.21-.21.32-.47.32-.78v-8.42c0-.31-.11-.56-.32-.78-.21-.21-.47-.32-.78-.32Zm1.37-162.86c-1.22-1.22-2.78-1.83-4.67-1.83s-3.45.61-4.67,1.83c-1.22,1.22-1.83,2.77-1.83,4.67s.61,3.35,1.83,4.57c1.22,1.22,2.77,1.83,4.67,1.83s3.45-.59,4.67-1.78c1.22-1.19,1.83-2.73,1.83-4.62s-.61-3.45-1.83-4.67Zm-30.56,182.01c-.73-.06-1.1.27-1.1,1.01v8.87c0,.73.37,1.13,1.1,1.19,1.4.18,2.52.7,3.34,1.56.82.85,1.24,1.92,1.24,3.2,0,1.65-.66,3.02-1.97,4.12-1.31,1.1-3.07,1.65-5.26,1.65h-2.38c-.31,0-.46-.15-.46-.46v-4.76c0-5.49-1.16-9.84-3.48-13.04-2.32-3.2-6.22-4.8-11.71-4.8s-8.86,1.33-10.84,3.98c-1.98,2.65-2.97,5.72-2.97,9.19,0,4.09,1.25,7.2,3.75,9.33.18.12.24.24.18.37-.06.12-.18.18-.37.18h-1.74c-.31,0-.56.11-.78.32-.21.21-.32.47-.32.78v8.42c0,.3.11.56.32.78.21.21.47.32.78.32h31.11c4.57,0,8.26-1.49,11.07-4.48,2.81-2.99,4.21-6.89,4.21-11.71,0-4.45-1.25-8.16-3.75-11.12-2.5-2.96-5.83-4.59-9.97-4.9Zm-13.45,21.14c0,.3-.15.46-.46.46h-5.22c-2.07,0-3.69-.7-4.85-2.1-1.16-1.4-1.74-3.02-1.74-4.85,0-1.53.47-2.78,1.42-3.75.94-.98,2.36-1.46,4.25-1.46,2.13,0,3.77.64,4.9,1.92,1.13,1.28,1.69,2.96,1.69,5.03v4.76Zm21.04,149.75c-.24-.06-.35-.15-.32-.27.03-.12.17-.18.41-.18h4.21c.3,0,.56-.11.78-.32.21-.21.32-.47.32-.78v-8.42c0-.31-.11-.57-.32-.78-.21-.21-.47-.32-.78-.32H22.54c-.31,0-.56.11-.78.32-.21.21-.32.47-.32.78v8.42c0,.3.11.56.32.78.21.21.47.32.78.32h25.89c2.32,0,4.32.53,5.99,1.6,1.68,1.07,2.64,2.45,2.88,4.16.18.61.27,1.28.27,2.01s-.12,1.52-.37,2.38c-.31.79-.09,1.22.64,1.28l8.51,1.46c.61.12,1.07-.06,1.37-.55.61-.91.92-2.2.92-3.84,0-3.72-1.98-6.4-5.95-8.05Zm4.3-262.28c.3,0,.56-.11.78-.32.21-.21.32-.47.32-.78v-8.42c0-.31-.11-.56-.32-.78-.21-.21-.47-.32-.78-.32h-2.01c-.18,0-.29-.06-.32-.18-.03-.12.05-.24.23-.37,2.62-2.01,3.93-4.88,3.93-8.6,0-4.03-1.3-7.12-3.89-9.29-2.59-2.17-6.24-3.25-10.93-3.25h-17.93c-4.57,0-8.19,1.07-10.84,3.2-2.65,2.13-3.98,5.25-3.98,9.33,0,3.72,1.31,6.59,3.93,8.6.18.12.26.24.23.37-.03.12-.14.18-.32.18h-1.01c-2.87,0-5.18-.34-6.95-1.01-1.77-.67-3.11-1.94-4.03-3.8-.92-1.86-1.34-4.53-1.28-8.01.12-.79-.21-1.19-1.01-1.19H3.78c-.73,0-1.13.37-1.19,1.1-.06.67-.09,1.68-.09,3.02,0,7.69,1.78,13.02,5.35,16.01,3.57,2.99,8.65,4.48,15.23,4.48h43.92Zm-34.81-20.13c1.19-1.04,2.73-1.56,4.62-1.56h16.38c1.89,0,3.45.52,4.67,1.56,1.22,1.04,1.83,2.38,1.83,4.03s-.59,2.97-1.78,3.98c-1.19,1.01-2.76,1.51-4.71,1.51h-16.38c-1.89,0-3.43-.5-4.62-1.51-1.19-1.01-1.78-2.33-1.78-3.98s.59-2.99,1.78-4.03Zm21.82,231.48h-18.57c-4.58,0-8.19,1.45-10.84,4.35-2.65,2.9-3.98,6.85-3.98,11.85s1.14,8.57,3.43,11.25c2.29,2.68,5.57,4.24,9.84,4.67.37.06.66-.02.87-.23.21-.21.32-.47.32-.78l.37-8.14c0-.61-.31-1.01-.92-1.19-1.4-.31-2.55-.96-3.43-1.97-.89-1.01-1.33-2.21-1.33-3.61,0-1.65.61-2.99,1.83-4.03,1.22-1.04,2.77-1.56,4.67-1.56h4.12c.3,0,.46.15.46.46v20.22c0,.3.11.56.32.78.21.21.47.32.78.32h12.08c4.45,0,8.04-1.45,10.75-4.35,2.71-2.9,4.07-6.85,4.07-11.85s-1.36-8.95-4.07-11.85c-2.72-2.9-6.3-4.35-10.75-4.35Zm3.89,20.31c-1.19,1.04-2.76,1.56-4.71,1.56h-4.12c-.31,0-.46-.15-.46-.46v-10.34c0-.31.15-.46.46-.46h4.12c1.89,0,3.45.52,4.67,1.56,1.22,1.04,1.83,2.38,1.83,4.03s-.59,3.08-1.78,4.12Zm7.27-48.65c-.24-.18-.35-.35-.32-.5.03-.15.14-.23.32-.23h1.83c.3,0,.56-.11.78-.32.21-.21.32-.47.32-.78v-8.42c0-.31-.11-.56-.32-.78-.21-.21-.47-.32-.78-.32H22.45c-.31,0-.56.11-.78.32-.21.21-.32.47-.32.78v8.42c0,.3.11.56.32.78.21.21.47.32.78.32h30.01c2.26,0,4.03.49,5.31,1.46,1.28.98,1.92,2.35,1.92,4.12s-.61,3.02-1.83,3.93c-1.22.91-2.93,1.37-5.12,1.37h-30.29c-.31,0-.56.11-.78.32-.21.21-.32.47-.32.78v8.42c0,.3.11.56.32.78.21.21.47.32.78.32h31.11c4.88,0,8.65-1.02,11.3-3.07,2.65-2.04,3.98-5.05,3.98-9.01,0-3.72-1.22-6.62-3.66-8.69Zm0-40.21c-.24-.18-.35-.35-.32-.5.03-.15.14-.23.32-.23h1.83c.3,0,.56-.11.78-.32.21-.21.32-.47.32-.78v-8.42c0-.31-.11-.56-.32-.78-.21-.21-.47-.32-.78-.32H22.45c-.31,0-.56.11-.78.32-.21.21-.32.47-.32.78v8.42c0,.3.11.56.32.78.21.21.47.32.78.32h30.01c2.26,0,4.03.49,5.31,1.46,1.28.98,1.92,2.35,1.92,4.12s-.61,3.02-1.83,3.93c-1.22.91-2.93,1.37-5.12,1.37h-30.29c-.31,0-.56.11-.78.32-.21.21-.32.47-.32.78v8.42c0,.3.11.56.32.78.21.21.47.32.78.32h31.11c4.88,0,8.65-1.02,11.3-3.07,2.65-2.04,3.98-5.05,3.98-9.01,0-3.72-1.22-6.62-3.66-8.69Z"/>
  </g>
</svg>