<svg xmlns="http://www.w3.org/2000/svg" viewBox="0 0 134.22 28.5"><defs><style>.cls-1{fill:#fff;}.cls-2{fill:#999;}.cls-3{fill:#ccc23e;}</style></defs><title>logo_w2CMS_color</title><g id="レイヤー_2" data-name="レイヤー 2"><g id="レイヤー_1-2" data-name="レイヤー 1"><path class="cls-1" d="M0,12.09l.86,6.06c.21,1.6.91,2.7,1.71,2.7H6.72c-.8,0-1.5-1.1-1.71-2.7l-.86-6.06Z"/><path class="cls-2" d="M11.72,5c-.79,0-1.49,1.11-1.7,2.71L8.25,18.15c-.21,1.6-.91,2.7-1.71,2.7H2.39c.79,0,1.49-1.1,1.7-2.7L5.86,7.74C6.07,6.14,6.77,5,7.57,5Z"/><path class="cls-1" d="M7.4,5c.79,0,1.49,1.11,1.7,2.71l2,18c.21,1.6.9,2.71,1.7,2.71h4.15c-.79,0-1.49-1.11-1.7-2.71l-2-18C13.05,6.14,12.35,5,11.55,5Z"/><path class="cls-2" d="M22.44,0c-.8,0-1.5,1.11-1.71,2.7L18.42,25.79c-.21,1.6-.91,2.71-1.71,2.71H12.56c.8,0,1.5-1.11,1.71-2.71L16.58,2.7c.21-1.59.91-2.7,1.7-2.7Z"/><path class="cls-1" d="M18.17,0c.8,0,1.5,1.11,1.71,2.7l1.89,18.77c.21,1.6.91,2.71,1.7,2.71h4.16c-.8,0-1.5-1.11-1.71-2.71L24,2.7c-.21-1.59-.91-2.7-1.7-2.7Z"/><path class="cls-2" d="M32.92,5c-.8,0-1.5,1.11-1.71,2.71L29.32,21.47c-.21,1.6-.91,2.71-1.7,2.71H23.46c.8,0,1.5-1.11,1.71-2.71L27.06,7.74C27.27,6.14,28,5,28.77,5Z"/><path class="cls-1" d="M28.59,5c.8,0,1.49,1.11,1.7,2.71l1.21,9.57c.21,1.6.91,2.7,1.71,2.7h4.15c-.79,0-1.49-1.1-1.7-2.7L34.45,7.74C34.24,6.14,33.54,5,32.74,5Z"/><path class="cls-2" d="M39.94,9.93,39,17.31c-.21,1.6-.9,2.7-1.7,2.7H33.16c.79,0,1.49-1.1,1.7-2.7l.92-7.38Z"/><path class="cls-3" d="M68.57,20.82c1.3-1.69,4.6-6.18,5.92-8.19a3.29,3.29,0,0,0,.58-1.7c0-.85-.72-1.6-2-1.6a3.17,3.17,0,0,0-2.16,1.11.43.43,0,0,1-.63,0L69,9.06a.41.41,0,0,1,0-.58,6.42,6.42,0,0,1,4.46-2.19c3.2,0,5.07,2,5.07,4.51a5.61,5.61,0,0,1-.87,2.9C76.88,15,75.05,17.36,74,18.84h3.93a.44.44,0,0,1,.42.42v2a.44.44,0,0,1-.42.42H69a.42.42,0,0,1-.43-.42Z"/><path class="cls-3" d="M48.88,7.87a.35.35,0,0,1,.36-.48H51.6a.41.41,0,0,1,.36.28l1.73,6.83h.08l3.12-7.09a.4.4,0,0,1,.35-.22h.36a.34.34,0,0,1,.34.22l3.12,7.09h.08l1.74-6.83a.41.41,0,0,1,.36-.28h2.35a.35.35,0,0,1,.37.48L62.15,21.41a.38.38,0,0,1-.36.28h-.32a.41.41,0,0,1-.35-.22l-3.68-8.24h-.06l-3.67,8.24a.41.41,0,0,1-.34.22h-.32a.38.38,0,0,1-.36-.28Z"/><path class="cls-3" d="M129.18,10.42v-3H128V7.06h2.81v.36h-1.2v3Z"/><path class="cls-3" d="M134.22,10.42h-.41V7.53l-1,2h-.22l-1-2v2.89h-.39V7.06h.53l1,1.93.95-1.93h.53Z"/><path class="cls-3" d="M97,11.45a6.82,6.82,0,0,0-2-1.2,6.17,6.17,0,0,0-2.19-.4,4.84,4.84,0,0,0-3.62,1.43,5.08,5.08,0,0,0-1.4,3.7,5,5,0,0,0,1.36,3.63A4.53,4.53,0,0,0,92.6,20a6.09,6.09,0,0,0,2.29-.43A7.1,7.1,0,0,0,97,18.32v2.5a6.86,6.86,0,0,1-1.94.95,8.34,8.34,0,0,1-5.16-.19,6.72,6.72,0,0,1-2.32-1.5A6.81,6.81,0,0,1,86,17.78,7.56,7.56,0,0,1,85.51,15a7.46,7.46,0,0,1,.53-2.8,6.72,6.72,0,0,1,1.55-2.31,6.6,6.6,0,0,1,2.32-1.51A7.8,7.8,0,0,1,95,8.17a7.94,7.94,0,0,1,2.1,1.05Z"/><path class="cls-3" d="M117.25,19l1.77-.82a2.38,2.38,0,0,0,.92,1.39,2.83,2.83,0,0,0,1.7.48,2.22,2.22,0,0,0,1.57-.55,1.93,1.93,0,0,0,.58-1.47c0-.79-.67-1.51-2-2.13l-.43-.2a9.7,9.7,0,0,1-3-2,3.25,3.25,0,0,1-.75-2.17,3.48,3.48,0,0,1,1.13-2.69,4.2,4.2,0,0,1,3-1,4.93,4.93,0,0,1,2.51.58,3.09,3.09,0,0,1,1.4,1.66l-1.72.9A2.91,2.91,0,0,0,123,10a2.32,2.32,0,0,0-2.53.16,1.59,1.59,0,0,0-.53,1.25c0,.81.77,1.58,2.3,2.28l.28.13a8.26,8.26,0,0,1,2.77,1.81,3.31,3.31,0,0,1,.75,2.22A4,4,0,0,1,124.83,21a4.59,4.59,0,0,1-3.28,1.14,4.75,4.75,0,0,1-2.84-.8A3.73,3.73,0,0,1,117.25,19Z"/><path class="cls-3" d="M111.91,14.9c0-.11-.07-.41-.13-.91s-.09-.74-.13-1a6.79,6.79,0,0,1-.25,1,7,7,0,0,1-.39,1l-3.37,6.86a.33.33,0,0,1-.59,0l-3.37-7a8.73,8.73,0,0,1-.4-.91c-.11-.29-.21-.58-.29-.87,0,.29,0,.6-.07.92s-.11.66-.19,1l-1.5,6.9h-2.1l3.1-13.67a.33.33,0,0,1,.62-.06l3.73,8,.29.7c.13.33.29.73.47,1.21.14-.41.35-.91.63-1.53l.18-.39,3.63-7.95a.33.33,0,0,1,.62.06l3.17,13.66h-2.11Z"/></g></g></svg>