<?xml version="1.0" encoding="UTF-8"?>
<svg id="_フォーマット" data-name="フォーマット" xmlns="http://www.w3.org/2000/svg" xmlns:xlink="http://www.w3.org/1999/xlink" viewBox="0 0 90 700">
  <defs>
    <style>
      .cls-1 {
        fill: url(#_名称未設定グラデーション_421);
      }

      .cls-2 {
        opacity: .45;
      }
    </style>
    <linearGradient id="_名称未設定グラデーション_421" data-name="名称未設定グラデーション 421" x1="45" y1="421.5" x2="45" y2="288.32" gradientUnits="userSpaceOnUse">
      <stop offset="0" stop-color="#27cb3e"/>
      <stop offset=".19" stop-color="#6df14e"/>
      <stop offset=".46" stop-color="#00ff50"/>
      <stop offset=".66" stop-color="#00a000"/>
      <stop offset="1" stop-color="#3dbc3c"/>
    </linearGradient>
  </defs>
  <g class="cls-2">
    <path class="cls-1" d="m62.3,385.14c-3.39,0-6.37.67-8.95,2-2.57,1.34-4.77,3-6.6,4.99-1.83,1.99-3.91,4.61-6.26,7.87-2.09,2.87-3.68,4.95-4.79,6.26-1.11,1.3-2.28,2.31-3.52,3.03-1.24.72-2.71,1.08-4.4,1.08-2.41,0-4.35-.65-5.82-1.96-1.47-1.3-2.2-2.97-2.2-4.99s.78-3.67,2.35-4.94,3.62-1.91,6.16-1.91h1.96c.33,0,.6-.12.83-.34.23-.23.34-.51.34-.83v-8.9c0-.33-.12-.6-.34-.83-.23-.23-.51-.34-.83-.34h-2.54c-5.28,0-9.55,1.66-12.81,4.99-3.26,3.32-4.89,7.69-4.89,13.1s1.68,9.78,5.03,13.1c3.36,3.32,7.8,4.99,13.35,4.99,3.06,0,5.7-.55,7.92-1.66,2.22-1.11,4.25-2.67,6.11-4.69,1.86-2.02,4.25-5.02,7.19-8.99,2.87-3.91,5.12-6.53,6.75-7.87,1.63-1.34,3.62-2,5.96-2,2.48,0,4.42.62,5.82,1.86,1.4,1.24,2.1,2.84,2.1,4.79,0,2.09-.77,3.76-2.3,5.04-1.53,1.27-3.57,1.91-6.11,1.91h-2.54c-.33,0-.6.11-.83.34-.23.23-.34.5-.34.83v8.8c0,.33.11.6.34.83.23.23.5.34.83.34h2.35c5.54,0,9.99-1.66,13.34-4.99,3.36-3.32,5.04-7.69,5.04-13.1s-1.6-9.65-4.79-12.9c-3.19-3.26-7.5-4.89-12.9-4.89Zm-33.92-59.86h1.17c.32,0,.6-.11.83-.34.23-.23.34-.51.34-.83l.39-9.09c0-.33-.12-.6-.34-.83-.23-.23-.51-.34-.83-.34h-2.44c-2.28,0-4.14-.65-5.57-1.96-1.44-1.3-2.15-3.03-2.15-5.18s.72-3.78,2.15-5.08c1.43-1.3,3.29-1.96,5.57-1.96h35c2.28,0,4.14.65,5.57,1.96,1.43,1.3,2.15,3,2.15,5.08s-.72,3.88-2.15,5.18c-1.44,1.3-3.29,1.96-5.57,1.96h-2.44c-.78,0-1.17.39-1.17,1.17l.39,9.09c0,.32.13.6.39.83.26.23.55.34.88.34h1.17c5.6,0,10.05-1.69,13.34-5.08,3.29-3.39,4.94-7.89,4.94-13.49s-1.65-9.99-4.94-13.34c-3.29-3.36-7.74-5.03-13.34-5.03H28.38c-5.54,0-9.99,1.68-13.35,5.03-3.36,3.36-5.03,7.8-5.03,13.34s1.68,10.1,5.03,13.49c3.36,3.39,7.8,5.08,13.35,5.08Zm33.34,29.88l16.72-9.48c.52-.33.78-.82.78-1.47v-8.99c0-.33-.12-.6-.34-.83-.23-.23-.51-.34-.83-.34H11.95c-.33,0-.6.11-.83.34-.23.23-.34.51-.34.83v8.99c0,.33.11.6.34.83.23.23.5.34.83.34h46.15c.26,0,.39.06.39.19s-.1.26-.29.39l-15.45,8.51c-.52.33-.78.62-.78.88s.26.55.78.88l15.45,8.51c.2.13.29.26.29.39s-.13.2-.39.2H11.95c-.33,0-.6.11-.83.34-.23.23-.34.5-.34.83v8.99c0,.32.11.6.34.83.23.23.5.34.83.34h66.09c.33,0,.6-.11.83-.34.23-.23.34-.51.34-.83v-8.99c0-.65-.26-1.14-.78-1.47l-16.72-9.29c-.26-.2-.26-.39,0-.59Z"/>
  </g>
</svg>