<svg xmlns="http://www.w3.org/2000/svg" viewBox="0 0 190.69 28.5"><defs><style>.cls-1{fill:#fff;}.cls-2{fill:#999;}</style></defs><title>logo_w2Commerce</title><g id="レイヤー_2" data-name="レイヤー 2"><g id="レイヤー_1-2" data-name="レイヤー 1"><path class="cls-1" d="M68.57,20.8c1.3-1.7,4.6-6.18,5.92-8.19a3.28,3.28,0,0,0,.58-1.7,1.74,1.74,0,0,0-2-1.61,3.19,3.19,0,0,0-2.17,1.12.43.43,0,0,1-.63,0L69,9a.42.42,0,0,1,0-.58,6.42,6.42,0,0,1,4.47-2.19c3.19,0,5.07,2,5.07,4.51a5.65,5.65,0,0,1-.87,2.9C76.88,15,75,17.34,74,18.81h3.93a.44.44,0,0,1,.42.42v2a.44.44,0,0,1-.42.42H69a.42.42,0,0,1-.42-.42Z"/><path class="cls-1" d="M48.88,7.85a.35.35,0,0,1,.36-.48H51.6a.41.41,0,0,1,.36.28l1.73,6.83h.08l3.12-7.09a.38.38,0,0,1,.34-.22h.36a.34.34,0,0,1,.34.22l3.12,7.09h.08l1.73-6.83a.41.41,0,0,1,.36-.28h2.36a.35.35,0,0,1,.36.48L62.15,21.38a.39.39,0,0,1-.36.28h-.32a.41.41,0,0,1-.34-.22l-3.69-8.24h-.06l-3.67,8.24a.41.41,0,0,1-.34.22H53a.39.39,0,0,1-.36-.28Z"/><path class="cls-1" d="M97.36,11.39a6.8,6.8,0,0,0-2-1.2,6.1,6.1,0,0,0-2.19-.4,4.84,4.84,0,0,0-3.62,1.43,5.07,5.07,0,0,0-1.4,3.7,5.05,5.05,0,0,0,1.36,3.63A4.53,4.53,0,0,0,93,20a6.25,6.25,0,0,0,2.3-.43,7.29,7.29,0,0,0,2.09-1.29v2.5a6.54,6.54,0,0,1-1.94,1,8.38,8.38,0,0,1-5.15-.2,6.78,6.78,0,0,1-3.85-3.8,7.46,7.46,0,0,1-.53-2.82,7.38,7.38,0,0,1,.53-2.81,7,7,0,0,1,3.86-3.82,7.65,7.65,0,0,1,2.83-.51,7.42,7.42,0,0,1,2.28.35,8,8,0,0,1,2.11,1.05Z"/><path class="cls-1" d="M99.47,17.28a4.6,4.6,0,0,1,.37-1.82,4.77,4.77,0,0,1,2.61-2.54,5.06,5.06,0,0,1,3.72,0,4.72,4.72,0,0,1,1.57,1,4.65,4.65,0,0,1,1.06,1.53,4.54,4.54,0,0,1,.36,1.79,4.68,4.68,0,0,1-.36,1.83,4.46,4.46,0,0,1-1,1.51,5,5,0,0,1-1.6,1.05,4.91,4.91,0,0,1-1.86.36,4.86,4.86,0,0,1-1.84-.36,4.88,4.88,0,0,1-2.63-2.58A4.61,4.61,0,0,1,99.47,17.28Zm7.56,0a2.94,2.94,0,0,0-.79-2.07,2.61,2.61,0,0,0-3.85,0,3.11,3.11,0,0,0,0,4.15,2.61,2.61,0,0,0,3.85,0A2.92,2.92,0,0,0,107,17.3Z"/><path class="cls-1" d="M113.18,21.67h-2V12.87h1.89v1.44A4,4,0,0,1,114.42,13a3.68,3.68,0,0,1,1.8-.42,3.13,3.13,0,0,1,1.71.43,2.68,2.68,0,0,1,1,1.31A4.68,4.68,0,0,1,120.45,13a3.74,3.74,0,0,1,1.79-.42,3.41,3.41,0,0,1,1.52.32,2.36,2.36,0,0,1,1,.93,2.22,2.22,0,0,1,.25.69,6.3,6.3,0,0,1,.08,1.14v6h-2V17.15a4.75,4.75,0,0,0-.38-2.33,1.49,1.49,0,0,0-1.34-.56,1.88,1.88,0,0,0-1.69.76,5,5,0,0,0-.51,2.65v4h-2V17.15a4.6,4.6,0,0,0-.39-2.26,1.48,1.48,0,0,0-1.36-.63,2.22,2.22,0,0,0-1.09.27,2,2,0,0,0-.78.74,2.1,2.1,0,0,0-.26.75,11.82,11.82,0,0,0-.07,1.64Z"/><path class="cls-1" d="M130.13,21.67h-2V12.87H130v1.44A4,4,0,0,1,131.38,13a3.68,3.68,0,0,1,1.8-.42,3.13,3.13,0,0,1,1.71.43,2.68,2.68,0,0,1,1,1.31A4.68,4.68,0,0,1,137.4,13a3.74,3.74,0,0,1,1.79-.42,3.41,3.41,0,0,1,1.52.32,2.36,2.36,0,0,1,1,.93,2.22,2.22,0,0,1,.25.69,6.3,6.3,0,0,1,.08,1.14v6h-2V17.15a4.75,4.75,0,0,0-.38-2.33,1.49,1.49,0,0,0-1.34-.56,1.88,1.88,0,0,0-1.69.76,5,5,0,0,0-.51,2.65v4h-2V17.15a4.6,4.6,0,0,0-.39-2.26,1.48,1.48,0,0,0-1.36-.63,2.22,2.22,0,0,0-1.09.27,2,2,0,0,0-.78.74,2.1,2.1,0,0,0-.26.75,11.82,11.82,0,0,0-.07,1.64Z"/><path class="cls-1" d="M153.25,17.57h-7a2.94,2.94,0,0,0,.73,1.92,2.31,2.31,0,0,0,1.75.69,3,3,0,0,0,1.62-.41,3.37,3.37,0,0,0,1.13-1.32l1.7.95a5.15,5.15,0,0,1-1.84,2,5,5,0,0,1-2.57.65,4.48,4.48,0,0,1-3.37-1.29,4.73,4.73,0,0,1-1.25-3.44,4.68,4.68,0,0,1,1.29-3.4,5,5,0,0,1,6.64-.12,4.67,4.67,0,0,1,1.19,3.41Zm-2.09-1.35a2.13,2.13,0,0,0-.72-1.44,2.52,2.52,0,0,0-1.65-.5,2.48,2.48,0,0,0-1.6.48,2.59,2.59,0,0,0-.84,1.46Z"/><path class="cls-1" d="M158.17,14.27A2.85,2.85,0,0,1,159,13a2.08,2.08,0,0,1,1.32-.42,3.48,3.48,0,0,1,.84.1,4.1,4.1,0,0,1,.81.3l-.72,1.71a1.84,1.84,0,0,0-.56-.27,2.4,2.4,0,0,0-.67-.09,1.51,1.51,0,0,0-1.44.8,6,6,0,0,0-.44,2.7v3.86h-2V12.85h2Z"/><path class="cls-1" d="M170.43,15.38a3.16,3.16,0,0,0-1.08-.78,3.29,3.29,0,0,0-1.33-.27,2.57,2.57,0,0,0-2,.8,3,3,0,0,0-.74,2.12A3,3,0,0,0,166,19.4a2.71,2.71,0,0,0,2.06.78,3,3,0,0,0,1.31-.27,2.83,2.83,0,0,0,1-.83V21.4a4.69,4.69,0,0,1-1.19.47,5.57,5.57,0,0,1-1.35.16,4.54,4.54,0,0,1-3.37-1.32,4.65,4.65,0,0,1-1.3-3.41,4.55,4.55,0,0,1,1.35-3.43,4.87,4.87,0,0,1,3.53-1.3,5.59,5.59,0,0,1,1.26.13,4.16,4.16,0,0,1,1.08.41Z"/><path class="cls-1" d="M181.86,17.57h-7a2.94,2.94,0,0,0,.73,1.92,2.31,2.31,0,0,0,1.75.69,3,3,0,0,0,1.62-.41,3.37,3.37,0,0,0,1.13-1.32l1.7.95a5.15,5.15,0,0,1-1.84,2,5,5,0,0,1-2.57.65A4.48,4.48,0,0,1,174,20.74a4.73,4.73,0,0,1-1.25-3.44A4.68,4.68,0,0,1,174,13.9a5,5,0,0,1,6.64-.12,4.67,4.67,0,0,1,1.19,3.41Zm-2.09-1.35a2.13,2.13,0,0,0-.72-1.44,2.52,2.52,0,0,0-1.65-.5,2.48,2.48,0,0,0-1.6.48,2.59,2.59,0,0,0-.84,1.46Z"/><path class="cls-1" d="M0,12.09l.86,6.06c.21,1.6.91,2.7,1.7,2.7H6.72c-.8,0-1.49-1.11-1.7-2.7l-.86-6.06Z"/><path class="cls-2" d="M11.72,5c-.8,0-1.49,1.11-1.7,2.7L8.25,18.15c-.21,1.6-.91,2.7-1.7,2.7H2.39c.8,0,1.49-1.11,1.7-2.7L5.86,7.74c.21-1.6.91-2.7,1.7-2.7Z"/><path class="cls-1" d="M7.4,5c.8,0,1.49,1.11,1.7,2.7l2,18.05c.21,1.6.91,2.7,1.7,2.7h4.15c-.8,0-1.49-1.11-1.7-2.7l-2-18.05C13,6.14,12.35,5,11.55,5Z"/><path class="cls-2" d="M22.44,0c-.8,0-1.49,1.11-1.7,2.7L18.42,25.79c-.21,1.6-.91,2.7-1.7,2.7H12.56c.8,0,1.49-1.11,1.7-2.7L16.58,2.7c.21-1.6.91-2.7,1.7-2.7Z"/><path class="cls-1" d="M18.17,0c.8,0,1.49,1.11,1.7,2.7l1.89,18.77c.21,1.6.91,2.7,1.7,2.7h4.15c-.8,0-1.49-1.11-1.7-2.7L24,2.7c-.21-1.6-.91-2.7-1.7-2.7Z"/><path class="cls-2" d="M32.92,5c-.8,0-1.49,1.11-1.7,2.7L29.32,21.47c-.21,1.6-.91,2.7-1.7,2.7H23.46c.8,0,1.49-1.11,1.7-2.7L27.06,7.74c.21-1.6.91-2.7,1.7-2.7Z"/><path class="cls-1" d="M28.59,5c.8,0,1.49,1.11,1.7,2.7l1.21,9.57c.21,1.6.91,2.7,1.7,2.7h4.15c-.8,0-1.49-1.11-1.7-2.7L34.45,7.74c-.21-1.6-.91-2.7-1.7-2.7Z"/><path class="cls-2" d="M39.94,9.93,39,17.31c-.21,1.6-.91,2.7-1.7,2.7H33.16c.8,0,1.49-1.11,1.7-2.7l.92-7.38Z"/><path class="cls-1" d="M185.64,13.52v-3h-1.19v-.36h2.8v.36h-1.19v3Z"/><path class="cls-1" d="M190.69,13.52h-.41V10.63l-1,2h-.23l-1-2v2.89h-.39V10.15h.53l1,1.94,1-1.94h.53Z"/></g></g></svg>