<?xml version="1.0" encoding="UTF-8"?>
<svg id="_レイヤー_5" data-name="レイヤー 5" xmlns="http://www.w3.org/2000/svg" viewBox="0 0 30 30">
  <defs>
    <style>
      .cls-1 {
        fill: #49977a;
      }

      .cls-1, .cls-2, .cls-3, .cls-4 {
        fill-rule: evenodd;
      }

      .cls-2 {
        fill: #306f7f;
      }

      .cls-3 {
        fill: #d4f9d7;
      }

      .cls-4 {
        fill: #fff;
      }
    </style>
  </defs>
  <path class="cls-1" d="m16.6,15.44c1.71-.94,3.5-1.49,5.34-.53-1.33-.77-3.28-2.16-4.65-2.33-1.4-.17-2.71.34-3.91,1-4.16,2.52-7.16,7.61-7.52,12.45l3.22,1.86c.37-4.84,3.36-9.92,7.52-12.45Z"/>
  <path class="cls-2" d="m6.1,25.9l2.79,1.61c.49-4.89,3.51-9.79,7.6-12.27h0c1.08-.59,2.4-1.18,3.84-1.05-1.04-.63-2.2-1.28-3.06-1.39-1.44-.18-2.77.43-3.77.97-4.02,2.44-6.98,7.3-7.39,12.13h0Zm2.99,2.21s-.08,0-.12-.03l-3.22-1.86c-.08-.04-.12-.13-.12-.21.38-5.01,3.44-10.09,7.63-12.63,1.06-.58,2.48-1.22,4.06-1.03,1.12.14,2.53,1.01,3.78,1.78.33.21.65.4.94.57.11.06.15.2.09.31-.06.11-.2.15-.31.09-1.88-.99-3.71-.24-5.11.53-4.06,2.47-7.04,7.4-7.41,12.27,0,.08-.05.15-.12.18-.03.02-.07.03-.1.03Z"/>
  <path class="cls-3" d="m19.74,4.27c-.98-.56-3.17-2.02-4.06-2.13-4.38-.54-9.13,8.9-5.44,11.14l3.22,1.86c-4.05-2.57,2.03-13.09,6.27-10.86Z"/>
  <path class="cls-2" d="m15.32,2.34c-2.32,0-4.73,2.86-5.71,5.69-.83,2.38-.54,4.27.76,5.05l1.95,1.13c-.88-1.7-.23-4.32.98-6.42,1.22-2.11,3.19-4,5.11-4.05-.97-.59-2.2-1.31-2.76-1.38-.11-.01-.22-.02-.33-.02h0Zm-1.85,13.02s-.08,0-.12-.03l-3.22-1.86c-1.5-.91-1.85-3-.95-5.59,1.11-3.19,3.86-6.3,6.53-5.96.74.09,2.2.98,3.36,1.69.3.18.57.35.78.47.11.06.15.2.09.31-.06.11-.2.15-.31.09-2.05-1.08-4.52,1.09-5.94,3.55-1.42,2.47-2.06,5.68-.1,6.93.1.07.13.2.07.31-.04.07-.12.11-.19.11Z"/>
  <path class="cls-3" d="m21.94,14.91c-2.95-1.7-7.72,1.06-10.66,6.16-1.26,2.17-2.06,4.59-2.19,6.82l15.05-8.68c-.13-2.09-.94-3.57-2.19-4.3Z"/>
  <path class="cls-2" d="m19.97,14.63c-2.73,0-6.18,2.55-8.5,6.55-1.19,2.06-1.94,4.28-2.13,6.3l14.55-8.4c-.15-1.88-.88-3.29-2.07-3.97h0c-.56-.32-1.18-.48-1.86-.48h0Zm-10.88,13.49s-.08-.01-.12-.03c-.07-.04-.11-.12-.11-.2.13-2.2.92-4.66,2.22-6.93,3.01-5.2,7.93-8,10.97-6.24h0c1.36.78,2.18,2.37,2.31,4.48,0,.08-.04.17-.12.21l-15.05,8.69s-.07.03-.11.03Z"/>
  <path class="cls-4" d="m21.04,7.14c0-1.41-.49-2.41-1.29-2.87-.81-.46-1.92-.4-3.14.31-1.22.71-2.33,1.92-3.13,3.31-.8,1.39-1.3,2.96-1.3,4.37s.5,2.41,1.3,2.87c2.83,1.64,7.57-3.52,7.57-7.99Z"/>
  <path class="cls-2" d="m18.59,4.2c-.56,0-1.21.2-1.87.58-1.15.66-2.24,1.81-3.05,3.23-.82,1.42-1.27,2.93-1.27,4.26s.42,2.23,1.19,2.67c.99.57,2.1.17,2.86-.27,2.1-1.21,4.37-4.44,4.37-7.52,0-1.28-.42-2.23-1.19-2.68-.31-.18-.66-.27-1.04-.27h0Zm-3.93,11.47c-.48,0-.91-.11-1.3-.34-.91-.53-1.41-1.62-1.41-3.07s.47-3,1.33-4.48c.86-1.48,2-2.69,3.22-3.39,1.26-.73,2.45-.83,3.36-.31.91.53,1.42,1.61,1.42,3.07,0,3.25-2.38,6.64-4.6,7.92-.71.41-1.39.61-2.02.61Z"/>
</svg>