<?xml version="1.0" encoding="UTF-8"?>
<svg id="_レイヤー_5" data-name="レイヤー 5" xmlns="http://www.w3.org/2000/svg" viewBox="0 0 30 30">
  <defs>
    <style>
      .cls-1 {
        fill: #e26f1b;
      }

      .cls-1, .cls-2, .cls-3, .cls-4 {
        fill-rule: evenodd;
      }

      .cls-2 {
        fill: #e23e38;
      }

      .cls-3 {
        fill: #ffae8d;
      }

      .cls-4 {
        fill: #fff;
      }
    </style>
  </defs>
  <path class="cls-3" d="m23.78,9.88l-3.49-2.01c-.44-.17-.63-.09-1.05.1l-11.95,6.89c-.87.56-1.45,1.56-1.5,2.6v7.96c.03.47.07.66.44.97l3.49,2.01c-.38-.31-.4-.5-.45-.97l.02-7.96c.04-1.04.63-2.04,1.5-2.6l11.93-6.89c.44-.2.61-.27,1.07-.1Z"/>
  <path class="cls-2" d="m19.86,7.97c-.16,0-.3.06-.54.18l-11.93,6.88c-.82.52-1.36,1.45-1.4,2.43v7.95c.03.42.05.55.37.81l2.74,1.59c-.02-.11-.03-.23-.03-.37v-7.98c.05-1.12.66-2.18,1.59-2.77l11.95-6.89c.14-.06.26-.11.37-.15l-2.79-1.61c-.12-.05-.23-.07-.31-.07h0Zm-10.15,20.63s-.07-.01-.1-.03l-3.49-2.01c-.45-.37-.49-.61-.54-1.13v-7.98c.05-1.12.66-2.17,1.61-2.77l11.95-6.89c.49-.22.72-.31,1.24-.12l3.51,2.03c.09.05.12.17.09.27-.05.1-.17.14-.26.1-.38-.14-.51-.09-.91.1l-11.91,6.88c-.8.51-1.36,1.47-1.41,2.43v7.95c.05.42.05.55.37.81.09.07.1.19.05.28-.05.06-.1.09-.17.09Z"/>
  <path class="cls-4" d="m22.71,9.98l-11.93,6.89c-.82.47-1.5,1.65-1.5,2.6l-.02,7.96c0,.95.68,1.34,1.5.87l11.95-6.89c.84-.48,1.5-1.65,1.5-2.6v-7.96c0-.95-.66-1.34-1.5-.87Z"/>
  <path class="cls-2" d="m22.71,9.98l.1.18-11.93,6.89c-.77.44-1.41,1.55-1.41,2.42v7.96c0,.38.12.67.35.79.21.13.51.09.86-.1l11.93-6.89c.77-.44,1.4-1.55,1.4-2.42v-7.96c0-.38-.1-.67-.33-.79-.21-.12-.52-.09-.86.1l-.1-.18h0Zm-12.61,18.73c-.17,0-.33-.04-.49-.13-.35-.2-.54-.61-.54-1.15v-7.96c0-1.02.72-2.26,1.61-2.77l11.93-6.89c.47-.27.93-.3,1.27-.1.35.2.54.61.54,1.15v7.96c0,1.02-.73,2.27-1.61,2.78l-11.95,6.89c-.26.15-.52.23-.77.23Z"/>
  <path class="cls-1" d="m16.74,16c.86-.49,1.54-.09,1.54.88,0,.59-.26,1.26-.65,1.81v2.76c0,.46-.33,1.04-.73,1.27l-.3.18c-.4.23-.73.04-.73-.42v-2.76c-.4-.1-.65-.48-.65-1.07,0-.97.68-2.16,1.52-2.64Z"/>
  <path class="cls-2" d="m17.44,16c-.18,0-.38.06-.59.18-.77.45-1.42,1.56-1.42,2.47,0,.47.17.79.49.87.09.02.16.1.16.2v2.76c0,.15.03.25.1.3.07.04.17.02.31-.05l.3-.18c.35-.2.63-.69.63-1.09v-2.76s.02-.09.05-.12c.37-.53.59-1.16.59-1.69,0-.39-.12-.68-.35-.81-.09-.05-.17-.07-.28-.07h0Zm-1.17,7.2c-.1,0-.21-.02-.3-.07-.19-.12-.31-.35-.31-.65v-2.61c-.4-.18-.65-.62-.65-1.21,0-1.06.72-2.3,1.64-2.82.47-.27.93-.31,1.28-.11.35.21.56.62.56,1.17,0,.6-.25,1.28-.65,1.87v2.7c0,.54-.37,1.18-.84,1.45l-.31.18c-.14.08-.28.13-.42.13Z"/>
  <path class="cls-1" d="m19.08,5.16c-.16-.51-.37-1.02-.75-1.41.07.02.14.03.21.05,1.1.33,1.96,1.35,1.96,2.93l.02,3.05-1.29-.75.02-2.36c0-.64-.09-1.22-.16-1.52Z"/>
  <path class="cls-2" d="m19.43,8.93l.87.51-.02-2.7c0-1.17-.52-2.11-1.38-2.56.14.26.26.57.37.93,0,0,0,0,.02.01.07.33.16.92.14,1.57v2.24h0Zm1.08,1.07s-.07,0-.1-.03l-1.29-.75c-.07-.04-.1-.1-.1-.18l.02-2.36c0-.61-.07-1.17-.14-1.47-.17-.59-.4-1.01-.7-1.31-.07-.07-.09-.17-.03-.25.05-.08.16-.12.24-.09.02,0,.05.02.09.02.03,0,.07.02.1.03,1.29.39,2.11,1.59,2.11,3.13l.02,3.05c0,.07-.05.14-.1.18-.03.02-.07.03-.1.03Z"/>
  <path class="cls-1" d="m15.72,1.67c1.05-.26,1.87-.27,2.86.23l1.27.72c-1.08-.55-2.03-.48-3.16-.14-.86.31-1.47.65-2.22,1.18-.77.59-1.38,1.17-2.03,1.91-.56.66-1,1.28-1.45,2.02-.56.96-.98,1.92-1.35,2.98-.23.79-.45,1.45-.45,2.27l-.02,3.48-1.27-.74-.02-3.09c0-.82.17-1.47.38-2.26.33-1.12.7-2,1.24-3,.51-.88,1.01-1.59,1.66-2.38.73-.85,1.42-1.47,2.34-2.12.75-.49,1.34-.79,2.2-1.05Z"/>
  <path class="cls-2" d="m8.13,15.46l.86.5.03-3.13c0-.77.17-1.38.38-2.09l.07-.24c.35-1.06.79-2.02,1.36-3.03.47-.75.91-1.38,1.47-2.05.68-.78,1.31-1.36,2.06-1.94.7-.5,1.33-.87,2.27-1.21.54-.16,1.1-.29,1.71-.28-.89-.41-1.66-.36-2.57-.14-.87.26-1.47.59-2.15,1.02-.86.6-1.52,1.21-2.29,2.09-.65.77-1.14,1.47-1.64,2.34-.56,1.04-.91,1.9-1.22,2.96-.19.75-.37,1.4-.37,2.2l.02,2.97h0Zm1.07,1.07s-.07-.01-.1-.03l-1.28-.74c-.05-.04-.1-.1-.1-.18v-3.09c0-.85.17-1.53.37-2.31.33-1.1.7-1.98,1.28-3.05.52-.9,1.01-1.62,1.68-2.41.79-.91,1.48-1.53,2.38-2.16.72-.46,1.35-.8,2.27-1.08h0c1.03-.25,1.92-.3,3,.24l1.28.72c.1.05.14.18.09.28-.05.1-.17.13-.26.09-1.07-.54-1.97-.44-3.02-.13-.77.28-1.36.59-2.15,1.15-.73.56-1.33,1.12-1.99,1.87-.54.64-.98,1.26-1.43,1.99-.56.98-.98,1.92-1.31,2.94l-.07.23c-.21.68-.38,1.26-.38,1.97l-.02,3.48c0,.07-.04.14-.1.18-.03.02-.07.03-.1.03Z"/>
  <path class="cls-1" d="m15.43,3.05c3.46-1.94,6.27-.37,6.27,3.51l-.02,2.55-1.17.68-.02-3.05c0-2.8-2.39-3.86-5.07-2.37-2.69,1.51-5.08,5.11-5.06,8.19l.02,3.09-1.19.68v-3.33c0-3.76,2.97-8.1,6.24-9.95h0Z"/>
  <path class="cls-2" d="m15.43,3.05h.02-.02Zm2.8-.63c-.8,0-1.73.27-2.69.81h0c-3.37,1.89-6.13,6.28-6.13,9.77v2.97l.77-.44v-2.97c-.02-3.01,2.31-6.76,5.17-8.37,1.45-.81,2.88-.93,3.93-.31.93.53,1.43,1.55,1.43,2.86l.02,2.7.77-.45v-2.43c0-1.77-.59-3.09-1.68-3.73-.47-.27-1.01-.41-1.59-.41h0Zm-9.03,14.11s-.07-.01-.1-.03c-.05-.04-.1-.1-.1-.18v-3.33c.02-3.69,2.79-8.13,6.36-10.13,1.76-.99,3.42-1.13,4.68-.39,1.2.71,1.89,2.16,1.89,4.08l-.02,2.55c0,.07-.03.14-.1.18l-1.17.68c-.07.04-.14.04-.21,0-.07-.04-.1-.1-.1-.18l-.02-3.05c0-1.16-.42-2.05-1.21-2.51-.93-.54-2.22-.42-3.55.32-2.74,1.54-4.98,5.13-4.96,8.01l.02,3.09c0,.07-.05.14-.1.18l-1.19.68s-.07.03-.1.03Z"/>
  <path class="cls-1" d="m17.09,22.59c-.07.05-.12.09-.19.13l-.3.18c-.4.23-.73.04-.73-.42v-.59l1.22.7Z"/>
  <path class="cls-2" d="m16.07,22.24v.23c0,.15.03.25.1.3.07.04.17.02.31-.05l.19-.12-.61-.36h0Zm.19.96c-.1,0-.21-.02-.3-.07-.19-.12-.31-.35-.31-.65v-.59c0-.07.03-.14.1-.18.05-.04.14-.04.21,0l1.21.7c.07.03.1.09.1.16.02.07-.02.13-.07.17-.07.06-.14.11-.21.15l-.31.18c-.14.08-.28.13-.42.13Z"/>
  <path class="cls-1" d="m16.74,16c.86-.49,1.54-.09,1.54.88,0,.38-.1.79-.28,1.19l-.37.62-2.13-1.23c.28-.61.73-1.16,1.24-1.46Z"/>
  <path class="cls-2" d="m15.78,17.38l1.78,1.03.24-.44c.17-.36.26-.74.26-1.08,0-.39-.12-.68-.35-.81-.21-.13-.52-.09-.87.11h0c-.4.24-.8.68-1.07,1.2h0Zm1.85,1.52s-.07,0-.1-.03l-2.13-1.23c-.09-.05-.12-.17-.09-.26.31-.67.8-1.25,1.35-1.55h0c.47-.27.93-.31,1.28-.11.35.21.56.62.56,1.17,0,.4-.1.84-.31,1.27l-.37.64c-.03.06-.1.1-.17.1Z"/>
  <path class="cls-3" d="m6.07,16.36l-.02.03c-.16.4-.23.69-.24,1.12v7.92c.05.47.07.66.44.96l3.48,2c-.38-.31-.4-.5-.44-.96v-7.92c.02-.39.07-.8.24-1.15l-3.46-2Z"/>
  <path class="cls-2" d="m6.17,16.66c-.1.27-.14.5-.16.86v7.91c.03.42.05.55.37.81l2.72,1.58c-.02-.11-.02-.23-.03-.36v-7.93c.02-.41.09-.77.19-1.06l-3.09-1.79h0Zm3.55,11.94s-.07-.01-.1-.03l-3.46-2c-.47-.37-.51-.61-.56-1.12l.02-7.94c.02-.49.09-.8.24-1.2.02-.05.07-.11.12-.13.07-.02.14-.03.19,0l3.46,2c.09.05.12.17.09.27-.14.28-.21.64-.23,1.07l-.02,7.91c.05.42.05.55.37.81.09.07.1.19.05.28-.05.06-.1.09-.17.09Z"/>
</svg>