<svg xmlns="http://www.w3.org/2000/svg" xmlns:xlink="http://www.w3.org/1999/xlink" width="24" height="24" viewBox="0 0 24 24">
  <defs>
    <clipPath id="clip-path">
      <rect id="長方形_3" data-name="長方形 3" width="14" height="14" transform="translate(0 0)" fill="#3a6ba6"/>
    </clipPath>
  </defs>
  <g id="グループ_9" data-name="グループ 9" transform="translate(-504 -1089)">
    <rect id="長方形_1" data-name="長方形 1" width="24" height="24" rx="4" transform="translate(504 1089)" fill="#fff"/>
    <g id="グループ_5" data-name="グループ 5" transform="translate(538.372 1094.372)">
      <g id="グループ_4" data-name="グループ 4" transform="translate(-29.372 -0.372)" clip-path="url(#clip-path)">
        <path id="パス_4" data-name="パス 4" d="M12.825,2.334,7.015.061a.886.886,0,0,0-.644,0L.562,2.334A.885.885,0,0,0,0,3.157V10.23a.884.884,0,0,0,.562.823l5.809,2.273a.886.886,0,0,0,.644,0l5.809-2.273a.884.884,0,0,0,.562-.823V3.157a.885.885,0,0,0-.562-.823m-6.131-.5,3.3,1.292L6.7,4.472,3.479,3.091ZM1.768,4.282,5.809,6.013v5.194L1.768,9.626Zm5.809,6.926V6.024l4.041-1.653V9.626Z" transform="translate(0.307 0.307)" fill="#3a6ba6"/>
      </g>
    </g>
  </g>
</svg>
