<svg xmlns="http://www.w3.org/2000/svg" xmlns:xlink="http://www.w3.org/1999/xlink" width="24" height="24" viewBox="0 0 24 24">
  <defs>
    <clipPath id="clip-path">
      <rect id="長方形_4" data-name="長方形 4" width="14" height="14" fill="#3a6ba6"/>
    </clipPath>
  </defs>
  <g id="グループ_8" data-name="グループ 8" transform="translate(-473 -1089)">
    <rect id="長方形_1" data-name="長方形 1" width="24" height="24" rx="4" transform="translate(473 1089)" fill="#fff"/>
    <g id="グループ_7" data-name="グループ 7" transform="translate(478 1094)">
      <g id="グループ_6" data-name="グループ 6" clip-path="url(#clip-path)">
        <path id="パス_5" data-name="パス 5" d="M7,0a7,7,0,1,0,7,7A7.008,7.008,0,0,0,7,0M7,12.093A5.093,5.093,0,1,1,12.093,7,5.1,5.1,0,0,1,7,12.093" fill="#3a6ba6"/>
        <path id="パス_6" data-name="パス 6" d="M133.915,61.2v0h-1.987V58.47h0a.869.869,0,0,0-1.734,0h0v2.824a1.161,1.161,0,0,0,1.639,1.639h2.087v0a.869.869,0,0,0,0-1.734" transform="translate(-124.058 -55.064)" fill="#3a6ba6"/>
      </g>
    </g>
  </g>
</svg>
