<?xml version="1.0" encoding="UTF-8"?>
<svg id="_フォーマット" data-name="フォーマット" xmlns="http://www.w3.org/2000/svg" xmlns:xlink="http://www.w3.org/1999/xlink" viewBox="0 0 300 65">
  <defs>
    <style>
      .cls-1 {
        fill: none;
      }

      .cls-2 {
        clip-path: url(#clippath);
      }

      .cls-3 {
        fill: #f5f5f5;
      }

      .cls-4 {
        fill: #45689d;
      }
    </style>
    <clipPath id="clippath">
      <rect class="cls-1" x="-123.01" y="-1663" width="1360" height="800"/>
    </clipPath>
  </defs>
  <g class="cls-2">
    <polygon class="cls-3" points="-671.16 -728.19 1237.9 -1191.63 123.92 426.5 -671.16 -728.19"/>
  </g>
  <path class="cls-4" d="m83.92,24.15c-1.31,0-2.26.7-2.84,2.1-.02.09-.05.12-.1.11-.04-.01-.06-.06-.06-.15v-1.49c0-.11-.04-.2-.11-.27-.08-.08-.17-.11-.27-.11h-2.97c-.11,0-.2.04-.27.11-.08.08-.11.17-.11.27v15.69c0,.11.04.2.11.27.07.08.17.11.27.11h2.97c.11,0,.2-.04.27-.11.07-.08.11-.17.11-.27v-9.14c0-.82.19-1.52.57-2.12.38-.59.87-.93,1.47-1.02.22-.06.45-.1.71-.1s.54.04.84.13c.28.11.43.03.45-.23l.52-3c.04-.22-.02-.38-.19-.48-.32-.22-.78-.32-1.36-.32Zm43.03-6.65c-.67,0-1.22.22-1.65.65-.43.43-.65.98-.65,1.65s.22,1.22.65,1.65c.43.43.98.65,1.65.65s1.18-.22,1.61-.65c.43-.43.65-.98.65-1.65s-.21-1.22-.63-1.65c-.42-.43-.96-.65-1.63-.65Zm1.52,6.85h-2.97c-.11,0-.2.04-.27.11-.08.08-.11.17-.11.27v15.73c0,.11.04.2.11.27.07.08.17.11.27.11h2.97c.11,0,.2-.04.27-.11.08-.08.11-.17.11-.27v-15.73c0-.11-.04-.2-.11-.27-.08-.08-.17-.11-.27-.11Zm-6.28-.03h-2c-.11,0-.16-.05-.16-.16v-3.55c0-.11-.04-.2-.11-.27-.08-.07-.17-.11-.27-.11h-2.84c-.11,0-.2.04-.27.11s-.11.17-.11.27v3.55c0,.11-.05.16-.16.16h-1.13c-.11,0-.2.04-.27.11-.08.08-.11.17-.11.27v1.87c0,.11.04.2.11.27.08.08.17.11.27.11h1.13c.11,0,.16.05.16.16v9.85c0,1.49.37,2.5,1.11,3.04.74.54,1.85.81,3.31.81h1.1c.11,0,.2-.04.27-.11.08-.07.11-.17.11-.27v-2.49c0-.11-.04-.2-.11-.27-.08-.08-.17-.11-.27-.11h-.23c-.56.02-.98-.11-1.26-.4-.28-.29-.42-.81-.42-1.57v-8.46c0-.11.05-.16.16-.16h2c.11,0,.2-.04.27-.11.07-.08.11-.17.11-.27v-1.87c0-.11-.04-.2-.11-.27-.08-.08-.17-.11-.27-.11Zm-26.56,5.81c-.02-.06-.01-.14.03-.23l3.36-5.07c.09-.13.11-.24.06-.34-.04-.1-.14-.15-.29-.15h-3.1c-.22,0-.37.09-.45.26l-3.52,5.55c-.04.06-.09.1-.13.1s-.06-.04-.06-.13v-11.5c0-.11-.04-.2-.11-.27-.08-.08-.17-.11-.27-.11h-2.97c-.11,0-.2.04-.27.11-.08.08-.11.17-.11.27v21.83c0,.11.04.2.11.27.07.08.17.11.27.11h2.97c.11,0,.2-.04.27-.11.07-.08.11-.17.11-.27v-4.81s.02-.11.06-.19l1.52-2.26c.02-.06.05-.09.1-.08.04.01.08.05.1.11l2.39,7.3c.06.22.2.32.42.32h3.07c.24,0,.35-.1.35-.29,0-.06-.01-.12-.03-.16l-3.88-10.27Zm11.38-6.04c-1.77,0-3.16.48-4.18,1.44-1.02.96-1.53,2.22-1.53,3.79v6.56c0,1.61.51,2.89,1.53,3.83,1.02.94,2.42,1.4,4.18,1.4s3.02-.4,3.97-1.21c.95-.81,1.5-1.96,1.65-3.47.02-.13,0-.23-.08-.31-.08-.07-.17-.11-.27-.11l-2.87-.13c-.22,0-.36.11-.42.32-.11.5-.34.9-.69,1.21-.35.31-.78.47-1.28.47-.58,0-1.06-.22-1.42-.65-.37-.43-.55-.98-.55-1.65v-1.45c0-.11.05-.16.16-.16h7.14c.11,0,.2-.04.27-.11.08-.07.11-.17.11-.27v-4.26c0-1.57-.51-2.84-1.53-3.79-1.02-.96-2.42-1.44-4.18-1.44Zm2,6.98c0,.11-.05.16-.16.16h-3.65c-.11,0-.16-.05-.16-.16v-1.45c0-.67.18-1.22.55-1.65.37-.43.84-.65,1.42-.65s1.09.21,1.45.63c.37.42.55.97.55,1.66v1.45Zm-40.32-6.98c-1.57,0-2.88.44-3.92,1.32-1.04.88-1.62,2.06-1.73,3.52-.02.26.1.39.36.39h3.13c.26,0,.4-.13.42-.39.06-.49.25-.89.55-1.18.3-.29.68-.44,1.13-.44.58,0,1.07.23,1.45.69.39.46.58,1.08.58,1.86v.84c0,.11-.05.16-.16.16h-1.68c-1.94,0-3.47.41-4.6,1.23-1.13.82-1.7,2.2-1.7,4.13s.47,3.13,1.4,3.83c.94.7,2.02,1.05,3.25,1.05,1.44,0,2.54-.44,3.29-1.32.04-.06.09-.09.13-.06.04.02.06.06.06.13v.61c0,.11.04.2.11.27.07.08.17.11.27.11h2.97c.11,0,.2-.04.27-.11.07-.08.11-.17.11-.27v-10.98c0-1.61-.53-2.92-1.58-3.91-1.06-.99-2.43-1.49-4.13-1.49Zm1.97,11.59c0,.73-.25,1.3-.74,1.71-.5.41-1.07.61-1.71.61-.54,0-.98-.17-1.32-.5-.34-.33-.52-.83-.52-1.5,0-.75.23-1.33.68-1.73.45-.4,1.04-.6,1.78-.6h1.68c.11,0,.16.05.16.16v1.84Zm-11.22-17.44h-2.97c-.22,0-.38.09-.48.26l-3.07,5.52c-.06.09-.13.09-.19,0l-3.13-5.52c-.11-.17-.27-.26-.48-.26h-2.97c-.11,0-.2.04-.27.11-.08.08-.11.17-.11.27v21.83c0,.11.04.2.11.27.08.08.17.11.27.11h2.97c.11,0,.2-.04.27-.11.08-.08.11-.17.11-.27v-15.24c0-.09.02-.13.06-.13s.09.03.13.1l2.81,5.1c.11.17.2.26.29.26s.18-.09.29-.26l2.81-5.1c.04-.06.09-.1.13-.1s.06.04.06.13v15.24c0,.11.04.2.11.27.07.08.17.11.27.11h2.97c.11,0,.2-.04.27-.11.08-.08.11-.17.11-.27v-21.83c0-.11-.04-.2-.11-.27-.08-.08-.17-.11-.27-.11Zm151.32,5.84c-1.31,0-2.34.43-3.07,1.29-.06.09-.12.12-.18.11-.05-.01-.08-.05-.08-.11v-.65c0-.11-.04-.2-.11-.27-.08-.08-.17-.11-.27-.11h-2.97c-.11,0-.2.04-.27.11-.08.08-.11.17-.11.27v15.73c0,.11.04.2.11.27.07.08.17.11.27.11h2.97c.11,0,.2-.04.27-.11.07-.08.11-.17.11-.27v-10.59c0-.8.17-1.42.52-1.87.34-.45.83-.68,1.45-.68s1.07.22,1.39.65c.32.43.48,1.03.48,1.81v10.69c0,.11.04.2.11.27.07.08.17.11.27.11h2.97c.11,0,.2-.04.27-.11.07-.08.11-.17.11-.27v-10.98c0-1.72-.36-3.05-1.08-3.99-.72-.94-1.78-1.4-3.18-1.4Zm-71.82,0c-1.31,0-2.34.43-3.07,1.29-.06.09-.12.12-.18.11-.05-.01-.08-.05-.08-.11v-.65c0-.11-.04-.2-.11-.27-.08-.08-.17-.11-.27-.11h-2.97c-.11,0-.2.04-.27.11-.08.08-.11.17-.11.27v15.73c0,.11.04.2.11.27.07.08.17.11.27.11h2.97c.11,0,.2-.04.27-.11.07-.08.11-.17.11-.27v-10.59c0-.8.17-1.42.52-1.87.34-.45.83-.68,1.45-.68s1.07.22,1.39.65c.32.43.48,1.03.48,1.81v10.69c0,.11.04.2.11.27.08.08.17.11.27.11h2.97c.11,0,.2-.04.27-.11.07-.08.11-.17.11-.27v-10.98c0-1.72-.36-3.05-1.08-3.99-.72-.94-1.78-1.4-3.18-1.4Zm86.02,0c-1.31,0-2.34.43-3.07,1.29-.06.09-.12.12-.18.11-.05-.01-.08-.05-.08-.11v-.65c0-.11-.04-.2-.11-.27-.08-.08-.17-.11-.27-.11h-2.97c-.11,0-.2.04-.27.11-.08.08-.11.17-.11.27v15.73c0,.11.04.2.11.27.07.08.17.11.27.11h2.97c.11,0,.2-.04.27-.11.07-.08.11-.17.11-.27v-10.59c0-.8.17-1.42.52-1.87.34-.45.83-.68,1.45-.68s1.07.22,1.39.65c.32.43.48,1.03.48,1.81v10.69c0,.11.04.2.11.27.07.08.17.11.27.11h2.97c.11,0,.2-.04.27-.11.08-.08.11-.17.11-.27v-10.98c0-1.72-.36-3.05-1.08-3.99-.72-.94-1.78-1.4-3.18-1.4Zm29.11.39c-.32-.22-.77-.32-1.36-.32-1.31,0-2.26.7-2.84,2.1-.02.09-.05.12-.1.11-.04-.01-.06-.06-.06-.15v-1.49c0-.11-.04-.2-.11-.27-.08-.08-.17-.11-.27-.11h-2.97c-.11,0-.2.04-.27.11-.08.08-.11.17-.11.27v15.69c0,.11.04.2.11.27.08.08.17.11.27.11h2.97c.11,0,.2-.04.27-.11.07-.08.11-.17.11-.27v-9.14c0-.82.19-1.52.57-2.12.38-.59.87-.93,1.47-1.02.22-.06.45-.1.71-.1s.54.04.84.13c.28.11.43.03.45-.23l.52-3c.04-.22-.02-.38-.19-.48Zm-16.46-.39c-1.77,0-3.16.48-4.18,1.44-1.02.96-1.53,2.22-1.53,3.79v6.56c0,1.61.51,2.89,1.53,3.83s2.42,1.4,4.18,1.4,3.02-.4,3.97-1.21c.95-.81,1.5-1.96,1.65-3.47.02-.13,0-.23-.08-.31-.08-.07-.17-.11-.27-.11l-2.87-.13c-.22,0-.36.11-.42.32-.11.5-.34.9-.69,1.21-.36.31-.78.47-1.28.47-.58,0-1.06-.22-1.42-.65-.37-.43-.55-.98-.55-1.65v-1.45c0-.11.05-.16.16-.16h7.14c.11,0,.2-.04.27-.11.07-.07.11-.17.11-.27v-4.26c0-1.57-.51-2.84-1.53-3.79-1.02-.96-2.42-1.44-4.18-1.44Zm2,6.98c0,.11-.05.16-.16.16h-3.65c-.11,0-.16-.05-.16-.16v-1.45c0-.67.18-1.22.55-1.65.37-.43.84-.65,1.42-.65s1.09.21,1.45.63c.37.42.55.97.55,1.66v1.45Zm-62.08-12.01c-.87-.56-1.88-.84-3.02-.84h-6.07c-.11,0-.2.04-.27.11-.08.08-.11.17-.11.27v21.86c0,.11.04.2.11.27.07.08.17.11.27.11h2.97c.11,0,.2-.04.27-.11.08-.08.11-.17.11-.27v-8.98c0-.11.05-.16.16-.16h2.75c1.68,0,3.03-.59,4.05-1.78,1.02-1.18,1.53-2.74,1.53-4.68,0-1.29-.24-2.44-.73-3.46-.48-1.01-1.16-1.8-2.03-2.36Zm-1.71,8.41c-.48.61-1.12.92-1.92.92h-1.94c-.11,0-.16-.05-.16-.16v-6.62c0-.11.05-.16.16-.16h1.94c.8,0,1.44.32,1.92.95.48.64.73,1.49.73,2.57s-.24,1.89-.73,2.5Zm-18.91-3.12h-2.97c-.11,0-.2.04-.27.11-.08.08-.11.17-.11.27v.71c0,.06-.02.1-.06.11-.04.01-.09-.02-.13-.08-.71-.93-1.72-1.39-3.04-1.39-1.42,0-2.51.46-3.28,1.37-.76.92-1.15,2.2-1.15,3.86v6.33c0,1.61.38,2.89,1.13,3.83.75.94,1.85,1.4,3.29,1.4,1.31,0,2.33-.46,3.04-1.39.04-.06.09-.09.13-.08.04.01.06.05.06.11v.36c0,1.01-.12,1.83-.36,2.45-.24.62-.68,1.1-1.34,1.42-.66.32-1.6.47-2.83.45-.28-.04-.42.08-.42.36v2.49c0,.26.13.4.39.42.24.02.59.03,1.07.03,2.71,0,4.6-.63,5.65-1.89,1.05-1.26,1.58-3.05,1.58-5.38v-15.5c0-.11-.04-.2-.11-.27-.08-.08-.17-.11-.27-.11Zm-3.36,11.04c0,.67-.18,1.21-.53,1.63-.35.42-.82.63-1.4.63s-1.06-.21-1.42-.63c-.37-.42-.55-.96-.55-1.63v-5.78c0-.67.18-1.22.55-1.65.37-.43.84-.65,1.42-.65s1.05.21,1.4.63c.36.42.53.97.53,1.66v5.78Zm41.66-11.3c-1.57,0-2.88.44-3.92,1.32-1.04.88-1.62,2.06-1.73,3.52-.02.26.1.39.36.39h3.13c.26,0,.4-.13.42-.39.06-.49.25-.89.55-1.18.3-.29.68-.44,1.13-.44.58,0,1.07.23,1.45.69.39.46.58,1.08.58,1.86v.84c0,.11-.05.16-.16.16h-1.68c-1.94,0-3.47.41-4.6,1.23-1.13.82-1.7,2.2-1.7,4.13s.47,3.13,1.41,3.83c.94.7,2.02,1.05,3.25,1.05,1.44,0,2.54-.44,3.29-1.32.04-.06.09-.09.13-.06.04.02.06.06.06.13v.61c0,.11.04.2.11.27.07.08.17.11.27.11h2.97c.11,0,.2-.04.27-.11.07-.08.11-.17.11-.27v-10.98c0-1.61-.53-2.92-1.58-3.91-1.06-.99-2.43-1.49-4.13-1.49Zm1.97,11.59c0,.73-.25,1.3-.74,1.71-.5.41-1.07.61-1.71.61-.54,0-.98-.17-1.32-.5-.34-.33-.52-.83-.52-1.5,0-.75.23-1.33.68-1.73.45-.4,1.04-.6,1.78-.6h1.68c.11,0,.16.05.16.16v1.84Zm-11.02-17.44h-2.97c-.11,0-.2.04-.27.11-.08.08-.11.17-.11.27v21.83c0,.11.04.2.11.27.08.08.17.11.27.11h2.97c.11,0,.2-.04.27-.11.07-.08.11-.17.11-.27v-21.83c0-.11-.04-.2-.11-.27-.08-.08-.17-.11-.27-.11Z"/>
</svg>