<svg xmlns="http://www.w3.org/2000/svg" viewBox="0 0 255.45 28.5"><defs><style>.cls-1{fill:#fff;}.cls-2{fill:#999;}</style></defs><title>logo_w2CustomerSupport</title><g id="レイヤー_2" data-name="レイヤー 2"><g id="レイヤー_1-2" data-name="レイヤー 1"><path class="cls-1" d="M0,12.09l.86,6.06c.21,1.6.91,2.7,1.7,2.7H6.72c-.8,0-1.49-1.11-1.7-2.7l-.86-6.06Z"/><path class="cls-2" d="M11.72,5c-.8,0-1.49,1.11-1.7,2.7L8.25,18.15c-.21,1.6-.91,2.7-1.7,2.7H2.39c.8,0,1.49-1.11,1.7-2.7L5.86,7.74c.21-1.6.91-2.7,1.7-2.7Z"/><path class="cls-1" d="M7.4,5c.8,0,1.49,1.11,1.7,2.7l2,18.05c.21,1.6.91,2.7,1.7,2.7h4.15c-.8,0-1.49-1.11-1.7-2.7l-2-18.05C13,6.14,12.35,5,11.55,5Z"/><path class="cls-2" d="M22.44,0c-.8,0-1.49,1.11-1.7,2.7L18.42,25.79c-.21,1.6-.91,2.7-1.7,2.7H12.56c.8,0,1.49-1.11,1.7-2.7L16.58,2.7c.21-1.6.91-2.7,1.7-2.7Z"/><path class="cls-1" d="M18.17,0c.8,0,1.49,1.11,1.7,2.7l1.89,18.77c.21,1.6.91,2.7,1.7,2.7h4.15c-.8,0-1.49-1.11-1.7-2.7L24,2.7c-.21-1.6-.91-2.7-1.7-2.7Z"/><path class="cls-2" d="M32.92,5c-.8,0-1.49,1.11-1.7,2.7L29.32,21.47c-.21,1.6-.91,2.7-1.7,2.7H23.46c.8,0,1.49-1.11,1.7-2.7L27.06,7.74c.21-1.6.91-2.7,1.7-2.7Z"/><path class="cls-1" d="M28.59,5c.8,0,1.49,1.11,1.7,2.7l1.21,9.57c.21,1.6.91,2.7,1.7,2.7h4.15c-.8,0-1.49-1.11-1.7-2.7L34.45,7.74c-.21-1.6-.91-2.7-1.7-2.7Z"/><path class="cls-2" d="M39.94,9.93,39,17.31c-.21,1.6-.91,2.7-1.7,2.7H33.16c.8,0,1.49-1.11,1.7-2.7l.92-7.38Z"/><path class="cls-1" d="M68.57,20.82c1.3-1.7,4.6-6.18,5.92-8.19a3.28,3.28,0,0,0,.58-1.7,1.74,1.74,0,0,0-2-1.61,3.19,3.19,0,0,0-2.17,1.12.43.43,0,0,1-.63,0L69,9.06a.42.42,0,0,1,0-.58,6.42,6.42,0,0,1,4.47-2.19c3.19,0,5.07,2,5.07,4.51a5.65,5.65,0,0,1-.87,2.9C76.88,15,75,17.36,74,18.84h3.93a.44.44,0,0,1,.42.42v2a.44.44,0,0,1-.42.42H69a.42.42,0,0,1-.42-.42Z"/><path class="cls-1" d="M48.88,7.87a.35.35,0,0,1,.36-.48H51.6a.41.41,0,0,1,.36.28l1.73,6.83h.08l3.12-7.09a.38.38,0,0,1,.34-.22h.36a.34.34,0,0,1,.34.22l3.12,7.09h.08l1.73-6.83a.41.41,0,0,1,.36-.28h2.36a.35.35,0,0,1,.36.48L62.15,21.41a.39.39,0,0,1-.36.28h-.32a.41.41,0,0,1-.34-.22l-3.69-8.24h-.06l-3.67,8.24a.41.41,0,0,1-.34.22H53a.39.39,0,0,1-.36-.28Z"/><path class="cls-1" d="M97,11.41a6.8,6.8,0,0,0-2-1.2,6.1,6.1,0,0,0-2.19-.4,4.84,4.84,0,0,0-3.62,1.43,5.07,5.07,0,0,0-1.4,3.7,5.05,5.05,0,0,0,1.36,3.63A4.53,4.53,0,0,0,92.57,20a6.25,6.25,0,0,0,2.3-.43A7.29,7.29,0,0,0,97,18.28v2.5a6.54,6.54,0,0,1-1.94,1,8.38,8.38,0,0,1-5.15-.2A6.78,6.78,0,0,1,86,17.74a7.46,7.46,0,0,1-.53-2.82A7.38,7.38,0,0,1,86,12.12,7,7,0,0,1,89.88,8.3a7.65,7.65,0,0,1,2.83-.51A7.42,7.42,0,0,1,95,8.13,8,8,0,0,1,97.1,9.18Z"/><path class="cls-1" d="M101.69,12.89v5a2.62,2.62,0,0,0,.53,1.84,2.92,2.92,0,0,0,3.43,0,2.62,2.62,0,0,0,.53-1.84v-5h2v4.35a5.45,5.45,0,0,1-1,3.66A4.11,4.11,0,0,1,104,22a4.18,4.18,0,0,1-3.27-1.13,5.45,5.45,0,0,1-1-3.67V12.89Z"/><path class="cls-1" d="M110.28,20.09l1.67-.91a1.73,1.73,0,0,0,.69,1,2.24,2.24,0,0,0,1.29.34,1.64,1.64,0,0,0,1.06-.31,1,1,0,0,0,.38-.85q0-.71-1.37-1.22l-.71-.28a5.74,5.74,0,0,1-2-1.19,2.07,2.07,0,0,1-.56-1.47,2.33,2.33,0,0,1,.92-1.91,3.82,3.82,0,0,1,2.44-.73,3.78,3.78,0,0,1,1.75.38A2.31,2.31,0,0,1,116.93,14l-1.43,1a1.32,1.32,0,0,0-.55-.66,1.7,1.7,0,0,0-.91-.25,1.45,1.45,0,0,0-.92.27.88.88,0,0,0-.35.73q0,.69,1.56,1.25l.76.29a4.45,4.45,0,0,1,1.74,1.09,2.24,2.24,0,0,1,.52,1.52,2.48,2.48,0,0,1-1,2.06,4.18,4.18,0,0,1-2.63.75,4.3,4.3,0,0,1-2.14-.48A3.27,3.27,0,0,1,110.28,20.09Z"/><path class="cls-1" d="M121.2,21.69v-7h-1.54V12.89h1.54V9.56h2v3.33h1.54v1.76h-1.54v7Z"/><path class="cls-1" d="M127,17.3a4.6,4.6,0,0,1,.37-1.82A4.77,4.77,0,0,1,130,12.94a5.06,5.06,0,0,1,3.72,0,4.72,4.72,0,0,1,1.57,1,4.65,4.65,0,0,1,1.06,1.53,4.54,4.54,0,0,1,.36,1.79,4.68,4.68,0,0,1-.36,1.83,4.46,4.46,0,0,1-1,1.51,5,5,0,0,1-1.6,1.05,4.91,4.91,0,0,1-1.86.36,4.86,4.86,0,0,1-1.84-.36,4.88,4.88,0,0,1-2.63-2.58A4.61,4.61,0,0,1,127,17.3Zm7.56,0a2.94,2.94,0,0,0-.79-2.07,2.61,2.61,0,0,0-3.85,0,3.11,3.11,0,0,0,0,4.15,2.61,2.61,0,0,0,3.85,0A2.92,2.92,0,0,0,134.54,17.32Z"/><path class="cls-1" d="M141.63,21.69h-2V12.89h1.89v1.44A4,4,0,0,1,142.88,13a3.68,3.68,0,0,1,1.8-.42,3.13,3.13,0,0,1,1.71.43,2.68,2.68,0,0,1,1,1.31A4.68,4.68,0,0,1,148.9,13a3.74,3.74,0,0,1,1.79-.42,3.41,3.41,0,0,1,1.52.32,2.36,2.36,0,0,1,1,.93,2.22,2.22,0,0,1,.25.69,6.3,6.3,0,0,1,.08,1.14v6h-2V17.17a4.75,4.75,0,0,0-.38-2.33,1.49,1.49,0,0,0-1.34-.56,1.88,1.88,0,0,0-1.69.76,5,5,0,0,0-.51,2.65v4h-2V17.17a4.6,4.6,0,0,0-.39-2.26,1.48,1.48,0,0,0-1.36-.63,2.22,2.22,0,0,0-1.09.27,2,2,0,0,0-.78.74,2.1,2.1,0,0,0-.26.75,11.82,11.82,0,0,0-.07,1.64Z"/><path class="cls-1" d="M165.61,17.59h-7a2.94,2.94,0,0,0,.73,1.92,2.31,2.31,0,0,0,1.75.69,3,3,0,0,0,1.62-.41,3.37,3.37,0,0,0,1.13-1.32l1.7.95a5.15,5.15,0,0,1-1.84,2,5,5,0,0,1-2.57.65,4.48,4.48,0,0,1-3.37-1.29,4.73,4.73,0,0,1-1.25-3.44,4.68,4.68,0,0,1,1.29-3.4,5,5,0,0,1,6.64-.12,4.67,4.67,0,0,1,1.19,3.41Zm-2.09-1.35a2.13,2.13,0,0,0-.72-1.44,2.52,2.52,0,0,0-1.65-.5,2.48,2.48,0,0,0-1.6.48,2.59,2.59,0,0,0-.84,1.46Z"/><path class="cls-1" d="M170.23,14.29a2.85,2.85,0,0,1,.86-1.29,2.08,2.08,0,0,1,1.32-.42,3.48,3.48,0,0,1,.84.1,4.1,4.1,0,0,1,.81.3l-.72,1.71a1.84,1.84,0,0,0-.56-.27,2.4,2.4,0,0,0-.67-.09,1.51,1.51,0,0,0-1.44.8,6,6,0,0,0-.44,2.7v3.86h-2V12.88h2Z"/><path class="cls-1" d="M178,19l1.76-.82a2.43,2.43,0,0,0,.92,1.39,2.86,2.86,0,0,0,1.71.48,2.19,2.19,0,0,0,1.56-.55,1.92,1.92,0,0,0,.58-1.47q0-1.2-2-2.13l-.43-.21a9.58,9.58,0,0,1-3-2,3.25,3.25,0,0,1-.75-2.17,3.47,3.47,0,0,1,1.13-2.69,4.21,4.21,0,0,1,3-1,5,5,0,0,1,2.51.58,3.06,3.06,0,0,1,1.4,1.67l-1.73.89a2.88,2.88,0,0,0-.9-.94,2.1,2.1,0,0,0-1.12-.3,2.06,2.06,0,0,0-1.42.46,1.58,1.58,0,0,0-.52,1.24q0,1.22,2.3,2.28l.28.13A8.19,8.19,0,0,1,186,15.63a3.3,3.3,0,0,1,.75,2.21,4,4,0,0,1-1.22,3.07A4.62,4.62,0,0,1,182.28,22a4.75,4.75,0,0,1-2.84-.8A3.73,3.73,0,0,1,178,19Z"/><path class="cls-1" d="M191.14,12.89v5a2.62,2.62,0,0,0,.53,1.84,2.92,2.92,0,0,0,3.43,0,2.62,2.62,0,0,0,.53-1.84v-5h2v4.35a5.45,5.45,0,0,1-1,3.66A4.11,4.11,0,0,1,193.41,22a4.18,4.18,0,0,1-3.27-1.13,5.45,5.45,0,0,1-1-3.67V12.89Z"/><path class="cls-1" d="M200.74,25.83V12.89h2v1.44A2.65,2.65,0,0,1,203.88,13a3.59,3.59,0,0,1,1.85-.46,3.54,3.54,0,0,1,2.84,1.29,5.1,5.1,0,0,1,1.09,3.4,5.26,5.26,0,0,1-1.07,3.49A3.63,3.63,0,0,1,205.66,22a3.34,3.34,0,0,1-2.9-1.5v5.28Zm1.95-8.56a3.29,3.29,0,0,0,.68,2.18,2.23,2.23,0,0,0,1.8.82,2.16,2.16,0,0,0,1.77-.76,3.31,3.31,0,0,0,.63-2.16,3.3,3.3,0,0,0-.65-2.17,2.46,2.46,0,0,0-3.58,0A3.2,3.2,0,0,0,202.69,17.26Z"/><path class="cls-1" d="M211.94,25.83V12.89h2v1.44A2.65,2.65,0,0,1,215.08,13a3.59,3.59,0,0,1,1.85-.46,3.54,3.54,0,0,1,2.84,1.29,5.1,5.1,0,0,1,1.09,3.4,5.26,5.26,0,0,1-1.07,3.49A3.63,3.63,0,0,1,216.85,22a3.34,3.34,0,0,1-2.9-1.5v5.28Zm1.95-8.56a3.29,3.29,0,0,0,.68,2.18,2.23,2.23,0,0,0,1.8.82,2.16,2.16,0,0,0,1.77-.76,3.31,3.31,0,0,0,.63-2.16,3.3,3.3,0,0,0-.65-2.17,2.46,2.46,0,0,0-3.58,0A3.2,3.2,0,0,0,213.88,17.26Z"/><path class="cls-1" d="M222.91,17.3a4.6,4.6,0,0,1,.37-1.82,4.77,4.77,0,0,1,2.61-2.54,5.06,5.06,0,0,1,3.72,0,4.72,4.72,0,0,1,1.57,1,4.65,4.65,0,0,1,1.06,1.53,4.54,4.54,0,0,1,.36,1.79,4.68,4.68,0,0,1-.36,1.83,4.46,4.46,0,0,1-1,1.51,5,5,0,0,1-1.6,1.05,4.91,4.91,0,0,1-1.86.36,4.86,4.86,0,0,1-1.84-.36,4.88,4.88,0,0,1-2.63-2.58A4.61,4.61,0,0,1,222.91,17.3Zm7.56,0a2.94,2.94,0,0,0-.79-2.07,2.61,2.61,0,0,0-3.85,0,3.11,3.11,0,0,0,0,4.15,2.61,2.61,0,0,0,3.85,0A2.92,2.92,0,0,0,230.48,17.32Z"/><path class="cls-1" d="M236.8,14.29a2.85,2.85,0,0,1,.86-1.29,2.08,2.08,0,0,1,1.32-.42,3.48,3.48,0,0,1,.84.1,4.1,4.1,0,0,1,.81.3l-.72,1.71a1.84,1.84,0,0,0-.56-.27,2.4,2.4,0,0,0-.67-.09,1.51,1.51,0,0,0-1.44.8,6,6,0,0,0-.44,2.7v3.86h-2V12.88h2Z"/><path class="cls-1" d="M243.87,21.69v-7h-1.54V12.89h1.54V9.56h2v3.33h1.54v1.76h-1.54v7Z"/><path class="cls-1" d="M250.41,10.42v-3h-1.19V7.06H252v.36h-1.19v3Z"/><path class="cls-1" d="M255.45,10.42H255V7.53l-1,2h-.23l-1-2v2.89h-.39V7.06H253L254,9l1-1.94h.53Z"/></g></g></svg>