<svg xmlns="http://www.w3.org/2000/svg" viewBox="0 0 37.08 29.98"><defs><style>.cls-1{fill:none;}</style></defs><title>ad</title><g id="レイヤー_2" data-name="レイヤー 2"><g id="レイヤー_1-2" data-name="レイヤー 1"><path d="M32.19,19.6a1,1,0,0,0,1-1V5a1,1,0,0,0-1-1H27V2.08h1A1,1,0,0,0,28,.13H24.08a1,1,0,0,0,0,1.95h1V4H19.22V2.08h1a1,1,0,0,0,0-1.95H16.3a1,1,0,0,0,0,1.95h1V4H11.43V2.08h1a1,1,0,0,0,0-1.95H8.51a1,1,0,0,0,0,1.95h1V4H4.29a1,1,0,0,0-1,1V18.63a1,1,0,0,0,1,1H7.54v1.95H4.29a1,1,0,1,0,0,1.95h11V29a1,1,0,0,0,1,1h3.89a1,1,0,0,0,1-1V23.49h11a1,1,0,1,0,0-1.95H28.95V19.6ZM8.51,7.92H12.4a1,1,0,0,1,0,1.95H8.51a1,1,0,0,1,0-1.95Zm-1,4.87a1,1,0,0,1,1-1H12.4a1,1,0,0,1,0,1.95H8.51A1,1,0,0,1,7.54,12.79Zm9.73,8.76H9.48V19.6h7.79Zm9.73,0H19.22V19.6H27Zm1.83-6.35a1,1,0,0,1-.86.51H16.3a1,1,0,0,1-.81-1.51l3.89-5.84a1,1,0,0,1,1.62,0l1.14,1.71,1.14-1.71a1,1,0,0,1,1.62,0l3.89,5.84A1,1,0,0,1,28.83,15.19Z"/><rect class="cls-1" width="37.08" height="29.98"/></g></g></svg>