<svg xmlns="http://www.w3.org/2000/svg" viewBox="0 0 37.08 29.98"><defs><style>.cls-1{fill:#040000;}.cls-2{fill:#231815;}.cls-3{fill:none;}</style></defs><title>affiliate_1</title><g id="レイヤー_2" data-name="レイヤー 2"><g id="レイヤー_1-2" data-name="レイヤー 1"><path class="cls-1" d="M21.6,12.33a3.06,3.06,0,1,1-3.06-3.06A3.06,3.06,0,0,1,21.6,12.33Z"/><path class="cls-1" d="M18.54,16.72c3.18,0,5.76,1.23,5.76,2.56s-2.58,1.44-5.76,1.44-5.76-.12-5.76-1.44S15.36,16.72,18.54,16.72Z"/><path class="cls-2" d="M30.56,23.33l.06-.07a14.59,14.59,0,0,0-1.35-19A14.43,14.43,0,0,0,19,0h-.42V1.76H19A12.68,12.68,0,0,1,28,5.5a12.83,12.83,0,0,1,1.25,16.63l-1.21,1.21V20H26.31v5.6l.7.7h5.61V24.58H29.31Z"/><path class="cls-2" d="M9,24.48A12.83,12.83,0,0,1,7.82,7.83L9,6.64V10h1.76V4.34l-.7-.7H4.46V5.4H7.77L6.51,6.65l-.06.07a14.6,14.6,0,0,0,1.35,19A14.45,14.45,0,0,0,18.08,30h.42V28.23h-.42A12.7,12.7,0,0,1,9,24.48Z"/><rect class="cls-3" width="37.08" height="29.98"/></g></g></svg>