<svg xmlns="http://www.w3.org/2000/svg" viewBox="0 0 37.08 29.98"><defs><style>.cls-1{fill:none;}</style></defs><title>approval</title><g id="レイヤー_2" data-name="レイヤー 2"><g id="レイヤー_1-2" data-name="レイヤー 1"><path d="M16.72,19.28l8.12-5.8a8.79,8.79,0,0,1-1.4-1.26H7.84a2.93,2.93,0,0,0-.82.13Z"/><path d="M27.93,14.91,17.58,22.3a1.47,1.47,0,0,1-1.72,0L5,14.51a3,3,0,0,0-.08.66V27a3,3,0,0,0,3,3H25.6a3,3,0,0,0,3-3V15.18s0-.09,0-.13Z"/><polygon points="28.56 11.35 23.08 5.86 25.17 3.77 28.56 7.16 34.92 0.8 37.01 2.9 28.56 11.35"/><rect class="cls-1" width="37.08" height="29.98"/></g></g></svg>