<svg xmlns="http://www.w3.org/2000/svg" viewBox="0 0 25.79 28.78"><title>box</title><g id="レイヤー_2" data-name="レイヤー 2"><g id="レイヤー_1-2" data-name="レイヤー 1"><path d="M25.72,8.16,13.37,14.75a1,1,0,0,1-.47.12,1,1,0,0,1-.47-.12L.07,8.16A3.6,3.6,0,0,0,0,8.82V20a3.25,3.25,0,0,0,1.62,2.81l9.66,5.58a3.23,3.23,0,0,0,3.24,0l9.65-5.58A3.23,3.23,0,0,0,25.79,20V8.82A3.6,3.6,0,0,0,25.72,8.16Z"/><path d="M7.16,9.35l5-2.88a1.49,1.49,0,0,1,1.5,0l5,2.88a1.24,1.24,0,0,1,.26.19l5.84-3.12A3.36,3.36,0,0,0,24.17,6L14.52.43a3.28,3.28,0,0,0-3.24,0L1.62,6a3.84,3.84,0,0,0-.56.41L6.91,9.54A1.5,1.5,0,0,1,7.16,9.35Z"/></g></g></svg>