<svg xmlns="http://www.w3.org/2000/svg" viewBox="0 0 23.81 21.2"><title>calendar</title><g id="レイヤー_2" data-name="レイヤー 2"><g id="レイヤー_1-2" data-name="レイヤー 1"><rect x="3.64" y="1.26" width="5.93" height="3.42" rx="1.71" transform="translate(3.64 9.57) rotate(-90)"/><rect x="14.59" y="1.26" width="5.93" height="3.42" rx="1.71" transform="translate(14.59 20.53) rotate(-90)"/><path d="M22,3H20.27V4.22a2.71,2.71,0,0,1-5.42,0V3H9.31V4.22a2.71,2.71,0,0,1-5.42,0V3H1.79A1.79,1.79,0,0,0,0,4.76V19.4a1.8,1.8,0,0,0,1.79,1.8H22a1.8,1.8,0,0,0,1.79-1.8V4.76A1.79,1.79,0,0,0,22,3Zm-17.77,15A1.71,1.71,0,1,1,6,16.23,1.7,1.7,0,0,1,4.25,17.93Zm0-5.31A1.71,1.71,0,1,1,6,10.91,1.71,1.71,0,0,1,4.25,12.62Zm5.1,5.31a1.71,1.71,0,1,1,1.71-1.7A1.71,1.71,0,0,1,9.35,17.93Zm0-5.31a1.71,1.71,0,1,1,1.71-1.71A1.72,1.72,0,0,1,9.35,12.62Zm5.1,5.31a1.71,1.71,0,1,1,1.71-1.7A1.71,1.71,0,0,1,14.45,17.93Zm0-5.31a1.71,1.71,0,1,1,1.71-1.71A1.72,1.72,0,0,1,14.45,12.62Zm5.1,5.31a1.71,1.71,0,1,1,1.71-1.7A1.7,1.7,0,0,1,19.55,17.93Zm0-5.31a1.71,1.71,0,1,1,1.71-1.71A1.71,1.71,0,0,1,19.55,12.62Z"/></g></g></svg>