<svg xmlns="http://www.w3.org/2000/svg" xmlns:xlink="http://www.w3.org/1999/xlink" viewBox="0 0 37.08 29.98"><defs><style>.cls-1{fill:none;}.cls-2{clip-path:url(#clip-path);}</style><clipPath id="clip-path"><rect id="SVGID" class="cls-1" x="4.61" y="3.08" width="29.43" height="23.79"/></clipPath></defs><title>category</title><g id="レイヤー_2" data-name="レイヤー 2"><g id="レイヤー_1-2" data-name="レイヤー 1"><g class="cls-2"><path d="M25.84,8.51H15.24l-.43-.83a2.45,2.45,0,0,0-2.24-1.45H7.06A2.45,2.45,0,0,0,4.61,8.68v16a2.17,2.17,0,0,0,2.17,2.17H26.13a2.17,2.17,0,0,0,2.17-2.17V11a2.45,2.45,0,0,0-2.45-2.45Zm0,4.32"/><path d="M29.76,3.08H17.28a1.46,1.46,0,1,0,0,2.92H29.76a1.37,1.37,0,0,1,1.37,1.37v12a1.46,1.46,0,0,0,2.92,0v-12a4.3,4.3,0,0,0-4.29-4.29Zm0,0"/></g><rect class="cls-1" width="37.08" height="29.98"/></g></g></svg>