<svg xmlns="http://www.w3.org/2000/svg" viewBox="0 0 37.08 29.98"><defs><style>.cls-1{fill:none;}</style></defs><title>coupon</title><g id="レイヤー_2" data-name="レイヤー 2"><g id="レイヤー_1-2" data-name="レイヤー 1"><rect class="cls-1" width="37.08" height="29.98"/><path d="M5.55,9.56h4a1.21,1.21,0,0,1,.7.23,1.21,1.21,0,0,1,.7-.23H33l-.47-3.35a1.81,1.81,0,0,0-2-1.54L8.13,7.79a1.14,1.14,0,0,0-.63.3A1.14,1.14,0,0,0,6.82,8L3.09,8.5a1.81,1.81,0,0,0-1.54,2L3.39,23.71a1.8,1.8,0,0,0,.24.68V11.48A1.92,1.92,0,0,1,5.55,9.56Z"/><path d="M34.85,10.77H10.95v2.11a.7.7,0,1,1-1.41,0V10.77h-4a.7.7,0,0,0-.7.7V25.56a.7.7,0,0,0,.7.7h4V24.16a.7.7,0,1,1,1.41,0v2.11h23.9a.7.7,0,0,0,.7-.7V11.48A.7.7,0,0,0,34.85,10.77ZM10.95,21.34a.7.7,0,1,1-1.41,0V19.93a.7.7,0,1,1,1.41,0Zm0-4.23a.7.7,0,0,1-1.41,0V15.7a.7.7,0,0,1,1.41,0Zm11.11,2.51a3,3,0,0,1-.63,1.1,2.74,2.74,0,0,1-1,.71,3.72,3.72,0,0,1-1.4.25,3.68,3.68,0,0,1-1.4-.25,2.78,2.78,0,0,1-1-.71,3,3,0,0,1-.63-1.11,4.46,4.46,0,0,1-.21-1.4,4.32,4.32,0,0,1,.22-1.41,3,3,0,0,1,.64-1.09,2.77,2.77,0,0,1,1-.69A3.67,3.67,0,0,1,19,14.77a3.57,3.57,0,0,1,1.78.42,2.74,2.74,0,0,1,1.13,1.2,4.08,4.08,0,0,1,.38,1.82A4.46,4.46,0,0,1,22.05,19.63Zm5.84-3.84a.7.7,0,0,1-.48.14H24.74v1.71H27a.67.67,0,0,1,.46.14.48.48,0,0,1,.15.37.47.47,0,0,1-.15.37.68.68,0,0,1-.46.14H24.74v2.2a.88.88,0,0,1-.19.62.69.69,0,0,1-1,0,.89.89,0,0,1-.19-.62V15.72a1.13,1.13,0,0,1,.09-.48.54.54,0,0,1,.27-.27,1.14,1.14,0,0,1,.47-.08h3.19a.7.7,0,0,1,.48.14.49.49,0,0,1,.16.38A.49.49,0,0,1,27.89,15.79Zm5.64,0a.7.7,0,0,1-.48.14H30.38v1.71h2.23a.67.67,0,0,1,.46.14.48.48,0,0,1,.15.37.47.47,0,0,1-.15.37.68.68,0,0,1-.46.14H30.38v2.2a.88.88,0,0,1-.19.62.69.69,0,0,1-1,0,.89.89,0,0,1-.19-.62V15.72a1.13,1.13,0,0,1,.09-.48.54.54,0,0,1,.27-.27,1.14,1.14,0,0,1,.47-.08H33a.7.7,0,0,1,.48.14.49.49,0,0,1,.16.38A.49.49,0,0,1,33.52,15.79Z"/><path d="M20,16.12a1.86,1.86,0,0,0-1-.28,1.83,1.83,0,0,0-.75.15,1.64,1.64,0,0,0-.59.44,2.12,2.12,0,0,0-.39.74,3.36,3.36,0,0,0-.14,1,3.44,3.44,0,0,0,.14,1,2.1,2.1,0,0,0,.4.76,1.7,1.7,0,0,0,.6.45,1.79,1.79,0,0,0,2.39-.91,3.1,3.1,0,0,0,.26-1.33,3.14,3.14,0,0,0-.24-1.27A1.77,1.77,0,0,0,20,16.12Z"/></g></g></svg>