<svg xmlns="http://www.w3.org/2000/svg" viewBox="0 0 37.08 29.98"><defs><style>.cls-1{fill:none;}</style></defs><title>data</title><g id="レイヤー_2" data-name="レイヤー 2"><g id="レイヤー_1-2" data-name="レイヤー 1"><path d="M30.59,7.9a1.8,1.8,0,0,0-1.68-1.15H19.08a4,4,0,0,1-2.48-1h0l-.86-.84a4,4,0,0,0-2.46-1H8.62A1.65,1.65,0,0,0,7,5.3H7L6.6,9.63H30.88ZM32,11.06H5a.83.83,0,0,0-.83.83s0,.06,0,.08h0l1.32,13.9a1.11,1.11,0,0,0,1.1,1H30.44a1.11,1.11,0,0,0,1.1-1h0L32.87,12a.78.78,0,0,0,0-.08.83.83,0,0,0-.83-.83h0Z"/><rect class="cls-1" width="37.08" height="29.98"/></g></g></svg>