<svg xmlns="http://www.w3.org/2000/svg" viewBox="0 0 37.08 29.98"><defs><style>.cls-1{fill:none;}</style></defs><title>incident-setting</title><g id="レイヤー_2" data-name="レイヤー 2"><g id="レイヤー_1-2" data-name="レイヤー 1"><path d="M15.84,22.71c-.45-1.23,0-1.92,1.62-3.38-1.54-1.52-2-2.22-1.55-3.4l.88-2c.5-1.18,1.35-1.31,3.58-1.21,0-2.1.16-3.06,1.45-3.49l1.9-.71c1.11-.42,1.76,0,3.12,1.38V5.26A3.36,3.36,0,0,0,23.5,1.9H18.42a3.36,3.36,0,0,0-3.26,2.56H3.36A3.35,3.35,0,0,0,0,7.82V20.41a3.35,3.35,0,0,0,3.36,3.36h12.9Z"/><path d="M34.21,20.48l0-1.25a22.08,22.08,0,0,0,2-2l-.77-1.94a22.18,22.18,0,0,0-2.85-.11l-.87-.91a20.08,20.08,0,0,0,0-2.83l-1.92-.87a20.13,20.13,0,0,0-2.07,1.91l-1.26,0a22.9,22.9,0,0,0-2-2l-2,.73A19.47,19.47,0,0,0,22.4,14l-.91.85a21.55,21.55,0,0,0-2.87,0l-.85,1.88a20.37,20.37,0,0,0,2,2.08l0,1.24a21.79,21.79,0,0,0-2,2l.77,1.94a21.72,21.72,0,0,0,2.85.11l.88.91a21.19,21.19,0,0,0,0,2.83l1.92.86a19.18,19.18,0,0,0,2.06-1.89l1.26,0a22.64,22.64,0,0,0,2,2l2-.72a19.48,19.48,0,0,0,.07-2.81l.91-.85a23.85,23.85,0,0,0,2.88,0l.84-1.89a20.73,20.73,0,0,0-2-2.06Zm-4.43.38a3.07,3.07,0,1,1-1.58-4,3,3,0,0,1,1.58,4Zm0,0"/><rect class="cls-1" width="37.08" height="29.98"/></g></g></svg>