<svg xmlns="http://www.w3.org/2000/svg" viewBox="0 0 37.08 29.98"><defs><style>.cls-1{fill:none;}</style></defs><title>incident</title><g id="レイヤー_2" data-name="レイヤー 2"><g id="レイヤー_1-2" data-name="レイヤー 1"><rect class="cls-1" width="37.08" height="29.98"/><path d="M18.54,1.89c-7.87,0-14.25,6-14.25,13.3A12.75,12.75,0,0,0,7.88,24c-.06.15-.12.31-.18.45A13.38,13.38,0,0,1,5.42,28a.44.44,0,0,0,.42.72,17.56,17.56,0,0,0,4.85-1.39c.32-.15.65-.31,1-.49a15,15,0,0,0,6.85,1.64c7.87,0,14.25-6,14.25-13.3S26.41,1.89,18.54,1.89ZM10.76,17.34a2.15,2.15,0,1,1,2.15-2.15A2.15,2.15,0,0,1,10.76,17.34Zm7.78,0a2.15,2.15,0,1,1,2.15-2.15A2.15,2.15,0,0,1,18.54,17.34Zm7.78,0a2.15,2.15,0,1,1,2.15-2.15A2.15,2.15,0,0,1,26.32,17.34Z"/></g></g></svg>