<svg xmlns="http://www.w3.org/2000/svg" viewBox="0 0 37.08 29.98"><defs><style>.cls-1{fill:none;}</style></defs><title>info</title><g id="レイヤー_2" data-name="レイヤー 2"><g id="レイヤー_1-2" data-name="レイヤー 1"><path d="M18.73.49A14.5,14.5,0,1,1,4.23,15h0A14.5,14.5,0,0,1,18.73.49ZM16.87,10.57a2.45,2.45,0,0,0,1.84.82h0a2.48,2.48,0,0,0,1.84-.81h0a2.75,2.75,0,0,0,.78-1.92V8.61h0V8.56a2.81,2.81,0,0,0-.78-1.95h0a2.48,2.48,0,0,0-3.71,0h0a2.81,2.81,0,0,0-.78,1.95v0h0v0a2.75,2.75,0,0,0,.78,1.93h0ZM20,13.5a2.13,2.13,0,0,0-3,0h0A2.36,2.36,0,0,0,16.42,15s0,.09,0,.13h0V22s0,.08,0,.13A2.36,2.36,0,0,0,17,23.61h0a2.13,2.13,0,0,0,3,0h0a2.27,2.27,0,0,0,.56-1.49s0-.08,0-.12h0V15.11s0-.08,0-.12A2.28,2.28,0,0,0,20,13.5h0Z"/><rect class="cls-1" width="37.08" height="29.98"/></g></g></svg>