<svg xmlns="http://www.w3.org/2000/svg" viewBox="0 0 36.5 27.07"><title>mail-support-setting</title><g id="レイヤー_2" data-name="レイヤー 2"><g id="レイヤー_1-2" data-name="レイヤー 1"><polygon points="24.06 0 1.93 0 12.99 8.3 24.06 0"/><path d="M17.72,17.61c-1.51-1.49-2-2.23-1.54-3.42l.88-1.94c.5-1.18,1.36-1.3,3.58-1.22,0-2.09.16-3,1.44-3.49L24,6.84a1.85,1.85,0,0,1,2,.34v-5L23.1,4.33l-9.24,6.93a1.44,1.44,0,0,1-1.73,0L2.89,4.33,0,2.17v16.6a1.44,1.44,0,0,0,1.44,1.44h14.5C15.94,19.41,16.51,18.74,17.72,17.61Z"/><path d="M34.46,18.76l0-1.25a22.08,22.08,0,0,0,2-2l-.77-1.94a22.18,22.18,0,0,0-2.85-.11L32,12.56a20.08,20.08,0,0,0,0-2.83l-1.92-.87A20.13,20.13,0,0,0,28,10.78l-1.26,0a22.9,22.9,0,0,0-2-2l-2,.73a19.47,19.47,0,0,0-.07,2.81l-.91.85a21.55,21.55,0,0,0-2.87,0L18,15A20.37,20.37,0,0,0,20,17l0,1.24a21.79,21.79,0,0,0-2,2l.77,1.94a21.72,21.72,0,0,0,2.85.11l.88.91a21.19,21.19,0,0,0,0,2.83l1.92.86A19.18,19.18,0,0,0,26.46,25l1.26,0a22.64,22.64,0,0,0,2,2l2-.72a19.48,19.48,0,0,0,.07-2.81l.91-.85a23.85,23.85,0,0,0,2.88,0l.84-1.89a20.73,20.73,0,0,0-2-2.06ZM30,19.14a3.07,3.07,0,1,1-1.58-4,3,3,0,0,1,1.58,4Zm0,0"/></g></g></svg>