<svg xmlns="http://www.w3.org/2000/svg" viewBox="0 0 37.08 29.98"><defs><style>.cls-1{fill:none;}</style></defs><title>mall</title><g id="レイヤー_2" data-name="レイヤー 2"><g id="レイヤー_1-2" data-name="レイヤー 1"><path d="M26.32,15.36a.65.65,0,0,0-.65-.65H22.85a4.78,4.78,0,0,0-4.24-2.89,4.78,4.78,0,0,0-4.24,2.89H11.81a.65.65,0,0,0-.65.65l-.62,12.32a.65.65,0,0,0,.65.65H26.29a.65.65,0,0,0,.65-.65Zm-7.71-2a3.08,3.08,0,0,1,2.48,1.37h-5A3.08,3.08,0,0,1,18.61,13.34Z"/><path class="cls-1" d="M8.85,7a2.42,2.42,0,0,0-2,1.47H10.8A2.42,2.42,0,0,0,8.85,7Z"/><path class="cls-1" d="M25.32,2.9a4.09,4.09,0,0,0-3.51,1.76h7A4.09,4.09,0,0,0,25.32,2.9Z"/><path d="M10.23,13.27h3.15a5.62,5.62,0,0,1,.7-1.1l-.07-3a.65.65,0,0,0-.65-.65h-.92c-.71-1.77-2-2.94-3.59-2.94S6,6.72,5.25,8.49H4.33a.65.65,0,0,0-.65.65L3.27,27.69a.65.65,0,0,0,.65.65H8.71l.72-14.26A.8.8,0,0,1,10.23,13.27ZM8.85,7a2.42,2.42,0,0,1,2,1.47H6.89A2.42,2.42,0,0,1,8.85,7Z"/><path d="M32.91,5.48a.82.82,0,0,0-.82-.82H30.23a5.18,5.18,0,0,0-4.91-3,5.18,5.18,0,0,0-4.91,3H18.56a.82.82,0,0,0-.82.82l-.09,4.72a6.93,6.93,0,0,1,.93-.07,5.48,5.48,0,0,1,5.21,3.14h3.46a.8.8,0,0,1,.8.8l.72,14.26H32.5a.82.82,0,0,0,.82-.82ZM21.82,4.66A4.09,4.09,0,0,1,25.32,2.9a4.09,4.09,0,0,1,3.5,1.76Z"/><rect class="cls-1" width="37.08" height="29.98"/></g></g></svg>