<svg xmlns="http://www.w3.org/2000/svg" viewBox="0 0 37.08 29.98"><defs><style>.cls-1{fill:none;}</style></defs><title>mobile</title><g id="レイヤー_2" data-name="レイヤー 2"><g id="レイヤー_1-2" data-name="レイヤー 1"><path d="M23.68,4.5H14.26V0H11.4V27.93a2.06,2.06,0,0,0,2,2.05H23.68a2.06,2.06,0,0,0,2-2.06v0h0V6.55a2.06,2.06,0,0,0-2-2.06h0Zm-8,18A1.52,1.52,0,1,1,17.46,21h0a1.66,1.66,0,0,1-1.65,1.5h-.13Zm1.78,3a1.72,1.72,0,0,1,0,.31A1.81,1.81,0,1,1,15.68,24h.14a1.66,1.66,0,0,1,1.65,1.49h0Zm-3.21-9v-9h8.56v9Zm7.14,6A1.52,1.52,0,1,1,23.17,21h0a1.66,1.66,0,0,1-1.65,1.5h-.13Zm1.78,3a1.79,1.79,0,0,1,0,.31A1.81,1.81,0,1,1,21.39,24h.14a1.66,1.66,0,0,1,1.65,1.49h0Z"/><rect class="cls-1" width="37.08" height="29.98"/></g></g></svg>