<svg xmlns="http://www.w3.org/2000/svg" viewBox="0 0 37.08 29.98"><defs><style>.cls-1{fill:none;}</style></defs><title>operator</title><g id="レイヤー_2" data-name="レイヤー 2"><g id="レイヤー_1-2" data-name="レイヤー 1"><path d="M34.28,3.72H19.77a1.51,1.51,0,0,0-1.51,1.51s0,.06,0,.1h0V16.54s0,.06,0,.09a1.51,1.51,0,0,0,1.51,1.51h4.9v1.6h-.8a.8.8,0,1,0,0,1.6h6.41a.8.8,0,0,0,0-1.6h-.8v-1.6h4.9a1.51,1.51,0,0,0,1.51-1.51s0-.06,0-.1h0V5.32s0-.06,0-.09a1.51,1.51,0,0,0-1.51-1.51h-.09Zm-6.41,16h-1.6v-1.6h1.6Zm4.81-4.81H21.47v-8H32.68v8Z"/><path d="M15.29,12.26a5,5,0,1,1-5-5A5,5,0,0,1,15.29,12.26Z"/><path d="M10.32,19.5c5.21,0,9.44,2,9.44,4.2s-4.23,2.36-9.44,2.36S.88,25.87.88,23.7,5.11,19.5,10.32,19.5Z"/><rect class="cls-1" width="37.08" height="29.98"/></g></g></svg>