<svg xmlns="http://www.w3.org/2000/svg" viewBox="0 0 37.08 29.98"><defs><style>.cls-1{fill:none;}</style></defs><title>order</title><g id="レイヤー_2" data-name="レイヤー 2"><g id="レイヤー_1-2" data-name="レイヤー 1"><path class="cls-1" d="M18.54,1.62a1,1,0,0,0-1,1h2A1,1,0,0,0,18.54,1.62Z"/><path d="M23.56,21.28l-1.5.24a.38.38,0,0,1-.33-.33L22,19.7a.29.29,0,0,1,.08-.23l6.2-6.2V6.2a2.11,2.11,0,0,0-2.11-2.11H24.56V3.68a1.08,1.08,0,0,0-1.07-1.07H20.37a1.83,1.83,0,0,0-3.65,0H13.6a1.08,1.08,0,0,0-1.07,1.07v.41H10.94A2.11,2.11,0,0,0,8.83,6.2V27.09a2.11,2.11,0,0,0,2.11,2.11h15.2a2.11,2.11,0,0,0,2.11-2.11V16.75L23.79,21.2A.29.29,0,0,1,23.56,21.28ZM21.76,9.36h2.36v1.73H21.76Zm0,5.22h2.36v1.73H21.76Zm-3.22-13a1,1,0,0,1,1,1h-2A1,1,0,0,1,18.54,1.62ZM20,21.54H12.84V19.81H20Zm0-5.22H12.84V14.59H20Zm0-5.22H12.84V9.36H20Z"/><rect class="cls-1" width="37.08" height="29.98"/></g></g></svg>