<svg xmlns="http://www.w3.org/2000/svg" viewBox="0 0 25.41 22.38"><title>payment</title><g id="レイヤー_2" data-name="レイヤー 2"><g id="レイヤー_1-2" data-name="レイヤー 1"><path d="M0,20.58a1.8,1.8,0,0,0,1.79,1.8H22a1.8,1.8,0,0,0,1.79-1.8v-.84H0Z"/><path d="M10.75,6.58c0-.28,0-.56,0-.83h-9A1.79,1.79,0,0,0,0,7.54V17.1H23.81V12.93a8,8,0,0,1-5,1.73A8.09,8.09,0,0,1,10.75,6.58Z"/><path d="M19.69,4.45a7.78,7.78,0,0,0-1.07,0H17.9V6.49h.81a4.19,4.19,0,0,0,1.18-.11,1,1,0,0,0,.63-.94.94.94,0,0,0-.24-.66A1.05,1.05,0,0,0,19.69,4.45Z"/><path d="M18.83,0a6.58,6.58,0,1,0,6.58,6.58A6.59,6.59,0,0,0,18.83,0Zm3,6.56a2.15,2.15,0,0,1-.63.73,2.3,2.3,0,0,1-.77.35,8.65,8.65,0,0,1-1.54.1h-1v2.78H16.41V3.16H18.8a8.11,8.11,0,0,1,1.76.11A1.88,1.88,0,0,1,21.62,4a2.25,2.25,0,0,1,.43,1.43A2.46,2.46,0,0,1,21.81,6.56Z"/></g></g></svg>