<svg xmlns="http://www.w3.org/2000/svg" viewBox="0 0 37.08 29.98"><defs><style>.cls-1{fill:none;}</style></defs><title>point</title><g id="レイヤー_2" data-name="レイヤー 2"><g id="レイヤー_1-2" data-name="レイヤー 1"><path d="M22,2.75a12.31,12.31,0,0,0-2.21.2,12.24,12.24,0,0,1,0,24.09A12.24,12.24,0,1,0,22,2.75Z"/><path d="M14.94,11.42H13.48v3.29h1.47a4.37,4.37,0,0,0,1.29-.16A1.5,1.5,0,0,0,17,14a1.58,1.58,0,0,0,.27-1,1.63,1.63,0,0,0-.42-1.16A2.79,2.79,0,0,0,14.94,11.42Z"/><path d="M26.85,15A11.85,11.85,0,1,0,15,26.84,11.85,11.85,0,0,0,26.85,15Zm-8.36.51a4.61,4.61,0,0,1-3,.85h-2v3a1.42,1.42,0,0,1-.31,1,1,1,0,0,1-.78.34,1,1,0,0,1-.79-.33,1.42,1.42,0,0,1-.3-1V11.12a1.36,1.36,0,0,1,.33-1,1.5,1.5,0,0,1,1-.31h2.8a7.35,7.35,0,0,1,1.91.19,2.84,2.84,0,0,1,1.14.61,2.74,2.74,0,0,1,.73,1A3.67,3.67,0,0,1,19.5,13,3.06,3.06,0,0,1,18.49,15.5Z"/><rect class="cls-1" width="37.08" height="29.98"/></g></g></svg>