<?xml version="1.0" encoding="utf-8"?>
<!-- Generator: Adobe Illustrator 24.0.1, SVG Export Plug-In . SVG Version: 6.00 Build 0)  -->
<svg version="1.1" id="レイヤー_1" xmlns="http://www.w3.org/2000/svg" xmlns:xlink="http://www.w3.org/1999/xlink" x="0px"
	 y="0px" viewBox="0 0 21 26" style="enable-background:new 0 0 21 26;" xml:space="preserve">
<g>
	<g>
		<rect x="4.44" y="5.03" width="2.02" height="2.01"/>
		<rect x="8.48" y="5.03" width="8.08" height="2.01"/>
		<rect x="4.44" y="9.05" width="2.02" height="2.01"/>
		<rect x="8.48" y="9.05" width="8.08" height="2.01"/>
		<rect x="4.44" y="13.07" width="2.02" height="2.01"/>
		<rect x="8.48" y="13.07" width="8.08" height="2.01"/>
	</g>
	<g id="レイヤー_2_1_">
		<g id="レイヤー_1-2">
			<path d="M21,3.02v13.94c0,1.67-1.36,3.02-3.03,3.02h-4.04L10.5,26l-3.43-6.03H3.03C1.36,19.97,0,18.62,0,16.95V3.02
				C0,1.35,1.36,0,3.03,0H18C19.66,0.02,21,1.36,21,3.02z M10.5,21.87l2.21-3.91H18c0.56,0,1.01-0.45,1.01-1.01V3.02
				c0-0.56-0.45-1.01-1.01-1.01H3.03c-0.56,0-1.01,0.45-1.01,1.01v13.94c0,0.56,0.45,1.01,1.01,1.01h5.26L10.5,21.87z"/>
		</g>
	</g>
</g>
</svg>
