<svg xmlns="http://www.w3.org/2000/svg" xmlns:xlink="http://www.w3.org/1999/xlink" viewBox="0 0 33.12 32.75"><defs><style>.cls-1{fill:none;}.cls-2{clip-path:url(#clip-path);}</style><clipPath id="clip-path"><rect id="SVGID" class="cls-1" y="0.01" width="33.16" height="32.75"/></clipPath></defs><title>position</title><g id="レイヤー_2" data-name="レイヤー 2"><g id="レイヤー_1-2" data-name="レイヤー 1"><g class="cls-2"><path d="M18.31,7.66A4.28,4.28,0,0,0,20,4.12c0-2-.41-4.12-3.47-4.12s-3.47,2.08-3.47,4.12a4.28,4.28,0,0,0,1.72,3.54,5.32,5.32,0,0,0-3.93,5,2.58,2.58,0,0,0,1.82,2.54,10.73,10.73,0,0,0,3.86.52,10.72,10.72,0,0,0,3.86-.52,2.58,2.58,0,0,0,1.82-2.54,5.32,5.32,0,0,0-3.93-5Zm0,0"/></g><path d="M7.43,23.08a4.28,4.28,0,0,0,1.72-3.54c0-2-.41-4.12-3.47-4.12s-3.47,2.08-3.47,4.12a4.28,4.28,0,0,0,1.72,3.54,5.32,5.32,0,0,0-3.93,5,2.58,2.58,0,0,0,1.82,2.54,10.72,10.72,0,0,0,3.86.52,10.72,10.72,0,0,0,3.86-.52,2.58,2.58,0,0,0,1.82-2.54,5.32,5.32,0,0,0-3.93-5Zm0,0"/><path d="M29.19,23.08a4.28,4.28,0,0,0,1.72-3.54c0-2-.41-4.12-3.47-4.12S24,17.51,24,19.54a4.28,4.28,0,0,0,1.72,3.54,5.32,5.32,0,0,0-3.93,5,2.58,2.58,0,0,0,1.82,2.54,10.72,10.72,0,0,0,3.86.52,10.73,10.73,0,0,0,3.86-.52,2.58,2.58,0,0,0,1.82-2.54,5.32,5.32,0,0,0-3.93-5Zm0,0"/><path d="M20.4,30.84a.41.41,0,0,0-.53-.23,8.94,8.94,0,0,1-3.31.52,8.93,8.93,0,0,1-3.31-.52.41.41,0,0,0-.53.23l-.3.75a.41.41,0,0,0,.23.53,10.49,10.49,0,0,0,3.91.63,10.49,10.49,0,0,0,3.91-.63.4.4,0,0,0,.23-.53Zm0,0"/><path d="M4.6,13.36l.75.32a.41.41,0,0,0,.53-.21,8.93,8.93,0,0,1,2-2.71,8.94,8.94,0,0,1,2.71-2,.41.41,0,0,0,.21-.53l-.32-.75a.41.41,0,0,0-.53-.21A10.49,10.49,0,0,0,6.7,9.61a10.49,10.49,0,0,0-2.32,3.21.41.41,0,0,0,.21.53Zm0,0"/><path d="M22.56,8.79a8.94,8.94,0,0,1,2.71,2,8.92,8.92,0,0,1,2,2.71.41.41,0,0,0,.53.21l.75-.32a.41.41,0,0,0,.21-.53,10.48,10.48,0,0,0-2.32-3.21A10.49,10.49,0,0,0,23.2,7.3a.41.41,0,0,0-.53.21l-.32.75a.41.41,0,0,0,.21.53Zm0,0"/></g></g></svg>