<svg xmlns="http://www.w3.org/2000/svg" viewBox="0 0 37.08 29.98"><defs><style>.cls-1{fill:none;}</style></defs><title>promotion</title><g id="レイヤー_2" data-name="レイヤー 2"><g id="レイヤー_1-2" data-name="レイヤー 1"><path d="M4.66,11.15A3,3,0,0,1,4.52,10L4.36,4.34,2.15,6.68a1.62,1.62,0,0,0-.43.53,1.42,1.42,0,0,0-.15.64V26.74a1.4,1.4,0,0,0,.12.56,1.85,1.85,0,0,0,1.72,1h9.51a1.74,1.74,0,0,0,1.85-1.6V21.68L5.35,12.27A2.86,2.86,0,0,1,4.66,11.15Z"/><path class="cls-1" d="M19.28,8.68l-7.77,3.39.81.81a.48.48,0,0,0,.3.15.52.52,0,0,0,.28,0l1.55-.72,2.31,2.31L16,16.12a.55.55,0,0,0,0,.29.5.5,0,0,0,.15.29l.8.8,3.39-7.77Zm-.69,2-.19.39-1.18,2.53-1.78-1.78L18,10.62l.4-.2.47-.26Q18.71,10.42,18.6,10.64Z"/><polygon class="cls-1" points="19.43 18.27 24.15 13.54 23.11 12.51 17.53 18.08 20.8 21.35 21.66 20.5 19.43 18.27"/><path class="cls-1" d="M13,10.06a2,2,0,0,0,.48-.7,1.78,1.78,0,0,0,.12-.7A2.32,2.32,0,0,0,13.47,8a6.44,6.44,0,0,0-.28-.67l-.32-.63a3.82,3.82,0,0,1-.25-.58,1.3,1.3,0,0,1-.07-.52.7.7,0,0,1,.22-.44,1,1,0,0,1,.34-.23.82.82,0,0,1,.39-.06,1.12,1.12,0,0,1,.41.13,1.73,1.73,0,0,1,.43.32,1.83,1.83,0,0,1,.35.47,2.68,2.68,0,0,1,.17.44q.06.2.09.36a.48.48,0,0,0,.11.23.35.35,0,0,0,.17.1.41.41,0,0,0,.22,0l.74-.24a2.9,2.9,0,0,0-.28-1.14,3.67,3.67,0,0,0-.76-1.06,3,3,0,0,0-.91-.64,2.49,2.49,0,0,0-.93-.21,2.17,2.17,0,0,0-1.58.63,2.34,2.34,0,0,0-.53.75,1.8,1.8,0,0,0-.14.73,2.15,2.15,0,0,0,.13.69,5.69,5.69,0,0,0,.29.66l.33.61a3.09,3.09,0,0,1,.25.57,1.25,1.25,0,0,1,.06.52.79.79,0,0,1-.25.47A1.07,1.07,0,0,1,11,9.6a1.44,1.44,0,0,1-.9-.48,2,2,0,0,1-.42-.57A2.86,2.86,0,0,1,9.54,8q-.06-.25-.09-.44a.52.52,0,0,0-.13-.29.35.35,0,0,0-.17-.1.53.53,0,0,0-.19,0l-.8.2A3.09,3.09,0,0,0,8.23,8a3.65,3.65,0,0,0,.21.68,3.93,3.93,0,0,0,.35.64,3.72,3.72,0,0,0,.47.58,3.16,3.16,0,0,0,1,.68,2.51,2.51,0,0,0,1,.22,2.3,2.3,0,0,0,1-.2A2.72,2.72,0,0,0,13,10.06Z"/><polygon class="cls-1" points="21.52 22.07 25.04 25.59 25.87 24.76 23.39 22.29 24.97 20.71 26.92 22.66 27.72 21.86 25.77 19.91 27.32 18.36 29.79 20.84 30.61 20.01 27.1 16.49 21.52 22.07"/><path d="M18,10.62l-2.53,1.17,1.78,1.78L18.41,11l.19-.39q.11-.22.26-.47l-.47.26Z"/><path d="M32.67,18.53,16.06,1.92a1.42,1.42,0,0,0-.56-.34,1.62,1.62,0,0,0-.68-.07L7.93,1.34a1.94,1.94,0,0,0-1,.43,2,2,0,0,0-.81,1.35l0,.17L6.32,10a1.62,1.62,0,0,0,.07.68,1.42,1.42,0,0,0,.34.56L23.33,27.86a1.4,1.4,0,0,0,.49.31,1.85,1.85,0,0,0,2-.48L27.46,26l5-5A1.74,1.74,0,0,0,32.67,18.53ZM7.61,3.71a.73.73,0,1,1,.73.73A.73.73,0,0,1,7.61,3.71Zm2.61,6.91a3.16,3.16,0,0,1-1-.68,3.72,3.72,0,0,1-.47-.58,3.93,3.93,0,0,1-.35-.64A3.65,3.65,0,0,1,8.23,8a3.09,3.09,0,0,1-.07-.67l.8-.2a.53.53,0,0,1,.19,0,.35.35,0,0,1,.17.1.52.52,0,0,1,.13.29q0,.19.09.44a2.86,2.86,0,0,0,.18.53,2,2,0,0,0,.42.57,1.44,1.44,0,0,0,.9.48,1.07,1.07,0,0,0,.85-.36.79.79,0,0,0,.25-.47,1.25,1.25,0,0,0-.06-.52,3.09,3.09,0,0,0-.25-.57l-.33-.61a5.69,5.69,0,0,1-.29-.66,2.15,2.15,0,0,1-.13-.69A1.8,1.8,0,0,1,11.22,5a2.34,2.34,0,0,1,.53-.75,2.17,2.17,0,0,1,1.58-.63,2.49,2.49,0,0,1,.93.21,3,3,0,0,1,.91.64,3.67,3.67,0,0,1,.76,1.06,2.9,2.9,0,0,1,.28,1.14l-.74.24a.41.41,0,0,1-.22,0,.35.35,0,0,1-.17-.1A.48.48,0,0,1,15,6.58q0-.16-.09-.36a2.68,2.68,0,0,0-.17-.44,1.83,1.83,0,0,0-.35-.47A1.73,1.73,0,0,0,13.92,5a1.12,1.12,0,0,0-.41-.13.82.82,0,0,0-.39.06,1,1,0,0,0-.34.23.7.7,0,0,0-.22.44,1.3,1.3,0,0,0,.07.52,3.82,3.82,0,0,0,.25.58l.32.63a6.44,6.44,0,0,1,.28.67,2.32,2.32,0,0,1,.14.69,1.78,1.78,0,0,1-.12.7,2,2,0,0,1-.48.7,2.72,2.72,0,0,1-.84.58,2.3,2.3,0,0,1-1,.2A2.51,2.51,0,0,1,10.22,10.62Zm5.93,6.09a.5.5,0,0,1-.15-.29.55.55,0,0,1,0-.29l.72-1.55-2.31-2.31L12.9,13a.52.52,0,0,1-.28,0,.48.48,0,0,1-.3-.15l-.81-.81,7.77-3.39,1.06,1.06L17,17.51Zm1.38,1.38,5.58-5.58,1,1-4.72,4.72,2.23,2.23-.86.86Zm12.26,2.75-2.47-2.47-1.55,1.55,1.95,1.95-.8.8L25,20.71l-1.58,1.58,2.47,2.47-.83.83-3.52-3.52,5.58-5.58L30.61,20Z"/><rect class="cls-1" width="37.08" height="29.98"/></g></g></svg>