<svg xmlns="http://www.w3.org/2000/svg" xmlns:xlink="http://www.w3.org/1999/xlink" viewBox="0 0 30.99 24.79"><defs><style>.cls-1{fill:none;}.cls-2{clip-path:url(#clip-path);}</style><clipPath id="clip-path"><rect id="SVGID" class="cls-1" y="0.06" width="30.96" height="24.74"/></clipPath></defs><title>report</title><g id="レイヤー_2" data-name="レイヤー 2"><g id="レイヤー_1-2" data-name="レイヤー 1"><g class="cls-2"><path d="M19.5,24a1.52,1.52,0,0,1-.59-1l-.2-1.29H12.29L12.08,23a1.51,1.51,0,0,1-.59,1c-.54.39-1,.73-.54.79s4.26,0,4.54,0,4.13.05,4.54,0,0-.4-.54-.79Zm0,0"/></g><rect x="7.05" y="10.38" width="2.48" height="4.65"/><rect x="12.32" y="8.21" width="2.48" height="6.82"/><rect x="17.28" y="10.38" width="2.48" height="4.65"/><rect x="21.93" y="8.21" width="2.48" height="6.82"/><g class="cls-2"><path d="M13.84,5.6l5,3.21,6.93-5-.73-1L18.81,7.31,13.9,4.16,5.22,8.63l.57,1.1Zm0,0"/><path d="M29.76,0H1.24A1.24,1.24,0,0,0,0,1.24v18a1.24,1.24,0,0,0,1.24,1.24H29.76A1.24,1.24,0,0,0,31,19.22v-18A1.24,1.24,0,0,0,29.76,0Zm-.62,16.74H1.86V1.86H29.13Zm0,0"/></g></g></g></svg>