<svg xmlns="http://www.w3.org/2000/svg" viewBox="0 0 37.08 29.98"><defs><style>.cls-1{fill:none;}</style></defs><title>sending-agency-flow</title><g id="レイヤー_2" data-name="レイヤー 2"><g id="レイヤー_1-2" data-name="レイヤー 1"><polygon points="22.92 4.81 35.48 0.62 31.29 13.19 29.2 6.91 22.92 4.81"/><path d="M16.49,19.28l9.71-6.93a3,3,0,0,0-.82-.13H7.61a3,3,0,0,0-.82.13Z"/><path d="M17.35,22.3a1.47,1.47,0,0,1-1.72,0L4.73,14.51a3,3,0,0,0-.08.66V27a3,3,0,0,0,3,3H25.37a3,3,0,0,0,3-3V15.18a2.85,2.85,0,0,0-.08-.66Z"/><rect class="cls-1" width="37.08" height="29.98"/></g></g></svg>