<svg xmlns="http://www.w3.org/2000/svg" viewBox="0 0 37.08 29.98"><defs><style>.cls-1{fill:none;}</style></defs><title>setting</title><g id="レイヤー_2" data-name="レイヤー 2"><g id="レイヤー_1-2" data-name="レイヤー 1"><path d="M29.88,15a4.79,4.79,0,0,1,2.68-4.07h0A14.9,14.9,0,0,0,31.39,8l0,.08a4.4,4.4,0,0,1-1.07.13,4.51,4.51,0,0,1-3.45-1.6h0a4.38,4.38,0,0,1-1.14-4.57v0A14.05,14.05,0,0,0,23.06,1l-.1,0a5,5,0,0,1-4.42,2.7A5,5,0,0,1,14.13,1v0a14.4,14.4,0,0,0-2.87,1.19l.07,0a4.27,4.27,0,0,1,.22,1.36,4.35,4.35,0,0,1-1.37,3.17h0A4.52,4.52,0,0,1,5.61,8.1h0A14.25,14.25,0,0,0,4.51,10.8l0,.1A4.79,4.79,0,0,1,7.19,15h0A5.31,5.31,0,0,1,4.51,19.4h0a14.77,14.77,0,0,0,1.19,2.87l0-.08A4.47,4.47,0,0,1,7,22a4.56,4.56,0,0,1,4.36,5.9v0A14.2,14.2,0,0,0,14,29l.1,0a5,5,0,0,1,8.83,0v0a14.84,14.84,0,0,0,2.87-1.2l-.08,0a4.27,4.27,0,0,1-.22-1.36,4.36,4.36,0,0,1,1.36-3.17h0a4.54,4.54,0,0,1,4.57-1.47h0a14.25,14.25,0,0,0,1.13-2.69l0-.1A4.79,4.79,0,0,1,29.89,15h0ZM18.54,21.1h0A6.11,6.11,0,1,1,24.65,15h0a6.11,6.11,0,0,1-6.11,6.11Z"/><rect class="cls-1" width="37.08" height="29.98"/></g></g></svg>