<svg xmlns="http://www.w3.org/2000/svg" viewBox="0 0 26.46 19.43"><title>shipping</title><g id="レイヤー_2" data-name="レイヤー 2"><g id="レイヤー_1-2" data-name="レイヤー 1"><path d="M21.27,15.34a2,2,0,1,1-2.05,2A2.05,2.05,0,0,1,21.27,15.34Z"/><path d="M5.93,15.34a2,2,0,1,1-2,2A2.05,2.05,0,0,1,5.93,15.34Z"/><path d="M0,2.19V15.1a2.19,2.19,0,0,0,2.19,2.19H2.9a3,3,0,0,1,6,0h9.3a3,3,0,0,1,6.05,0h.78a1.38,1.38,0,0,0,1.38-1.38V9.18L24.84,4.62a1.37,1.37,0,0,0-1.38-1.37h-5V2.19A2.19,2.19,0,0,0,16.23,0h-14A2.19,2.19,0,0,0,0,2.19Zm1.64,1A1.25,1.25,0,0,1,2.89,1.89H15.18a1.25,1.25,0,0,1,1.25,1.25v8.63A1.25,1.25,0,0,1,15.18,13H2.89a1.25,1.25,0,0,1-1.25-1.25Z"/></g></g></svg>