<svg xmlns="http://www.w3.org/2000/svg" viewBox="0 0 21.41 15.42"><title>shippingto</title><g id="レイヤー_2" data-name="レイヤー 2"><g id="レイヤー_1-2" data-name="レイヤー 1"><path d="M21.27,4.52,19.19.68A1.26,1.26,0,0,0,17.91,0H6.75A1.26,1.26,0,0,0,5.47.68L3.39,4.52A1.08,1.08,0,0,0,4.3,6.11H5.71V7.22a.48.48,0,0,1,.11.09l3.56,3.42a.74.74,0,0,1,0,1.06L6,15a1.21,1.21,0,0,0,.9.41h10.6a1.24,1.24,0,0,0,1.24-1.24V6.11h1.57A1.08,1.08,0,0,0,21.27,4.52Zm-4.42,6.36a.79.79,0,0,1-.79.8H11.69a.8.8,0,0,1-.8-.8v-4a.8.8,0,0,1,.8-.8h4.37a.79.79,0,0,1,.79.8Z"/><path d="M7.32,10.73,3.77,7.31a.74.74,0,0,0-1.26.53V9.49H1.1A1.1,1.1,0,0,0,0,10.59v1.34A1.09,1.09,0,0,0,1.1,13H2.51v1.66a.74.74,0,0,0,1.26.53l3.55-3.42A.74.74,0,0,0,7.32,10.73Z"/></g></g></svg>