<svg xmlns="http://www.w3.org/2000/svg" viewBox="0 0 37.08 29.98"><defs><style>.cls-1{fill:none;}</style></defs><title>shop</title><g id="レイヤー_2" data-name="レイヤー 2"><g id="レイヤー_1-2" data-name="レイヤー 1"><path d="M10.79,10,12.23.5H4.77L1.66,8.65a2.78,2.78,0,0,0-.15.91h0c0,2,2.08,3.62,4.66,3.62l.38,0A4.42,4.42,0,0,0,10.79,10v0Zm7,3.17c2.57,0,4.66-1.63,4.66-3.62a1.76,1.76,0,0,0,0-.22L21.55.5H14.09l-.92,8.83v.23c0,2,2.08,3.62,4.65,3.62Zm9.06,1.89v7.16H8.76V15.09a7.44,7.44,0,0,1-2.56.44h0a7.74,7.74,0,0,1-1.08-.09h0v11.5a2.54,2.54,0,0,0,2.53,2.54H28a2.55,2.55,0,0,0,2.54-2.54V15.44a7.75,7.75,0,0,1-1,.09h0a7.48,7.48,0,0,1-2.63-.47ZM34,8.65,30.87.5H23.41L24.84,10a4.42,4.42,0,0,0,4.24,3.2l.4,0h0c2.57,0,4.66-1.63,4.66-3.62A2.89,2.89,0,0,0,34,8.63v0Z"/><rect class="cls-1" width="37.08" height="29.98"/></g></g></svg>