<svg xmlns="http://www.w3.org/2000/svg" viewBox="0 0 37.08 29.98"><defs><style>.cls-1{fill:none;}</style></defs><title>stock</title><g id="レイヤー_2" data-name="レイヤー 2"><g id="レイヤー_1-2" data-name="レイヤー 1"><path d="M17,16H2.5a.52.52,0,0,0-.52.52H2v2.08H17.55V16.54A.52.52,0,0,0,17,16h0ZM2.84,28.66a1.21,1.21,0,0,0,1.21,1.21H15.47a1.22,1.22,0,0,0,1.21-1.21V19.49H2.84v9.17Zm4.33-7.44h5.19v1.73H7.17V21.22Z"/><path d="M25.82,0H11.28a.52.52,0,0,0-.52.52h0V2.6H26.34V.52A.52.52,0,0,0,25.82,0h0ZM11.63,12.63a1.21,1.21,0,0,0,1.21,1.21H24.26a1.22,1.22,0,0,0,1.21-1.21V3.46H11.63v9.17ZM16,5.19h5.19V6.92H16V5.19Z"/><path d="M34.6,16H20.07a.52.52,0,0,0-.52.52h0v2.08H35.12V16.54A.52.52,0,0,0,34.6,16h0ZM20.41,28.66a1.21,1.21,0,0,0,1.21,1.21H33a1.22,1.22,0,0,0,1.21-1.21V19.49H20.41v9.17Zm4.33-7.44h5.19v1.73H24.74V21.22Z"/><rect class="cls-1" width="37.08" height="29.98"/></g></g></svg>