<svg xmlns="http://www.w3.org/2000/svg" xmlns:xlink="http://www.w3.org/1999/xlink" viewBox="0 0 37.08 29.98"><defs><style>.cls-1{fill:none;}.cls-2{clip-path:url(#clip-path);}</style><clipPath id="clip-path"><rect id="SVGID" class="cls-1" x="3.14" y="1.32" width="31.14" height="27.63"/></clipPath></defs><title>targetlist</title><g id="レイヤー_2" data-name="レイヤー 2"><g id="レイヤー_1-2" data-name="レイヤー 1"><g class="cls-2"><path d="M33.8,10.26a1.57,1.57,0,0,0-1.16-.51H4.71a1.57,1.57,0,0,0-1.56,1.71l1.49,16A1.57,1.57,0,0,0,6.2,28.89H31.15a1.57,1.57,0,0,0,1.56-1.42l1.49-16a1.56,1.56,0,0,0-.4-1.2ZM23.91,25.61H13.45A1.57,1.57,0,0,1,11.88,24a3.87,3.87,0,0,1,3.86-3.86h1.13a3.75,3.75,0,1,1,3.61,0h1.13a3.87,3.87,0,0,1,3.86,3.73s0,.09,0,.13a1.57,1.57,0,0,1-1.57,1.57ZM31.19,6.83A1.18,1.18,0,0,1,30,8H7.34a1.18,1.18,0,1,1,0-2.35H30a1.18,1.18,0,0,1,1.18,1.18ZM28.09,2.5a1.18,1.18,0,0,1-1.18,1.18H10.44a1.18,1.18,0,0,1,0-2.35H26.91A1.18,1.18,0,0,1,28.09,2.5Zm0,0"/></g><rect class="cls-1" width="37.08" height="29.98"/></g></g></svg>