<svg xmlns="http://www.w3.org/2000/svg" viewBox="0 0 37.08 29.98"><defs><style>.cls-1{fill:none;}</style></defs><title>user-ranking</title><g id="レイヤー_2" data-name="レイヤー 2"><g id="レイヤー_1-2" data-name="レイヤー 1"><rect x="3.64" y="18.11" width="8.84" height="11.87"/><rect x="24.7" y="15.06" width="8.84" height="14.93"/><rect x="14.16" y="10.63" width="8.85" height="19.35"/><path d="M29.19,6.06,30.44,8.6,33.24,9l-2,2,.48,2.79-2.51-1.32-2.51,1.32L27.16,11l-2-2,2.8-.41Zm0,0"/><path d="M18.64,1.65,19.89,4.2l2.81.41-2,2,.48,2.79L18.64,8.06,16.13,9.37l.48-2.79-2-2,2.81-.41Zm0,0"/><path d="M7.9,9l1.25,2.54L12,12l-2,2,.48,2.79L7.9,15.42,5.4,16.74l.48-2.79-2-2,2.8-.41Zm0,0"/><rect class="cls-1" width="37.08" height="29.98"/></g></g></svg>