<?xml version="1.0" encoding="UTF-8"?>
<svg id="_フォーマット" data-name="フォーマット" xmlns="http://www.w3.org/2000/svg" xmlns:xlink="http://www.w3.org/1999/xlink" viewBox="0 0 100 50">
  <defs>
    <style>
      .cls-1 {
        fill: none;
      }

      .cls-2 {
        clip-path: url(#clippath);
      }

      .cls-3 {
        fill: #f5f5f5;
      }

      .cls-4 {
        fill: #fff;
      }

      .cls-5 {
        fill: #333;
      }

      .cls-6 {
        clip-path: url(#clippath-1);
      }
    </style>
    <clipPath id="clippath">
      <rect class="cls-1" x="-915.19" y="-1805.45" width="1360" height="800"/>
    </clipPath>
    <clipPath id="clippath-1">
      <rect class="cls-1" x="-915.19" y="-905.45" width="1360" height="800"/>
    </clipPath>
  </defs>
  <g class="cls-2">
    <polygon class="cls-3" points="-1463.33 -870.64 445.73 -1334.08 -668.25 284.05 -1463.33 -870.64"/>
  </g>
  <g class="cls-6">
    <polygon class="cls-3" points="-1463.33 29.36 445.73 -434.08 -668.25 1184.05 -1463.33 29.36"/>
  </g>
  <g>
    <rect class="cls-5" x="9" y="12.5" width="82" height="25" rx="1.43" ry="1.43"/>
    <g>
      <path class="cls-4" d="m20.38,30.41s-.05-.08-.05-.13v-10.67c0-.05.02-.1.05-.13.04-.04.08-.06.13-.06h2.7c.91,0,1.63.27,2.17.82.54.55.81,1.28.81,2.19v5.02c0,.92-.27,1.65-.81,2.19-.54.55-1.27.82-2.17.82h-2.7c-.05,0-.1-.02-.13-.06Zm1.86-1.52l.95-.02c.35,0,.63-.14.84-.42s.33-.65.34-1.11v-4.8c0-.47-.11-.85-.32-1.13s-.51-.42-.88-.42h-.93c-.05,0-.08.03-.08.08v7.74c0,.05.03.08.08.08Z"/>
      <path class="cls-4" d="m33.8,20.94s-.08.06-.13.06h-3.41c-.05,0-.08.03-.08.08v2.98c0,.05.03.08.08.08h2.02c.05,0,.1.02.13.06.04.04.06.08.06.13v1.22c0,.05-.02.1-.06.13-.04.04-.08.06-.13.06h-2.02c-.05,0-.08.03-.08.08v3c0,.05.03.08.08.08h3.41c.05,0,.1.02.13.06.04.04.06.08.06.13v1.2c0,.05-.02.1-.06.13-.04.04-.08.06-.13.06h-5.13c-.05,0-.1-.02-.13-.06-.04-.04-.05-.08-.05-.13v-10.67c0-.05.02-.1.05-.13.04-.04.08-.06.13-.06h5.13c.05,0,.1.02.13.06s.06.08.06.13v1.2c0,.05-.02.1-.06.13Z"/>
      <path class="cls-4" d="m41.04,19.41h1.45c.05,0,.1.02.13.06.04.04.06.08.06.13v10.67c0,.05-.02.1-.06.13-.04.04-.08.06-.13.06h-1.45c-.05,0-.1-.02-.13-.06-.04-.04-.05-.08-.05-.13v-7.45s-.01-.06-.03-.06-.04.02-.06.05l-1.37,2.49c-.05.08-.1.13-.14.13s-.09-.04-.14-.13l-1.37-2.49s-.04-.05-.06-.05-.03.02-.03.06v7.45c0,.05-.02.1-.06.13-.04.04-.08.06-.13.06h-1.45c-.05,0-.1-.02-.13-.06-.04-.04-.06-.08-.06-.13v-10.67c0-.05.02-.1.06-.13s.08-.06.13-.06h1.45c.11,0,.18.04.24.13l1.53,2.7s.06.04.09,0l1.5-2.7c.05-.08.13-.13.24-.13Z"/>
      <path class="cls-4" d="m45.61,29.77c-.55-.55-.83-1.27-.83-2.18v-5.31c0-.91.28-1.63.83-2.18.55-.55,1.28-.82,2.19-.82s1.64.27,2.19.82c.56.55.84,1.27.84,2.18v5.31c0,.91-.28,1.63-.84,2.18-.56.55-1.29.82-2.19.82s-1.63-.27-2.19-.82Zm3.05-1.13c.22-.25.33-.57.33-.97v-5.46c0-.4-.11-.72-.33-.97-.22-.25-.51-.37-.87-.37s-.64.12-.86.37c-.22.25-.32.57-.32.97v5.46c0,.4.11.72.32.97.22.25.5.37.86.37s.65-.12.87-.37Z"/>
      <path class="cls-4" d="m52.49,26.45s-.06-.08-.06-.13v-1.2c0-.05.02-.1.06-.13.04-.04.08-.06.13-.06h3.9c.05,0,.1.02.13.06.04.04.06.08.06.13v1.2c0,.05-.02.1-.06.13-.04.04-.08.05-.13.05h-3.9c-.05,0-.1-.02-.13-.05Z"/>
      <path class="cls-4" d="m59.25,29.78c-.54-.54-.81-1.26-.81-2.16v-5.38c0-.91.27-1.62.81-2.16.54-.53,1.26-.8,2.16-.8s1.63.27,2.18.8c.55.53.82,1.25.82,2.16v.19c0,.05-.02.1-.05.14-.04.04-.08.06-.13.06l-1.47.06c-.13,0-.19-.06-.19-.19v-.39c0-.37-.11-.67-.32-.9-.21-.23-.49-.35-.84-.35s-.61.12-.82.35c-.21.23-.32.53-.32.9v5.65c0,.37.11.67.32.9.21.23.48.35.82.35s.63-.12.84-.35c.21-.23.32-.53.32-.9v-.39c0-.05.02-.1.05-.13.04-.04.08-.06.13-.06l1.47.06c.05,0,.1.02.13.06.04.04.05.08.05.13v.19c0,.89-.27,1.61-.82,2.16-.55.54-1.27.81-2.18.81s-1.61-.27-2.16-.81Z"/>
      <path class="cls-4" d="m66.96,29.8c-.54-.53-.8-1.22-.8-2.07v-.41c0-.05.02-.1.05-.13.04-.04.08-.05.13-.05h1.44c.05,0,.1.02.13.05.04.04.05.08.05.13v.32c0,.41.1.74.31.99.2.25.47.38.8.38s.59-.12.81-.36c.21-.24.32-.55.32-.94,0-.27-.06-.51-.17-.71-.12-.2-.28-.39-.49-.57s-.55-.44-1.01-.77c-.53-.38-.95-.72-1.27-1.01-.32-.29-.59-.65-.8-1.07-.22-.41-.32-.9-.32-1.44,0-.87.26-1.57.79-2.08.53-.52,1.22-.77,2.08-.77s1.58.27,2.12.81c.54.54.8,1.26.8,2.16v.38c0,.05-.02.1-.05.13-.04.04-.08.06-.13.06h-1.42c-.05,0-.1-.02-.13-.06-.04-.04-.06-.08-.06-.13v-.41c0-.41-.1-.74-.31-.99-.2-.25-.48-.37-.81-.37-.32,0-.57.11-.77.34-.2.23-.3.54-.3.94,0,.38.11.7.32.96.22.26.64.63,1.27,1.09.64.47,1.13.86,1.45,1.16.33.3.58.63.76.99.18.36.27.78.27,1.28,0,.89-.27,1.61-.81,2.16-.54.54-1.24.81-2.12.81s-1.58-.26-2.12-.79Z"/>
      <path class="cls-4" d="m74.58,29.78c-.54-.54-.81-1.26-.81-2.16v-5.38c0-.91.27-1.62.81-2.16.54-.53,1.26-.8,2.16-.8s1.63.27,2.18.8c.55.53.82,1.25.82,2.16v.19c0,.05-.02.1-.05.14-.04.04-.08.06-.13.06l-1.47.06c-.13,0-.19-.06-.19-.19v-.39c0-.37-.11-.67-.32-.9-.21-.23-.49-.35-.84-.35s-.61.12-.82.35c-.21.23-.32.53-.32.9v5.65c0,.37.11.67.32.9.21.23.48.35.82.35s.63-.12.84-.35c.21-.23.32-.53.32-.9v-.39c0-.05.02-.1.05-.13.04-.04.08-.06.13-.06l1.47.06c.05,0,.1.02.13.06.04.04.05.08.05.13v.19c0,.89-.27,1.61-.82,2.16-.55.54-1.27.81-2.18.81s-1.61-.27-2.16-.81Z"/>
    </g>
  </g>
</svg>