<?xml version="1.0" encoding="utf-8"?>
<!-- Generator: Adobe Illustrator 27.3.1, SVG Export Plug-In . SVG Version: 6.00 Build 0)  -->
<svg version="1.1" id="_フォーマット" xmlns="http://www.w3.org/2000/svg" xmlns:xlink="http://www.w3.org/1999/xlink"
	 x="0px" y="0px" viewBox="0 0 300 65" style="enable-background:new 0 0 300 65;" xml:space="preserve">
<style type="text/css">
	.st0{clip-path:url(#SVGID_00000096772881341084492880000008073318121148596144_);}
	.st1{fill:#F5F5F5;}
	.st2{fill:#E26F1B;}
</style>
<g>
	<defs>
		<rect id="SVGID_1_" x="-123" y="-1800.2" width="1360" height="800"/>
	</defs>
	<clipPath id="SVGID_00000165916513263439994400000013552160757202610306_">
		<use xlink:href="#SVGID_1_"  style="overflow:visible;"/>
	</clipPath>
	<g style="clip-path:url(#SVGID_00000165916513263439994400000013552160757202610306_);">
		<polygon class="st1" points="-671.2,-865.4 1237.9,-1328.9 123.9,289.2 		"/>
	</g>
</g>
<path class="st2" d="M122.4,26.2c-1.7,0-3.1,0.5-4.2,1.4c-1.1,0.9-1.7,2.2-1.8,3.7c0,0.3,0.1,0.4,0.4,0.4h3.3c0.3,0,0.4-0.1,0.4-0.4
	c0.1-0.5,0.3-0.9,0.6-1.2s0.7-0.5,1.2-0.5c0.6,0,1.1,0.2,1.5,0.7s0.6,1.1,0.6,2v0.9c0,0.1-0.1,0.2-0.2,0.2h-1.8
	c-2.1,0-3.7,0.4-4.9,1.3c-1.2,0.9-1.8,2.3-1.8,4.4s0.5,3.3,1.5,4c1,0.7,2.1,1.1,3.4,1.1c1.5,0,2.7-0.5,3.5-1.4
	c0.1-0.1,0.1-0.1,0.1-0.1s0.1,0.1,0.1,0.1v0.7c0,0.1,0,0.2,0.1,0.3s0.2,0.1,0.3,0.1h3.1c0.1,0,0.2,0,0.3-0.1
	c0.1-0.1,0.1-0.2,0.1-0.3V31.9c0-1.7-0.6-3.1-1.7-4.1S124.2,26.2,122.4,26.2L122.4,26.2z M124.5,38.5c0,0.8-0.3,1.4-0.8,1.8
	c-0.5,0.4-1.1,0.7-1.8,0.7c-0.6,0-1-0.2-1.4-0.5c-0.4-0.3-0.6-0.9-0.6-1.6c0-0.8,0.2-1.4,0.7-1.8c0.5-0.4,1.1-0.6,1.9-0.6h1.8
	c0.1,0,0.2,0.1,0.2,0.2C124.5,36.6,124.5,38.5,124.5,38.5z M73.1,20H62c-0.1,0-0.2,0-0.3,0.1s-0.1,0.2-0.1,0.3v23.1
	c0,0.1,0,0.2,0.1,0.3c0.1,0.1,0.2,0.1,0.3,0.1h11.1c0.1,0,0.2,0,0.3-0.1c0.1-0.1,0.1-0.2,0.1-0.3V41c0-0.1,0-0.2-0.1-0.3
	s-0.2-0.1-0.3-0.1h-7.4c-0.1,0-0.2-0.1-0.2-0.2v-6.5c0-0.1,0.1-0.2,0.2-0.2h4.4c0.1,0,0.2,0,0.3-0.1c0.1-0.1,0.1-0.2,0.1-0.3v-2.6
	c0-0.1,0-0.2-0.1-0.3c-0.1-0.1-0.2-0.1-0.3-0.1h-4.4c-0.1,0-0.2-0.1-0.2-0.2v-6.5c0-0.1,0.1-0.2,0.2-0.2h7.4c0.1,0,0.2,0,0.3-0.1
	s0.1-0.2,0.1-0.3v-2.6c0-0.1,0-0.2-0.1-0.3C73.3,20.1,73.2,20,73.1,20L73.1,20z M82.5,19.8c-1.9,0-3.5,0.6-4.7,1.7
	c-1.2,1.1-1.8,2.7-1.8,4.7v11.7c0,1.9,0.6,3.5,1.8,4.7c1.2,1.2,2.7,1.8,4.7,1.8s3.5-0.6,4.7-1.8s1.8-2.7,1.8-4.7v-0.4
	c0-0.1,0-0.2-0.1-0.3S88.7,37,88.6,37l-3.2-0.1c-0.1,0-0.2,0-0.3,0.1c-0.1,0.1-0.1,0.2-0.1,0.3v0.9c0,0.8-0.2,1.5-0.7,2
	c-0.5,0.5-1.1,0.8-1.8,0.8s-1.3-0.2-1.8-0.8s-0.7-1.2-0.7-2V25.9c0-0.8,0.2-1.5,0.7-2c0.5-0.5,1.1-0.8,1.8-0.8s1.4,0.2,1.8,0.8
	c0.5,0.5,0.7,1.1,0.7,2v0.9c0,0.3,0.1,0.4,0.4,0.4l3.2-0.1c0.1,0,0.2,0,0.3-0.1s0.1-0.2,0.1-0.3v-0.4c0-2-0.6-3.5-1.8-4.7
	S84.5,19.8,82.5,19.8z M137.2,26.2c-1.9,0-3.4,0.5-4.4,1.5c-1.1,1-1.6,2.4-1.6,4v6.9c0,1.7,0.5,3.1,1.6,4.1s2.6,1.5,4.4,1.5
	s3.4-0.5,4.4-1.5c1.1-1,1.6-2.2,1.6-3.8v-0.6c0-0.1,0-0.2-0.1-0.3S143,38,142.9,38l-3.1,0c-0.1,0-0.2,0-0.3,0.1
	c-0.1,0.1-0.1,0.2-0.1,0.3v0.3c0,0.6-0.2,1.1-0.6,1.5c-0.4,0.4-0.9,0.6-1.5,0.6s-1.1-0.2-1.5-0.7c-0.4-0.5-0.6-1-0.6-1.7v-6.3
	c0-0.7,0.2-1.3,0.6-1.7c0.4-0.5,0.9-0.7,1.5-0.7s1.1,0.2,1.5,0.6c0.4,0.4,0.6,0.9,0.6,1.5v0.3c0,0.3,0.1,0.4,0.4,0.4l3.1-0.1
	c0.1,0,0.2,0,0.3-0.1c0.1-0.1,0.1-0.2,0.1-0.3v-0.5c0-1.5-0.6-2.8-1.6-3.8S139.1,26.2,137.2,26.2L137.2,26.2z M110.5,31.7
	c-0.1-0.1-0.1-0.1,0.1-0.2c1.7-1,2.5-2.7,2.5-5c0-2.1-0.6-3.7-1.8-4.8c-1.2-1.1-2.9-1.6-5.1-1.6h-5.4c-0.1,0-0.2,0-0.3,0.1
	s-0.1,0.2-0.1,0.3v23.1c0,0.1,0,0.2,0.1,0.3s0.2,0.1,0.3,0.1h6c2,0,3.6-0.6,4.8-1.7c1.2-1.1,1.8-2.8,1.8-4.9c0-1.3-0.2-2.5-0.8-3.4
	S111.4,32.3,110.5,31.7L110.5,31.7z M104.3,23.6c0-0.1,0.1-0.2,0.2-0.2h1.7c0.9,0,1.7,0.3,2.2,0.9c0.5,0.6,0.8,1.4,0.8,2.5
	s-0.3,1.9-0.8,2.4c-0.5,0.6-1.2,0.9-2.2,0.9h-1.7c-0.1,0-0.2-0.1-0.2-0.2V23.6L104.3,23.6z M108.6,39.6c-0.5,0.6-1.2,1-2.2,1h-2
	c-0.1,0-0.2-0.1-0.2-0.2v-7.1c0-0.1,0.1-0.2,0.2-0.2h2c0.9,0,1.6,0.3,2.2,1c0.5,0.7,0.8,1.6,0.8,2.8S109.2,38.9,108.6,39.6
	L108.6,39.6z M206.6,19.3c-0.7,0-1.3,0.2-1.7,0.7c-0.4,0.5-0.7,1-0.7,1.7s0.2,1.3,0.7,1.7c0.4,0.5,1,0.7,1.7,0.7s1.3-0.2,1.7-0.7
	c0.5-0.5,0.7-1,0.7-1.7s-0.2-1.3-0.7-1.7C207.9,19.5,207.3,19.3,206.6,19.3z M217.7,26.2c-1.9,0-3.4,0.5-4.4,1.5
	c-1.1,1-1.6,2.4-1.6,4v6.9c0,1.7,0.5,3.1,1.6,4.1s2.6,1.5,4.4,1.5s3.4-0.5,4.4-1.5c1.1-1,1.6-2.2,1.6-3.8v-0.6c0-0.1,0-0.2-0.1-0.3
	s-0.2-0.1-0.3-0.1l-3.1,0c-0.1,0-0.2,0-0.3,0.1c-0.1,0.1-0.1,0.2-0.1,0.3v0.3c0,0.6-0.2,1.1-0.6,1.5c-0.4,0.4-0.9,0.6-1.5,0.6
	s-1.1-0.2-1.5-0.7c-0.4-0.5-0.6-1-0.6-1.7v-6.3c0-0.7,0.2-1.3,0.6-1.7c0.4-0.5,0.9-0.7,1.5-0.7s1.1,0.2,1.5,0.6
	c0.4,0.4,0.6,0.9,0.6,1.5v0.3c0,0.3,0.1,0.4,0.4,0.4l3.1-0.1c0.1,0,0.2,0,0.3-0.1c0.1-0.1,0.1-0.2,0.1-0.3v-0.5
	c0-1.5-0.6-2.8-1.6-3.8S219.5,26.2,217.7,26.2L217.7,26.2z M154.4,32.6c0-0.1,0-0.2,0-0.2l3.6-5.4c0.1-0.1,0.1-0.3,0.1-0.4
	c-0.1-0.1-0.1-0.1-0.3-0.1h-3.3c-0.2,0-0.4,0.1-0.5,0.3l-3.7,5.9c-0.1,0.1-0.1,0.1-0.1,0.1s-0.1,0-0.1-0.1V20.4c0-0.1,0-0.2-0.1-0.3
	c-0.1-0.1-0.2-0.1-0.3-0.1h-3.1c-0.1,0-0.2,0-0.3,0.1c-0.1,0.1-0.1,0.2-0.1,0.3v23.1c0,0.1,0,0.2,0.1,0.3s0.2,0.1,0.3,0.1h3.1
	c0.1,0,0.2,0,0.3-0.1c0.1-0.1,0.1-0.2,0.1-0.3v-5.1c0,0,0-0.1,0.1-0.2l1.6-2.4c0-0.1,0.1-0.1,0.1-0.1c0.1,0,0.1,0,0.1,0.1l2.5,7.7
	c0.1,0.2,0.2,0.3,0.4,0.3h3.2c0.2,0,0.4-0.1,0.4-0.3c0-0.1,0-0.1,0-0.2L154.4,32.6L154.4,32.6z M230.5,36.7h7.6c0.1,0,0.2,0,0.3-0.1
	c0.1-0.1,0.1-0.2,0.1-0.3v-4.5c0-1.7-0.5-3-1.6-4c-1.1-1-2.6-1.5-4.4-1.5s-3.4,0.5-4.4,1.5c-1.1,1-1.6,2.4-1.6,4v6.9
	c0,1.7,0.5,3.1,1.6,4c1.1,1,2.6,1.5,4.4,1.5s3.2-0.4,4.2-1.3c1-0.9,1.6-2.1,1.7-3.7c0-0.1,0-0.2-0.1-0.3c-0.1-0.1-0.2-0.1-0.3-0.1
	l-3-0.1c-0.2,0-0.4,0.1-0.4,0.3c-0.1,0.5-0.4,1-0.7,1.3c-0.4,0.3-0.8,0.5-1.4,0.5c-0.6,0-1.1-0.2-1.5-0.7c-0.4-0.5-0.6-1-0.6-1.7
	v-1.5C230.3,36.8,230.4,36.7,230.5,36.7L230.5,36.7z M230.3,32.1c0-0.7,0.2-1.3,0.6-1.7c0.4-0.5,0.9-0.7,1.5-0.7s1.1,0.2,1.5,0.7
	c0.4,0.4,0.6,1,0.6,1.8v1.5c0,0.1-0.1,0.2-0.2,0.2h-3.9c-0.1,0-0.2-0.1-0.2-0.2V32.1L230.3,32.1z M175.5,19.8c-2,0-3.5,0.6-4.7,1.8
	c-1.2,1.2-1.8,2.8-1.8,4.7v11.5c0,2,0.6,3.5,1.8,4.7c1.2,1.2,2.8,1.8,4.7,1.8s3.6-0.6,4.8-1.8c1.2-1.2,1.8-2.8,1.8-4.7V26.3
	c0-2-0.6-3.5-1.8-4.7C179,20.4,177.4,19.8,175.5,19.8z M178.1,37.9c0,0.9-0.2,1.6-0.7,2.1c-0.5,0.5-1.1,0.8-1.9,0.8
	s-1.4-0.3-1.9-0.8c-0.5-0.5-0.7-1.2-0.7-2.1V26.1c0-0.9,0.2-1.6,0.7-2.1c0.5-0.5,1.1-0.8,1.9-0.8s1.4,0.3,1.9,0.8
	c0.5,0.5,0.7,1.2,0.7,2.1V37.9z M201.6,26.5h-2.1c-0.1,0-0.2-0.1-0.2-0.2v-1c0-0.9,0.1-1.6,0.4-2c0.3-0.5,0.8-0.7,1.5-0.7h0.1
	c0.1,0,0.2,0,0.3-0.1c0.1-0.1,0.1-0.2,0.1-0.3v-1.9c0-0.1,0-0.2-0.1-0.3c-0.1-0.1-0.2-0.1-0.3-0.1h-0.1c-2-0.1-3.5,0.3-4.5,1.1
	c-1,0.8-1.4,2.1-1.4,4.1v1.3c0,0.1-0.1,0.2-0.2,0.2h-4.7c-0.1,0-0.2-0.1-0.2-0.2v-1c0-0.9,0.1-1.6,0.4-2c0.3-0.5,0.8-0.7,1.5-0.7
	h0.1c0.1,0,0.2,0,0.3-0.1c0.1-0.1,0.1-0.2,0.1-0.3v-1.9c0-0.1,0-0.2-0.1-0.3c-0.1-0.1-0.2-0.1-0.3-0.1h-0.1c-2-0.1-3.5,0.3-4.5,1.1
	c-0.9,0.8-1.4,2.1-1.4,4.1v1.3c0,0.1-0.1,0.2-0.2,0.2h-1.1c-0.1,0-0.2,0-0.3,0.1c-0.1,0.1-0.1,0.2-0.1,0.3v2c0,0.1,0,0.2,0.1,0.3
	c0.1,0.1,0.2,0.1,0.3,0.1h1.1c0.1,0,0.2,0.1,0.2,0.2v14.1c0,0.1,0,0.2,0.1,0.3s0.2,0.1,0.3,0.1h3.1c0.1,0,0.2,0,0.3-0.1
	c0.1-0.1,0.1-0.2,0.1-0.3V29.5c0-0.1,0.1-0.2,0.2-0.2h4.7c0.1,0,0.2,0.1,0.2,0.2v14.1c0,0.1,0,0.2,0.1,0.3s0.2,0.1,0.3,0.1h3.1
	c0.1,0,0.2,0,0.3-0.1c0.1-0.1,0.1-0.2,0.1-0.3V29.5c0-0.1,0.1-0.2,0.2-0.2h2.1c0.1,0,0.2,0,0.3-0.1c0.1-0.1,0.1-0.2,0.1-0.3v-2
	c0-0.1,0-0.2-0.1-0.3C201.8,26.6,201.7,26.5,201.6,26.5L201.6,26.5z M208.2,26.5h-3.1c-0.1,0-0.2,0-0.3,0.1
	c-0.1,0.1-0.1,0.2-0.1,0.3v16.7c0,0.1,0,0.2,0.1,0.3s0.2,0.1,0.3,0.1h3.1c0.1,0,0.2,0,0.3-0.1c0.1-0.1,0.1-0.2,0.1-0.3V26.9
	c0-0.1,0-0.2-0.1-0.3C208.4,26.6,208.3,26.5,208.2,26.5z"/>
</svg>
