<svg xmlns="http://www.w3.org/2000/svg" viewBox="0 0 260.54 28.5"><defs><style>.cls-1{fill:#fff;}.cls-2{fill:#999;}</style></defs><title>logo_w2MarketingPlanner</title><g id="レイヤー_2" data-name="レイヤー 2"><g id="レイヤー_1-2" data-name="レイヤー 1"><path class="cls-1" d="M68.57,20.79c1.3-1.7,4.6-6.18,5.92-8.19a3.28,3.28,0,0,0,.58-1.7,1.74,1.74,0,0,0-2-1.61,3.19,3.19,0,0,0-2.17,1.12.43.43,0,0,1-.63,0L69,9a.42.42,0,0,1,0-.58,6.42,6.42,0,0,1,4.47-2.19c3.19,0,5.07,2,5.07,4.51a5.65,5.65,0,0,1-.87,2.9C76.88,14.94,75,17.33,74,18.8h3.93a.44.44,0,0,1,.42.42v2a.44.44,0,0,1-.42.42H69a.42.42,0,0,1-.42-.42Z"/><path class="cls-1" d="M48.88,7.84a.35.35,0,0,1,.36-.48H51.6a.41.41,0,0,1,.36.28l1.73,6.83h.08l3.12-7.09a.38.38,0,0,1,.34-.22h.36a.34.34,0,0,1,.34.22l3.12,7.09h.08l1.73-6.83a.41.41,0,0,1,.36-.28h2.36a.35.35,0,0,1,.36.48L62.15,21.37a.39.39,0,0,1-.36.28h-.32a.41.41,0,0,1-.34-.22L57.44,13.2h-.06l-3.67,8.24a.41.41,0,0,1-.34.22H53a.39.39,0,0,1-.36-.28Z"/><path class="cls-1" d="M97.16,14.95q0-.16-.12-.87t-.13-1a6.77,6.77,0,0,1-.24.93,7.89,7.89,0,0,1-.38.95L92.73,22.2l-3.55-7.38q-.22-.45-.38-.88c-.11-.28-.2-.57-.28-.84a8.53,8.53,0,0,1-.07.89,9.73,9.73,0,0,1-.18,1L86.8,21.65h-2L88,7.5l4,8.57c.06.14.16.36.28.68l.46,1.17a14.75,14.75,0,0,1,.61-1.48l.17-.37L97.43,7.5l3.28,14.16H98.66Z"/><path class="cls-1" d="M111.87,21.65h-2V20.51A3.34,3.34,0,0,1,107,22,3.63,3.63,0,0,1,104,20.74a5.26,5.26,0,0,1-1.07-3.49,5.08,5.08,0,0,1,1.09-3.4,3.87,3.87,0,0,1,4.7-.84,2.64,2.64,0,0,1,1.12,1.29V12.86h2Zm-2-4.43a3.22,3.22,0,0,0-.64-2.12,2.19,2.19,0,0,0-1.78-.76,2.21,2.21,0,0,0-1.8.78,3.3,3.3,0,0,0-.65,2.17,3.3,3.3,0,0,0,.63,2.16,2.38,2.38,0,0,0,3.55-.06A3.3,3.3,0,0,0,109.92,17.23Z"/><path class="cls-1" d="M117.43,14.26a2.85,2.85,0,0,1,.86-1.29,2.08,2.08,0,0,1,1.32-.42,3.48,3.48,0,0,1,.84.1,4.1,4.1,0,0,1,.81.3l-.72,1.71a1.84,1.84,0,0,0-.56-.27,2.4,2.4,0,0,0-.67-.09,1.51,1.51,0,0,0-1.44.8,6,6,0,0,0-.44,2.7v3.86h-2V12.84h2Z"/><path class="cls-1" d="M123.5,21.65V7.27h2v9.23l3.68-3.65h2.49l-4,3.88,4.37,4.92h-2.6l-4-4.54v4.54Z"/><path class="cls-1" d="M142.7,17.55h-7a2.94,2.94,0,0,0,.73,1.92,2.31,2.31,0,0,0,1.75.69,3,3,0,0,0,1.62-.41,3.37,3.37,0,0,0,1.13-1.32l1.7.95a5.15,5.15,0,0,1-1.84,2,5,5,0,0,1-2.57.65,4.48,4.48,0,0,1-3.37-1.29,4.73,4.73,0,0,1-1.25-3.44,4.68,4.68,0,0,1,1.29-3.4,5,5,0,0,1,6.64-.12,4.67,4.67,0,0,1,1.19,3.41Zm-2.09-1.35a2.13,2.13,0,0,0-.72-1.44,2.52,2.52,0,0,0-1.65-.5,2.48,2.48,0,0,0-1.6.48,2.59,2.59,0,0,0-.84,1.46Z"/><path class="cls-1" d="M146.18,21.65v-7h-1.54V12.86h1.54V9.53h2v3.33h1.54v1.76H148.2v7Z"/><path class="cls-1" d="M152.42,9.06a1.2,1.2,0,0,1,.38-.88,1.23,1.23,0,0,1,.9-.37,1.22,1.22,0,0,1,1.25,1.25,1.24,1.24,0,0,1-.36.9,1.2,1.2,0,0,1-.89.37,1.28,1.28,0,0,1-1.27-1.27Zm.27,12.6V12.86h2v8.79Z"/><path class="cls-1" d="M158.3,21.65V12.86h1.89V14.3A3.79,3.79,0,0,1,161.61,13a4.32,4.32,0,0,1,2-.42,4.07,4.07,0,0,1,1.67.31,2.43,2.43,0,0,1,1.08.92,2.53,2.53,0,0,1,.33.84,9.44,9.44,0,0,1,.1,1.69v5.33h-2V17.14a4.25,4.25,0,0,0-.42-2.31,1.75,1.75,0,0,0-1.5-.57,2.92,2.92,0,0,0-1.26.26,2.09,2.09,0,0,0-.87.73,2,2,0,0,0-.31.81,10,10,0,0,0-.09,1.58v4Z"/><path class="cls-1" d="M177.91,21.11a5.12,5.12,0,0,1-1,3.63,4.73,4.73,0,0,1-3.47,1.05,4.94,4.94,0,0,1-2.9-.77,2.42,2.42,0,0,1-1.1-2h2.16a1.06,1.06,0,0,0,.53.86,2.58,2.58,0,0,0,1.35.3,2.55,2.55,0,0,0,1.86-.57,2.64,2.64,0,0,0,.58-1.89l0-1.17A3.34,3.34,0,0,1,173,22a3.63,3.63,0,0,1-2.94-1.28A5.26,5.26,0,0,1,169,17.25a5.08,5.08,0,0,1,1.09-3.4,3.87,3.87,0,0,1,4.7-.84,2.64,2.64,0,0,1,1.12,1.29V12.86h2Zm-2-3.88a3.22,3.22,0,0,0-.64-2.12,2.19,2.19,0,0,0-1.78-.76,2.21,2.21,0,0,0-1.8.78,3.3,3.3,0,0,0-.65,2.17,3.3,3.3,0,0,0,.63,2.16,2.38,2.38,0,0,0,3.55-.06A3.3,3.3,0,0,0,176,17.23Z"/><path class="cls-1" d="M186.07,15.56v6.1H184V8.07h3.34a10.66,10.66,0,0,1,2.18.16,3.4,3.4,0,0,1,1.22.53,3.17,3.17,0,0,1,1,1.28,4.25,4.25,0,0,1,.36,1.77,4.34,4.34,0,0,1-.36,1.78,3.08,3.08,0,0,1-1,1.28,3.34,3.34,0,0,1-1.22.53,10.89,10.89,0,0,1-2.18.16h-1.27Zm.14-1.81h.57a5,5,0,0,0,2.45-.4,1.56,1.56,0,0,0,.61-1.41,1.72,1.72,0,0,0-.65-1.53,4.59,4.59,0,0,0-2.41-.45h-.57Z"/><path class="cls-1" d="M194.46,21.65V7.27h2V21.65Z"/><path class="cls-1" d="M208.5,21.65h-2V20.51a3.34,3.34,0,0,1-2.9,1.5,3.63,3.63,0,0,1-2.94-1.28,5.26,5.26,0,0,1-1.07-3.49,5.08,5.08,0,0,1,1.09-3.4,3.87,3.87,0,0,1,4.7-.84,2.64,2.64,0,0,1,1.12,1.29V12.86h2Zm-2-4.43a3.22,3.22,0,0,0-.64-2.12,2.19,2.19,0,0,0-1.78-.76,2.21,2.21,0,0,0-1.8.78,3.3,3.3,0,0,0-.65,2.17,3.3,3.3,0,0,0,.63,2.16,2.38,2.38,0,0,0,3.55-.06A3.3,3.3,0,0,0,206.54,17.23Z"/><path class="cls-1" d="M212,21.65V12.86h1.89V14.3A3.79,3.79,0,0,1,215.35,13a4.32,4.32,0,0,1,2-.42,4.07,4.07,0,0,1,1.67.31,2.43,2.43,0,0,1,1.08.92,2.53,2.53,0,0,1,.33.84,9.44,9.44,0,0,1,.1,1.69v5.33h-2V17.14a4.25,4.25,0,0,0-.42-2.31,1.75,1.75,0,0,0-1.5-.57,2.92,2.92,0,0,0-1.26.26,2.09,2.09,0,0,0-.87.73,2,2,0,0,0-.31.81,10,10,0,0,0-.09,1.58v4Z"/><path class="cls-1" d="M224,21.65V12.86h1.89V14.3A3.79,3.79,0,0,1,227.32,13a4.32,4.32,0,0,1,2-.42,4.07,4.07,0,0,1,1.67.31,2.43,2.43,0,0,1,1.08.92,2.53,2.53,0,0,1,.33.84,9.44,9.44,0,0,1,.1,1.69v5.33h-2V17.14a4.25,4.25,0,0,0-.42-2.31,1.75,1.75,0,0,0-1.5-.57,2.92,2.92,0,0,0-1.26.26,2.09,2.09,0,0,0-.87.73,2,2,0,0,0-.31.81,10,10,0,0,0-.09,1.58v4Z"/><path class="cls-1" d="M243.78,17.55h-7a2.94,2.94,0,0,0,.73,1.92,2.31,2.31,0,0,0,1.75.69,3,3,0,0,0,1.62-.41A3.37,3.37,0,0,0,242,18.44l1.7.95a5.15,5.15,0,0,1-1.84,2,5,5,0,0,1-2.57.65,4.48,4.48,0,0,1-3.37-1.29,4.73,4.73,0,0,1-1.25-3.44,4.68,4.68,0,0,1,1.29-3.4,5,5,0,0,1,6.64-.12,4.67,4.67,0,0,1,1.19,3.41Zm-2.09-1.35a2.13,2.13,0,0,0-.72-1.44,2.52,2.52,0,0,0-1.65-.5,2.48,2.48,0,0,0-1.6.48,2.59,2.59,0,0,0-.84,1.46Z"/><path class="cls-1" d="M248.4,14.26a2.85,2.85,0,0,1,.86-1.29,2.08,2.08,0,0,1,1.32-.42,3.48,3.48,0,0,1,.84.1,4.1,4.1,0,0,1,.81.3l-.72,1.71a1.84,1.84,0,0,0-.56-.27,2.4,2.4,0,0,0-.67-.09,1.51,1.51,0,0,0-1.44.8,6,6,0,0,0-.44,2.7v3.86h-2V12.84h2Z"/><path class="cls-1" d="M0,12.09l.86,6.06c.21,1.6.91,2.7,1.7,2.7H6.72c-.8,0-1.49-1.11-1.7-2.7l-.86-6.06Z"/><path class="cls-2" d="M11.72,5c-.8,0-1.49,1.11-1.7,2.7L8.25,18.15c-.21,1.6-.91,2.7-1.7,2.7H2.39c.8,0,1.49-1.11,1.7-2.7L5.86,7.74c.21-1.6.91-2.7,1.7-2.7Z"/><path class="cls-1" d="M7.4,5c.8,0,1.49,1.11,1.7,2.7l2,18.05c.21,1.6.91,2.7,1.7,2.7h4.15c-.8,0-1.49-1.11-1.7-2.7l-2-18.05C13,6.14,12.35,5,11.55,5Z"/><path class="cls-2" d="M22.44,0c-.8,0-1.49,1.11-1.7,2.7L18.42,25.79c-.21,1.6-.91,2.7-1.7,2.7H12.56c.8,0,1.49-1.11,1.7-2.7L16.58,2.7c.21-1.6.91-2.7,1.7-2.7Z"/><path class="cls-1" d="M18.17,0c.8,0,1.49,1.11,1.7,2.7l1.89,18.77c.21,1.6.91,2.7,1.7,2.7h4.15c-.8,0-1.49-1.11-1.7-2.7L24,2.7c-.21-1.6-.91-2.7-1.7-2.7Z"/><path class="cls-2" d="M32.92,5c-.8,0-1.49,1.11-1.7,2.7L29.32,21.47c-.21,1.6-.91,2.7-1.7,2.7H23.46c.8,0,1.49-1.11,1.7-2.7L27.06,7.74c.21-1.6.91-2.7,1.7-2.7Z"/><path class="cls-1" d="M28.59,5c.8,0,1.49,1.11,1.7,2.7l1.21,9.57c.21,1.6.91,2.7,1.7,2.7h4.15c-.8,0-1.49-1.11-1.7-2.7L34.45,7.74c-.21-1.6-.91-2.7-1.7-2.7Z"/><path class="cls-2" d="M39.94,9.93,39,17.31c-.21,1.6-.91,2.7-1.7,2.7H33.16c.8,0,1.49-1.11,1.7-2.7l.92-7.38Z"/><path class="cls-1" d="M255.49,11.93v-3H254.3V8.57h2.8v.36h-1.19v3Z"/><path class="cls-1" d="M260.54,11.93h-.41V9l-1,2h-.23l-1-2v2.89h-.39V8.57h.53l1,1.94,1-1.94h.53Z"/></g></g></svg>