<svg xmlns="http://www.w3.org/2000/svg" viewBox="0 0 77.72 55.46"><defs><style>.cls-1{fill:#fff;}.cls-2{fill:#999;}</style></defs><title>w2s_logo</title><g id="レイヤー_2" data-name="レイヤー 2"><g id="design"><path class="cls-1" d="M0,23.53,1.68,35.32c.41,3.11,1.77,5.26,3.32,5.26h8.08c-1.55,0-2.91-2.15-3.32-5.26L8.08,23.53Z"/><path class="cls-2" d="M22.81,9.8c-1.55,0-2.91,2.15-3.32,5.26L16,35.32c-.41,3.11-1.77,5.26-3.32,5.26H4.65c1.55,0,2.91-2.15,3.32-5.26l3.45-20.26C11.82,12,13.18,9.8,14.73,9.8Z"/><path class="cls-1" d="M14.4,9.8c1.55,0,2.91,2.15,3.32,5.26L21.54,50.2c.41,3.11,1.77,5.26,3.32,5.26h8.08c-1.55,0-2.91-2.15-3.32-5.26L25.8,15.06C25.39,12,24,9.8,22.48,9.8Z"/><path class="cls-2" d="M43.66,0c-1.55,0-2.91,2.15-3.32,5.26L35.85,50.2c-.41,3.11-1.77,5.26-3.32,5.26H24.45c1.55,0,2.91-2.15,3.32-5.26l4.5-44.94C32.67,2.15,34,0,35.58,0Z"/><path class="cls-1" d="M35.37,0c1.55,0,2.91,2.15,3.32,5.26l3.68,36.53c.41,3.11,1.77,5.26,3.32,5.26h8.08c-1.55,0-2.91-2.15-3.32-5.26L46.77,5.26C46.36,2.15,45,0,43.45,0Z"/><path class="cls-2" d="M64.07,9.8c-1.55,0-2.91,2.15-3.32,5.26L57.06,41.79c-.41,3.11-1.77,5.26-3.32,5.26H45.66c1.55,0,2.91-2.15,3.32-5.26l3.69-26.73C53.08,12,54.43,9.8,56,9.8Z"/><path class="cls-1" d="M55.64,9.8c1.55,0,2.91,2.15,3.32,5.26l2.36,18.63c.41,3.11,1.77,5.26,3.32,5.26h8.08c-1.55,0-2.91-2.15-3.32-5.26L67,15.06C66.63,12,65.27,9.8,63.72,9.8Z"/><path class="cls-2" d="M77.72,19.33,75.93,33.69c-.41,3.11-1.77,5.26-3.32,5.26H64.53c1.55,0,2.91-2.15,3.32-5.26l1.79-14.36Z"/></g></g></svg>