<?xml version="1.0" encoding="UTF-8"?>
<svg id="_フォーマット" data-name="フォーマット" xmlns="http://www.w3.org/2000/svg" xmlns:xlink="http://www.w3.org/1999/xlink" viewBox="0 0 90 700">
  <defs>
    <style>
      .cls-1 {
        opacity: .35;
      }

      .cls-2 {
        fill: url(#_名称未設定グラデーション_4);
      }
    </style>
    <linearGradient id="_名称未設定グラデーション_4" data-name="名称未設定グラデーション 4" x1="45" y1="592.4" x2="45" y2="97.05" gradientUnits="userSpaceOnUse">
      <stop offset="0" stop-color="#d81768"/>
      <stop offset=".19" stop-color="#dc761b"/>
      <stop offset=".34" stop-color="#d8342a"/>
      <stop offset=".46" stop-color="#d7202e"/>
      <stop offset=".66" stop-color="#dc6020"/>
      <stop offset="1" stop-color="#ffa800"/>
    </linearGradient>
  </defs>
  <g class="cls-1">
    <path class="cls-2" d="m13.93,272.72c.19.13.25.25.19.38-.06.13-.19.19-.38.19h-1.82c-.32,0-.59.11-.81.34-.22.22-.33.49-.33.81v8.81c0,.32.11.59.33.81.22.22.49.33.81.33h32.56c4.79,0,8.65-1.56,11.59-4.69,2.94-3.13,4.4-7.21,4.4-12.26,0-4.66-1.31-8.54-3.93-11.63-2.62-3.1-6.1-4.8-10.44-5.12-.77-.06-1.15.29-1.15,1.05v9.29c0,.77.38,1.18,1.15,1.24,1.47.19,2.63.73,3.5,1.63.86.89,1.29,2.01,1.29,3.35,0,1.72-.69,3.16-2.06,4.31-1.37,1.15-3.21,1.72-5.51,1.72h-2.49c-.32,0-.48-.16-.48-.48v-4.98c0-5.75-1.21-10.29-3.64-13.65-2.43-3.35-6.51-5.03-12.26-5.03s-9.27,1.39-11.35,4.17c-2.08,2.78-3.11,5.99-3.11,9.62,0,4.28,1.31,7.53,3.93,9.77Zm6.75-10.63c.99-1.02,2.47-1.53,4.45-1.53,2.23,0,3.94.67,5.12,2.01,1.18,1.34,1.77,3.1,1.77,5.27v4.98c0,.32-.16.48-.48.48h-5.46c-2.17,0-3.86-.74-5.08-2.2-1.21-1.47-1.82-3.16-1.82-5.07,0-1.6.49-2.91,1.48-3.93Zm-8.76-131.62h7.28c.32,0,.59-.11.81-.33.22-.22.33-.5.33-.81v-20.68c0-.32.16-.48.48-.48h18.19c.32,0,.48.16.48.48v12.26c0,.32.11.59.33.81.22.22.49.33.81.33h7.37c.32,0,.59-.11.81-.33.22-.22.33-.5.33-.81v-12.26c0-.32.16-.48.48-.48h18.1c.32,0,.48.16.48.48v20.68c0,.32.11.59.33.81.22.22.49.33.81.33h7.28c.32,0,.59-.11.81-.33.22-.22.34-.5.34-.81v-31.12c0-.32-.11-.59-.34-.81-.22-.22-.5-.34-.81-.34H11.91c-.32,0-.59.11-.81.34-.22.22-.33.49-.33.81v31.12c0,.32.11.59.33.81.22.22.49.33.81.33Zm65.88,76.39c0-.32-.11-.59-.34-.81-.22-.22-.5-.34-.81-.34H11.91c-.32,0-.59.11-.81.34-.22.22-.33.49-.33.81v16.85c0,5.49,1.6,9.94,4.79,13.36,3.19,3.41,7.72,5.12,13.6,5.12,3.7,0,6.89-.7,9.58-2.11,2.68-1.41,4.82-3.35,6.42-5.84.19-.19.38-.13.57.19,2.81,4.66,7.5,6.99,14.08,6.99,5.87,0,10.34-1.72,13.41-5.17,3.06-3.45,4.6-8.2,4.6-14.27v-15.13Zm-36.48,15.99c0,2.55-.94,4.56-2.83,6.03-1.88,1.47-4.48,2.2-7.8,2.2s-5.78-.73-7.56-2.2c-1.79-1.47-2.68-3.48-2.68-6.03v-5.55c0-.32.16-.48.48-.48h19.92c.32,0,.48.16.48.48v5.55Zm26.91-.67c0,2.62-.83,4.66-2.49,6.13-1.66,1.47-4.02,2.2-7.09,2.2s-5.2-.74-6.8-2.2c-1.6-1.47-2.39-3.51-2.39-6.13v-4.88c0-.32.16-.48.48-.48h17.81c.32,0,.48.16.48.48v4.88Zm-25.66,122.59h34.09c.32,0,.59-.11.81-.33.22-.22.34-.5.34-.81v-8.81c0-.32-.11-.59-.34-.81-.22-.22-.5-.34-.81-.34H11.91c-.32,0-.59.11-.81.34-.22.22-.33.49-.33.81v8.81c0,.32.11.59.33.81.22.22.49.33.81.33h14.27c.13,0,.32.06.57.19l6.7,4.5c.19.06.27.16.24.29-.03.13-.14.22-.34.29l-21.64,7.09c-.64.19-.96.6-.96,1.24v9.1c0,.7.29,1.05.86,1.05.19,0,.35-.03.48-.1l30.45-11.49c.19-.06.41-.03.67.1l15.03,9.96c.38.26.72.32,1.01.19.29-.13.43-.42.43-.86v-9.19c0-.64-.26-1.09-.77-1.34l-16.47-10.44c-.19-.13-.29-.26-.29-.38s.13-.19.38-.19Zm-14.56-170.76h1.15c.32,0,.59-.11.81-.33.22-.22.33-.5.33-.81l.38-8.91c0-.32-.11-.59-.33-.81-.22-.22-.5-.34-.81-.34h-2.39c-2.23,0-4.05-.64-5.46-1.91-1.41-1.28-2.11-2.97-2.11-5.08s.7-3.7,2.11-4.98c1.4-1.28,3.22-1.91,5.46-1.91h34.28c2.23,0,4.05.64,5.46,1.91,1.4,1.28,2.11,2.94,2.11,4.98s-.7,3.8-2.11,5.08c-1.41,1.28-3.23,1.91-5.46,1.91h-2.39c-.77,0-1.15.38-1.15,1.15l.38,8.91c0,.32.13.59.38.81.25.22.54.33.86.33h1.15c5.49,0,9.85-1.66,13.07-4.98,3.22-3.32,4.84-7.73,4.84-13.22s-1.61-9.78-4.84-13.07c-3.22-3.29-7.58-4.93-13.07-4.93H28c-5.43,0-9.78,1.64-13.07,4.93-3.29,3.29-4.93,7.64-4.93,13.07s1.64,9.9,4.93,13.22c3.29,3.32,7.64,4.98,13.07,4.98Zm42.52,314.45v.29c0,.32.11.59.33.81.22.22.49.33.81.33h5.36c.32,0,.59-.11.81-.33.22-.22.33-.5.33-.81v-.29c.19-5.68-.81-9.86-3.02-12.54-2.2-2.68-6.02-4.02-11.44-4.02h-3.54c-.32,0-.48-.16-.48-.48v-13.22c0-.32.16-.48.48-.48h2.68c2.49,0,4.37.41,5.65,1.24,1.28.83,1.95,2.23,2.01,4.21v.29c0,.32.11.59.33.81.22.22.49.34.81.34h5.36c.32,0,.59-.11.81-.34.22-.22.33-.49.33-.81v-.38c.19-5.68-.81-9.85-3.02-12.5-2.2-2.65-6.02-3.97-11.44-3.97h-3.54c-.32,0-.48-.16-.48-.48v-3.06c0-.32-.11-.59-.34-.81-.22-.22-.5-.33-.81-.33h-5.55c-.32,0-.59.11-.81.33-.22.22-.33.49-.33.81v3.06c0,.32-.16.48-.48.48H11.91c-.32,0-.59.11-.81.34-.22.22-.33.49-.33.81v8.81c0,.32.11.59.33.81.22.22.49.34.81.34h39.45c.32,0,.48.16.48.48v13.22c0,.32-.16.48-.48.48H11.91c-.32,0-.59.11-.81.34-.22.22-.33.49-.33.81v8.81c0,.32.11.59.33.81.22.22.49.34.81.34h39.45c.32,0,.48.16.48.48v5.84c0,.32.11.59.33.81.22.22.49.33.81.33h5.55c.32,0,.59-.11.81-.33.22-.22.34-.5.34-.81v-5.84c0-.32.16-.48.48-.48h2.68c2.49,0,4.37.41,5.65,1.24,1.28.83,1.95,2.23,2.01,4.21Zm7.57,9.91c-1.28-1.25-2.91-1.87-4.88-1.87s-3.61.62-4.88,1.87c-1.28,1.24-1.91,2.86-1.91,4.83s.64,3.61,1.91,4.88c1.28,1.28,2.9,1.91,4.88,1.91s3.61-.64,4.88-1.91c1.28-1.28,1.91-2.91,1.91-4.88s-.64-3.59-1.91-4.83Zm-53.34-172.35h1.72c.32,0,.59-.11.81-.33.22-.22.34-.5.34-.81l.1-8.81c0-.32-.11-.59-.33-.81-.22-.22-.5-.33-.81-.33h-.96c-1.66,0-3.08-.56-4.26-1.68-1.18-1.12-1.77-2.54-1.77-4.26s.64-3.13,1.92-4.21c1.28-1.09,2.9-1.63,4.88-1.63h17.72c1.98,0,3.61.54,4.88,1.63,1.28,1.08,1.92,2.49,1.92,4.21s-.59,3.14-1.77,4.26c-1.18,1.12-2.57,1.68-4.17,1.68h-.96c-.77,0-1.15.38-1.15,1.15l.38,8.81c0,.32.11.59.33.81.22.22.49.33.81.33h1.34c4.28,0,7.8-1.53,10.58-4.6,2.78-3.06,4.17-7.21,4.17-12.45s-1.42-9.37-4.26-12.4c-2.84-3.03-6.59-4.55-11.25-4.55h-19.34c-4.79,0-8.59,1.52-11.4,4.55-2.81,3.03-4.21,7.17-4.21,12.4s1.36,9.38,4.07,12.45c2.71,3.06,6.27,4.6,10.68,4.6Zm20.21,191.19h-19.34c-4.79,0-8.59,1.52-11.4,4.55-2.81,3.03-4.21,7.16-4.21,12.4s1.36,9.38,4.07,12.45c2.71,3.06,6.27,4.6,10.68,4.6h1.72c.32,0,.59-.11.81-.33.22-.22.34-.5.34-.81l.1-8.81c0-.32-.11-.59-.33-.81-.22-.22-.5-.33-.81-.33h-.96c-1.66,0-3.08-.56-4.26-1.68-1.18-1.12-1.77-2.54-1.77-4.26s.64-3.13,1.92-4.21c1.28-1.09,2.9-1.63,4.88-1.63h17.72c1.98,0,3.61.54,4.88,1.63,1.28,1.08,1.92,2.49,1.92,4.21s-.59,3.14-1.77,4.26c-1.18,1.12-2.57,1.68-4.17,1.68h-.96c-.77,0-1.15.38-1.15,1.15l.38,8.81c0,.32.11.59.33.81.22.22.49.33.81.33h1.34c4.28,0,7.8-1.53,10.58-4.6,2.78-3.06,4.17-7.21,4.17-12.45s-1.42-9.37-4.26-12.4c-2.84-3.03-6.59-4.55-11.25-4.55Zm0,41.28h-19.44c-4.79,0-8.57,1.52-11.35,4.55-2.78,3.03-4.17,7.17-4.17,12.4s1.2,8.97,3.59,11.78c2.39,2.81,5.82,4.44,10.29,4.88.38.06.69-.02.91-.24.22-.22.33-.5.33-.81l.38-8.52c0-.64-.32-1.05-.96-1.24-1.47-.32-2.67-1.01-3.59-2.06-.93-1.05-1.39-2.31-1.39-3.78,0-1.72.64-3.13,1.92-4.21,1.28-1.09,2.9-1.63,4.88-1.63h4.31c.32,0,.48.16.48.48v21.16c0,.32.11.59.33.81.22.22.49.34.81.34h12.64c4.66,0,8.41-1.52,11.25-4.55,2.84-3.03,4.26-7.17,4.26-12.4s-1.42-9.37-4.26-12.4c-2.84-3.03-6.59-4.55-11.25-4.55Zm4.07,21.26c-1.25,1.08-2.89,1.63-4.93,1.63h-4.31c-.32,0-.48-.16-.48-.48v-10.82c0-.32.16-.48.48-.48h4.31c1.98,0,3.61.54,4.88,1.63,1.28,1.08,1.92,2.49,1.92,4.21s-.62,3.22-1.87,4.31Zm-20.83-145.36h32.18c5.49,0,9.89-1.69,13.21-5.08,3.32-3.38,4.98-7.82,4.98-13.31s-1.66-9.91-4.98-13.26c-3.32-3.35-7.73-5.03-13.21-5.03H28.19c-5.49,0-9.9,1.68-13.21,5.03-3.32,3.35-4.98,7.77-4.98,13.26s1.66,9.93,4.98,13.31c3.32,3.38,7.72,5.08,13.21,5.08Zm-6.37-23.61c1.5-1.31,3.46-1.96,5.89-1.96h33.13c2.43,0,4.39.65,5.89,1.96,1.5,1.31,2.25,3.05,2.25,5.22s-.75,3.93-2.25,5.27c-1.5,1.34-3.46,2.01-5.89,2.01H27.72c-2.43,0-4.39-.67-5.89-2.01-1.5-1.34-2.25-3.1-2.25-5.27s.75-3.91,2.25-5.22Zm-9.91,98.07h46.64c.32,0,.59-.11.81-.34.22-.22.34-.5.34-.81v-8.81c0-.32-.11-.59-.34-.81-.22-.22-.5-.33-.81-.33H11.91c-.32,0-.59.11-.81.33-.22.22-.33.49-.33.81v8.81c0,.32.11.59.33.81.22.22.49.34.81.34Z"/>
  </g>
</svg>