<?xml version="1.0" encoding="UTF-8"?>
<svg id="_レイヤー_5" data-name="レイヤー 5" xmlns="http://www.w3.org/2000/svg" viewBox="0 0 300 65">
  <defs>
    <style>
      .cls-1 {
        fill: #73ae5f;
      }
    </style>
  </defs>
  <path class="cls-1" d="m123.62,44.75c-1.44-1.44-2.16-3.34-2.16-5.72v-14.29c0-2.4.72-4.31,2.16-5.72,1.44-1.41,3.34-2.12,5.72-2.12s4.33.71,5.78,2.12c1.45,1.41,2.18,3.32,2.18,5.72v.5c0,.14-.05.27-.15.38-.1.11-.22.17-.36.17l-3.9.17c-.33,0-.5-.17-.5-.5v-1.05c0-.98-.28-1.77-.84-2.39-.56-.61-1.3-.92-2.22-.92s-1.62.31-2.18.92c-.56.61-.84,1.41-.84,2.39v15c0,.98.28,1.77.84,2.39.56.61,1.28.92,2.18.92s1.66-.31,2.22-.92c.56-.61.84-1.41.84-2.39v-1.05c0-.14.05-.26.15-.36.1-.1.22-.15.36-.15l3.9.17c.14,0,.26.05.36.15.1.1.15.22.15.36v.5c0,2.37-.73,4.28-2.18,5.72-1.45,1.44-3.38,2.16-5.78,2.16s-4.28-.72-5.72-2.16Z"/>
  <path class="cls-1" d="m154.96,17.24h3.85c.14,0,.26.05.36.15.1.1.15.22.15.36v28.32c0,.14-.05.26-.15.36s-.22.15-.36.15h-3.85c-.14,0-.26-.05-.36-.15-.1-.1-.15-.22-.15-.36v-19.78c0-.11-.03-.17-.08-.17s-.11.04-.17.13l-3.65,6.62c-.14.22-.27.34-.38.34s-.24-.11-.38-.34l-3.65-6.62c-.06-.08-.11-.13-.17-.13s-.08.06-.08.17v19.78c0,.14-.05.26-.15.36-.1.1-.22.15-.36.15h-3.85c-.14,0-.26-.05-.36-.15-.1-.1-.15-.22-.15-.36v-28.32c0-.14.05-.26.15-.36.1-.1.22-.15.36-.15h3.85c.28,0,.49.11.63.33l4.06,7.16c.08.11.17.11.25,0l3.98-7.16c.14-.22.35-.33.63-.33Z"/>
  <path class="cls-1" d="m165.17,44.81c-1.42-1.4-2.14-3.23-2.14-5.49v-1.09c0-.14.05-.26.15-.36.1-.1.22-.15.36-.15h3.81c.14,0,.26.05.36.15.1.1.15.22.15.36v.84c0,1.09.27,1.97.82,2.64.54.67,1.25,1.01,2.12,1.01s1.58-.31,2.14-.94c.56-.63.84-1.46.84-2.49,0-.73-.15-1.35-.46-1.89-.31-.53-.74-1.03-1.3-1.51-.56-.47-1.45-1.16-2.68-2.05-1.4-1.01-2.52-1.9-3.37-2.68-.85-.78-1.56-1.72-2.14-2.83-.57-1.1-.86-2.38-.86-3.83,0-2.32.7-4.16,2.1-5.53,1.4-1.37,3.24-2.05,5.53-2.05s4.19.72,5.61,2.16c1.42,1.44,2.14,3.35,2.14,5.72v1.01c0,.14-.05.26-.15.36s-.22.15-.36.15h-3.77c-.14,0-.26-.05-.36-.15-.1-.1-.15-.22-.15-.36v-1.09c0-1.09-.27-1.96-.82-2.62-.54-.66-1.26-.98-2.16-.98-.84,0-1.52.3-2.05.9-.53.6-.8,1.43-.8,2.49,0,1.01.29,1.86.86,2.56s1.7,1.66,3.37,2.89c1.7,1.26,2.99,2.28,3.85,3.08.87.8,1.54,1.67,2.01,2.62.47.95.71,2.08.71,3.39,0,2.37-.71,4.28-2.14,5.72-1.42,1.44-3.3,2.16-5.61,2.16s-4.19-.7-5.61-2.09Z"/>
</svg>