<?xml version="1.0" encoding="UTF-8"?>
<svg id="_レイヤー_5" data-name="レイヤー 5" xmlns="http://www.w3.org/2000/svg" viewBox="0 0 300 65">
  <defs>
    <style>
      .cls-1 {
        fill: #6ebfb4;
      }
    </style>
  </defs>
  <path class="cls-1" d="m43.92,41.65c-1.15-1.15-1.72-2.67-1.72-4.57v-11.4c0-1.92.57-3.44,1.72-4.57,1.15-1.13,2.67-1.69,4.57-1.69s3.46.56,4.62,1.69c1.16,1.13,1.74,2.65,1.74,4.57v.4c0,.11-.04.21-.12.3-.08.09-.17.13-.28.13l-3.11.13c-.27,0-.4-.13-.4-.4v-.84c0-.78-.22-1.42-.67-1.91-.45-.49-1.04-.74-1.77-.74s-1.29.25-1.74.74c-.45.49-.67,1.13-.67,1.91v11.97c0,.78.22,1.42.67,1.91.45.49,1.03.74,1.74.74s1.33-.24,1.77-.74c.45-.49.67-1.13.67-1.91v-.84c0-.11.04-.21.12-.28.08-.08.17-.12.28-.12l3.11.13c.11,0,.21.04.28.12.08.08.12.17.12.28v.4c0,1.9-.58,3.42-1.74,4.57-1.16,1.15-2.7,1.72-4.62,1.72s-3.42-.57-4.57-1.72Z"/>
  <path class="cls-1" d="m65.61,26.13c.08-.08.17-.12.28-.12h3.08c.11,0,.21.04.28.12.08.08.12.17.12.28v16.29c0,.11-.04.21-.12.28s-.17.12-.28.12h-3.08c-.11,0-.21-.04-.28-.12-.08-.08-.12-.17-.12-.28v-.74c0-.07-.02-.11-.07-.13-.04-.02-.09,0-.13.07-.65.96-1.68,1.44-3.11,1.44s-2.46-.41-3.29-1.22c-.84-.81-1.25-2.07-1.25-3.76v-11.94c0-.11.04-.21.12-.28.08-.08.17-.12.28-.12h3.08c.11,0,.21.04.28.12.08.08.12.17.12.28v11.1c0,1.67.65,2.51,1.94,2.51.65,0,1.15-.24,1.5-.72.36-.48.54-1.13.54-1.96v-10.94c0-.11.04-.21.12-.28Z"/>
  <path class="cls-1" d="m73.61,42.03c-1.05-.85-1.57-2-1.57-3.44v-.23c0-.11.04-.21.12-.28.08-.08.17-.12.28-.12h2.88c.11,0,.21.04.28.12.08.08.12.17.12.28v.17c0,.54.21.98.62,1.34.41.36.92.54,1.52.54s1.04-.17,1.37-.5.5-.76.5-1.27c0-.45-.15-.82-.43-1.12-.29-.3-.6-.53-.94-.69-.33-.16-.94-.41-1.81-.77-1.27-.49-2.31-1.11-3.13-1.87-.81-.76-1.22-1.88-1.22-3.38s.5-2.78,1.49-3.66c.99-.88,2.34-1.32,4.03-1.32s3.12.46,4.13,1.39c1.01.93,1.52,2.17,1.52,3.73,0,.11-.04.21-.12.28-.08.08-.17.12-.28.12h-2.81c-.11,0-.21-.04-.28-.12-.08-.08-.12-.17-.12-.28v-.2c0-.54-.18-.98-.55-1.34-.37-.36-.83-.54-1.39-.54s-1.04.18-1.39.55c-.35.37-.52.81-.52,1.32,0,.42.13.78.4,1.07.27.29.57.52.9.69.33.17.89.42,1.67.75.94.38,1.72.75,2.36,1.12s1.19.89,1.67,1.57c.48.68.72,1.52.72,2.53,0,1.49-.52,2.68-1.57,3.55-1.05.87-2.46,1.3-4.25,1.3s-3.17-.42-4.21-1.27Z"/>
  <path class="cls-1" d="m93.42,28.61c-.08.08-.17.12-.28.12h-2.07c-.11,0-.17.06-.17.17v8.76c0,.78.14,1.32.43,1.62.29.3.72.44,1.3.42h.23c.11,0,.21.04.28.12.08.08.12.17.12.28v2.58c0,.11-.04.21-.12.28s-.17.12-.28.12h-1.14c-1.52,0-2.66-.28-3.43-.84-.77-.56-1.15-1.61-1.15-3.14v-10.2c0-.11-.06-.17-.17-.17h-1.17c-.11,0-.21-.04-.28-.12-.08-.08-.12-.17-.12-.28v-1.94c0-.11.04-.21.12-.28.08-.08.17-.12.28-.12h1.17c.11,0,.17-.06.17-.17v-3.68c0-.11.04-.21.12-.28s.17-.12.28-.12h2.94c.11,0,.21.04.28.12.08.08.12.17.12.28v3.68c0,.11.06.17.17.17h2.07c.11,0,.21.04.28.12.08.08.12.17.12.28v1.94c0,.11-.04.21-.12.28Z"/>
  <path class="cls-1" d="m97.33,41.9c-1.06-.98-1.59-2.31-1.59-3.98v-6.72c0-1.65.54-2.97,1.61-3.96,1.07-.99,2.52-1.49,4.35-1.49s3.31.5,4.38,1.49c1.07.99,1.61,2.31,1.61,3.96v6.72c0,1.67-.53,3-1.59,3.98-1.06.98-2.52,1.47-4.4,1.47s-3.31-.49-4.36-1.47Zm5.89-2.56c.39-.43.59-1.01.59-1.72v-6.15c0-.69-.2-1.26-.59-1.71-.39-.45-.9-.67-1.52-.67s-1.13.22-1.5.65c-.38.43-.57,1.01-.57,1.72v6.15c0,.71.19,1.29.57,1.72.38.43.88.65,1.5.65s1.13-.22,1.52-.65Z"/>
  <path class="cls-1" d="m128.7,27.27c.75,1.01,1.12,2.42,1.12,4.23v11.2c0,.11-.04.21-.12.28-.08.08-.17.12-.28.12h-3.04c-.11,0-.21-.04-.28-.12-.08-.08-.12-.17-.12-.28v-10.94c0-.85-.17-1.51-.5-1.97s-.79-.7-1.37-.7c-.62,0-1.11.23-1.47.7-.36.47-.54,1.12-.54,1.94v10.97c0,.11-.04.21-.12.28-.08.08-.17.12-.28.12h-3.04c-.11,0-.21-.04-.28-.12-.08-.08-.12-.17-.12-.28v-10.94c0-.85-.17-1.51-.52-1.97-.35-.47-.8-.7-1.35-.7-.62,0-1.12.23-1.47.7-.36.47-.54,1.12-.54,1.94v10.97c0,.11-.04.21-.12.28s-.17.12-.28.12h-3.04c-.11,0-.21-.04-.28-.12-.08-.08-.12-.17-.12-.28v-16.29c0-.11.04-.21.12-.28.08-.08.17-.12.28-.12h3.04c.11,0,.21.04.28.12.08.08.12.17.12.28v.54c0,.07.02.11.07.13s.09,0,.13-.07c.45-.45.95-.77,1.5-.97.56-.2,1.1-.3,1.64-.3,1.65,0,2.86.7,3.65,2.11.07.09.17.06.3-.1.45-.71,1.01-1.23,1.69-1.54.68-.31,1.37-.47,2.06-.47,1.45,0,2.55.51,3.29,1.52Z"/>
  <path class="cls-1" d="m144.3,35.86c-.08.08-.17.12-.28.12h-7.39c-.11,0-.17.06-.17.17v1.5c0,.69.19,1.26.57,1.71.38.45.87.67,1.47.67.51,0,.95-.16,1.32-.48.37-.32.61-.74.72-1.25.07-.22.21-.33.43-.33l2.98.13c.11,0,.21.04.28.12.08.08.11.18.08.32-.16,1.56-.73,2.76-1.71,3.6-.98.84-2.35,1.25-4.11,1.25s-3.27-.49-4.33-1.45c-1.06-.97-1.59-2.29-1.59-3.96v-6.79c0-1.63.53-2.94,1.59-3.93,1.06-.99,2.5-1.49,4.33-1.49s3.27.5,4.33,1.49c1.06.99,1.59,2.3,1.59,3.93v4.41c0,.11-.04.21-.12.28Zm-7.27-6.1c-.38.45-.57,1.01-.57,1.71v1.5c0,.11.06.17.17.17h3.78c.11,0,.17-.06.17-.17v-1.5c0-.71-.19-1.29-.57-1.72-.38-.44-.88-.65-1.5-.65s-1.09.22-1.47.67Z"/>
  <path class="cls-1" d="m155.55,26.15c.18.11.24.28.2.5l-.54,3.11c-.02.27-.18.35-.47.23-.31-.09-.6-.13-.87-.13s-.51.03-.74.1c-.62.09-1.13.44-1.52,1.05-.39.61-.59,1.34-.59,2.19v9.46c0,.11-.04.21-.12.28-.08.08-.17.12-.28.12h-3.08c-.11,0-.21-.04-.28-.12-.08-.08-.12-.17-.12-.28v-16.25c0-.11.04-.21.12-.28.08-.08.17-.12.28-.12h3.08c.11,0,.21.04.28.12.08.08.12.17.12.28v1.54c0,.09.02.14.07.15.04.01.08-.03.1-.12.6-1.45,1.58-2.17,2.94-2.17.6,0,1.07.11,1.4.33Z"/>
  <path class="cls-1" d="m166.95,41.7c-1.14-1.11-1.71-2.58-1.71-4.38v-.87c0-.11.04-.21.12-.28s.17-.12.28-.12h3.04c.11,0,.21.04.28.12.08.08.12.17.12.28v.67c0,.87.22,1.57.65,2.11s1,.8,1.69.8,1.26-.25,1.71-.75c.45-.5.67-1.16.67-1.99,0-.58-.12-1.08-.37-1.51-.25-.42-.59-.82-1.04-1.2-.45-.38-1.16-.93-2.14-1.64-1.12-.8-2.01-1.52-2.69-2.14-.68-.62-1.25-1.38-1.71-2.26-.46-.88-.69-1.9-.69-3.06,0-1.85.56-3.32,1.67-4.41,1.11-1.09,2.59-1.64,4.41-1.64s3.34.57,4.48,1.72c1.14,1.15,1.71,2.67,1.71,4.57v.8c0,.11-.04.21-.12.28-.08.08-.17.12-.28.12h-3.01c-.11,0-.21-.04-.28-.12-.08-.08-.12-.17-.12-.28v-.87c0-.87-.22-1.57-.65-2.09-.43-.52-1.01-.79-1.72-.79-.67,0-1.22.24-1.64.72-.42.48-.64,1.14-.64,1.99,0,.8.23,1.48.69,2.04s1.35,1.33,2.69,2.31c1.36,1,2.39,1.82,3.08,2.46.69.64,1.23,1.33,1.61,2.09.38.76.57,1.66.57,2.71,0,1.9-.57,3.42-1.71,4.57-1.14,1.15-2.63,1.72-4.48,1.72s-3.34-.56-4.48-1.67Z"/>
  <path class="cls-1" d="m188.27,26.13c.08-.08.17-.12.28-.12h3.08c.11,0,.21.04.28.12.08.08.12.17.12.28v16.29c0,.11-.04.21-.12.28s-.17.12-.28.12h-3.08c-.11,0-.21-.04-.28-.12-.08-.08-.12-.17-.12-.28v-.74c0-.07-.02-.11-.07-.13-.04-.02-.09,0-.13.07-.65.96-1.68,1.44-3.11,1.44s-2.46-.41-3.29-1.22c-.84-.81-1.25-2.07-1.25-3.76v-11.94c0-.11.04-.21.12-.28.08-.08.17-.12.28-.12h3.08c.11,0,.21.04.28.12.08.08.12.17.12.28v11.1c0,1.67.65,2.51,1.94,2.51.65,0,1.15-.24,1.5-.72.36-.48.54-1.13.54-1.96v-10.94c0-.11.04-.21.12-.28Z"/>
  <path class="cls-1" d="m205.69,27.2c.82.97,1.24,2.29,1.24,3.96v6.76c0,1.72-.41,3.05-1.24,4.01-.83.96-1.98,1.44-3.48,1.44-.51,0-1.04-.09-1.57-.28-.54-.19-1.01-.5-1.44-.92-.04-.04-.09-.06-.13-.03-.04.02-.07.07-.07.13v6.76c0,.11-.04.21-.12.28-.08.08-.17.12-.28.12h-3.08c-.11,0-.21-.04-.28-.12s-.12-.17-.12-.28v-22.61c0-.11.04-.21.12-.28.08-.08.17-.12.28-.12h3.08c.11,0,.21.04.28.12.08.08.12.17.12.28v.4c0,.07.03.11.08.12.06.01.12-.03.18-.12.78-.71,1.76-1.07,2.94-1.07,1.49,0,2.65.48,3.48,1.45Zm-3.18,2.52c-.38-.45-.88-.67-1.5-.67s-1.09.22-1.45.67c-.37.45-.55,1.03-.55,1.74v6.19c0,.71.18,1.29.55,1.72.37.43.85.65,1.45.65s1.13-.22,1.5-.65.57-1.01.57-1.72v-6.19c0-.71-.19-1.29-.57-1.74Z"/>
  <path class="cls-1" d="m220.43,27.2c.82.97,1.24,2.29,1.24,3.96v6.76c0,1.72-.41,3.05-1.24,4.01-.83.96-1.98,1.44-3.48,1.44-.51,0-1.04-.09-1.57-.28-.54-.19-1.01-.5-1.44-.92-.04-.04-.09-.06-.13-.03-.04.02-.07.07-.07.13v6.76c0,.11-.04.21-.12.28-.08.08-.17.12-.28.12h-3.08c-.11,0-.21-.04-.28-.12s-.12-.17-.12-.28v-22.61c0-.11.04-.21.12-.28.08-.08.17-.12.28-.12h3.08c.11,0,.21.04.28.12.08.08.12.17.12.28v.4c0,.07.03.11.08.12.06.01.12-.03.18-.12.78-.71,1.76-1.07,2.94-1.07,1.49,0,2.65.48,3.48,1.45Zm-3.18,2.52c-.38-.45-.88-.67-1.5-.67s-1.09.22-1.45.67c-.37.45-.55,1.03-.55,1.74v6.19c0,.71.18,1.29.55,1.72.37.43.85.65,1.45.65s1.13-.22,1.5-.65.57-1.01.57-1.72v-6.19c0-.71-.19-1.29-.57-1.74Z"/>
  <path class="cls-1" d="m225.93,41.9c-1.06-.98-1.59-2.31-1.59-3.98v-6.72c0-1.65.54-2.97,1.61-3.96,1.07-.99,2.52-1.49,4.35-1.49s3.31.5,4.38,1.49c1.07.99,1.61,2.31,1.61,3.96v6.72c0,1.67-.53,3-1.59,3.98-1.06.98-2.53,1.47-4.4,1.47s-3.31-.49-4.36-1.47Zm5.89-2.56c.39-.43.59-1.01.59-1.72v-6.15c0-.69-.2-1.26-.59-1.71-.39-.45-.9-.67-1.52-.67s-1.13.22-1.5.65c-.38.43-.57,1.01-.57,1.72v6.15c0,.71.19,1.29.57,1.72.38.43.88.65,1.5.65s1.13-.22,1.52-.65Z"/>
  <path class="cls-1" d="m247.52,26.15c.18.11.24.28.2.5l-.54,3.11c-.02.27-.18.35-.47.23-.31-.09-.6-.13-.87-.13s-.51.03-.74.1c-.62.09-1.13.44-1.52,1.05-.39.61-.59,1.34-.59,2.19v9.46c0,.11-.04.21-.12.28-.08.08-.17.12-.28.12h-3.08c-.11,0-.21-.04-.28-.12-.08-.08-.12-.17-.12-.28v-16.25c0-.11.04-.21.12-.28.08-.08.17-.12.28-.12h3.08c.11,0,.21.04.28.12.08.08.12.17.12.28v1.54c0,.09.02.14.07.15.04.01.08-.03.1-.12.6-1.45,1.58-2.17,2.94-2.17.6,0,1.07.11,1.4.33Z"/>
  <path class="cls-1" d="m257.68,28.61c-.08.08-.17.12-.28.12h-2.07c-.11,0-.17.06-.17.17v8.76c0,.78.14,1.32.43,1.62.29.3.72.44,1.3.42h.23c.11,0,.21.04.28.12.08.08.12.17.12.28v2.58c0,.11-.04.21-.12.28-.08.08-.17.12-.28.12h-1.14c-1.52,0-2.66-.28-3.43-.84-.77-.56-1.15-1.61-1.15-3.14v-10.2c0-.11-.06-.17-.17-.17h-1.17c-.11,0-.21-.04-.28-.12-.08-.08-.12-.17-.12-.28v-1.94c0-.11.04-.21.12-.28.08-.08.17-.12.28-.12h1.17c.11,0,.17-.06.17-.17v-3.68c0-.11.04-.21.12-.28.08-.08.17-.12.28-.12h2.94c.11,0,.21.04.28.12.08.08.12.17.12.28v3.68c0,.11.06.17.17.17h2.07c.11,0,.21.04.28.12.08.08.12.17.12.28v1.94c0,.11-.04.21-.12.28Z"/>
</svg>