<svg xmlns="http://www.w3.org/2000/svg" viewBox="0 0 425.38 166.71"><defs><style>.cls-1{fill:#727171;}.cls-2{fill:#7d0000;}.cls-3{fill:#e83828;}.cls-4{fill:#231815;}</style></defs><title>logo_repeatplus</title><g id="レイヤー_2" data-name="レイヤー 2"><g id="レイヤー_1-2" data-name="レイヤー 1"><path class="cls-1" d="M290.75,156.51h-1.08v-8h3.58a2.18,2.18,0,0,1,2.36,2.24,2.22,2.22,0,0,1-2.36,2.36h-2.51Zm0-4.28h2.14c1,0,1.62-.35,1.62-1.43s-.69-1.33-1.57-1.33h-2.18Z"/><path class="cls-1" d="M298.75,150.54a3.08,3.08,0,1,1-2.69,3.06A2.77,2.77,0,0,1,298.75,150.54Zm0,5.28c1.4,0,1.68-1.44,1.68-2.22s-.29-2.22-1.68-2.22-1.69,1.44-1.69,2.22S297.36,155.82,298.75,155.82Z"/><path class="cls-1" d="M304.67,156.51h-1l-1.67-5.8h1.06l1.11,4.56h0l1.12-4.56h1.09l1.13,4.56h0l1.18-4.56h1l-1.68,5.8h-1L305.83,152h0Z"/><path class="cls-1" d="M315.93,154.69a2.41,2.41,0,0,1-2.61,2,2.6,2.6,0,0,1-2.59-2.9c0-1.8.86-3.23,2.78-3.23,1.67,0,2.49,1.33,2.49,3.38h-4.23c0,1.21.56,1.91,1.68,1.91a1.47,1.47,0,0,0,1.5-1.14Zm-.93-1.54c-.06-.9-.43-1.73-1.62-1.73a1.7,1.7,0,0,0-1.61,1.73Z"/><path class="cls-1" d="M318.72,156.51h-1v-5.8h.92v1h0a1.88,1.88,0,0,1,1.63-1.13.8.8,0,0,1,.26,0v1h-.37a1.47,1.47,0,0,0-1.49,1.55Z"/><path class="cls-1" d="M326.67,154.69a2.41,2.41,0,0,1-2.61,2,2.6,2.6,0,0,1-2.59-2.9c0-1.8.86-3.23,2.78-3.23,1.67,0,2.49,1.33,2.49,3.38h-4.23c0,1.21.56,1.91,1.68,1.91a1.47,1.47,0,0,0,1.5-1.14Zm-.93-1.54c-.06-.9-.43-1.73-1.62-1.73a1.7,1.7,0,0,0-1.61,1.73Z"/><path class="cls-1" d="M333.17,156.51h-.92v-.8h0a1.75,1.75,0,0,1-1.65,1c-2,0-2.55-1.85-2.55-3.24,0-1.63.88-2.89,2.42-2.89a2,2,0,0,1,1.73,1h0v-3h1Zm-2.57-.68c.62,0,1.59-.41,1.59-2,0-.94-.16-2.46-1.56-2.46s-1.59,1.43-1.59,2.17C329,154.87,329.53,155.83,330.6,155.83Z"/><path class="cls-1" d="M338.42,156.51v-8h1v2.89h0a2,2,0,0,1,1.67-.9c1.54,0,2.42,1.26,2.42,2.89,0,1.39-.58,3.24-2.55,3.24a1.73,1.73,0,0,1-1.6-.89h0v.72Zm2.49-5.09c-1.41,0-1.56,1.52-1.56,2.46,0,1.54,1,2,1.59,2,1.06,0,1.56-1,1.56-2.24C342.5,152.85,342.42,151.42,340.91,151.42Z"/><path class="cls-1" d="M348.28,150.71h1.08c-.68,1.9-1.34,3.79-2.08,5.69-.92,2.35-1,2.48-2.27,2.48a1.43,1.43,0,0,1-.41-.09v-.89a1.71,1.71,0,0,0,.59.1c.51,0,.57-.14,1-1.34l-2.15-6h1.11l1.54,4.72h0Z"/><path class="cls-1" d="M356.29,156.51h-1l-1.67-5.8h1.06l1.11,4.56h0l1.12-4.56H358l1.13,4.56h0l1.18-4.56h1l-1.68,5.8h-1L357.44,152h0Z"/><path class="cls-1" d="M362.39,151.51a2.49,2.49,0,0,1,2.69-2.79,2.28,2.28,0,0,1,2.44,2.33c0,1.4-.92,2-2.08,2.61l-.81.44c-1.06.59-1.3,1.2-1.34,1.5h4.23v.92h-5.33a3.4,3.4,0,0,1,1.83-3.09l1-.6c.83-.48,1.43-.8,1.43-1.82a1.39,1.39,0,0,0-1.54-1.41c-1.47,0-1.54,1.37-1.57,1.92Z"/><path class="cls-1" d="M374.94,150.94a2.07,2.07,0,0,0-2.23-1.65c-1.44,0-2.6,1.06-2.6,3.16,0,1.87.67,3.31,2.64,3.31.7,0,1.91-.33,2.27-2.18h1a3.36,3.36,0,0,1-3.48,3.14c-1.81,0-3.58-1.18-3.58-4.23,0-2.45,1.4-4.15,3.71-4.15a3,3,0,0,1,3.27,2.61Z"/><path class="cls-1" d="M380,150.54a3.08,3.08,0,1,1-2.69,3.06A2.77,2.77,0,0,1,380,150.54Zm0,5.28c1.4,0,1.68-1.44,1.68-2.22s-.29-2.22-1.68-2.22-1.69,1.44-1.69,2.22S378.64,155.82,380,155.82Z"/><path class="cls-1" d="M384.29,150.71h.92v.82h0a2,2,0,0,1,1.75-1,1.57,1.57,0,0,1,1.54.94,2.12,2.12,0,0,1,1.77-.94,1.75,1.75,0,0,1,1.8,2v4h-1v-3.75c0-.8-.24-1.34-1.08-1.34a1.47,1.47,0,0,0-1.36,1.55v3.54h-1v-4c0-.49-.19-1.08-.91-1.08-.55,0-1.53.35-1.53,1.93v3.16h-1Z"/><path class="cls-1" d="M394,150.71h.92v.82h0a2,2,0,0,1,1.75-1,1.57,1.57,0,0,1,1.54.94,2.12,2.12,0,0,1,1.77-.94,1.75,1.75,0,0,1,1.8,2v4h-1v-3.75c0-.8-.24-1.34-1.08-1.34a1.47,1.47,0,0,0-1.36,1.55v3.54h-1v-4c0-.49-.19-1.08-.91-1.08-.55,0-1.53.35-1.53,1.93v3.16h-1Z"/><path class="cls-1" d="M408.57,154.69a2.41,2.41,0,0,1-2.61,2,2.6,2.6,0,0,1-2.59-2.9c0-1.8.86-3.23,2.78-3.23,1.67,0,2.49,1.33,2.49,3.38h-4.23c0,1.21.56,1.91,1.68,1.91a1.47,1.47,0,0,0,1.5-1.14Zm-.93-1.54c-.06-.9-.43-1.73-1.62-1.73a1.7,1.7,0,0,0-1.61,1.73Z"/><path class="cls-1" d="M411.37,156.51h-1v-5.8h.92v1h0a1.88,1.88,0,0,1,1.63-1.13.8.8,0,0,1,.26,0v1h-.37a1.47,1.47,0,0,0-1.49,1.55Z"/><path class="cls-1" d="M418,152.66a1.29,1.29,0,0,0-1.37-1.24c-1.21,0-1.6,1.15-1.6,2.18s.24,2.23,1.59,2.23a1.48,1.48,0,0,0,1.39-1.37H419a2.29,2.29,0,0,1-2.36,2.22,2.6,2.6,0,0,1-2.59-2.9c0-1.8.86-3.23,2.78-3.23a2.09,2.09,0,0,1,2.17,2.12Z"/><path class="cls-1" d="M425.3,154.69a2.41,2.41,0,0,1-2.61,2,2.6,2.6,0,0,1-2.59-2.9c0-1.8.86-3.23,2.78-3.23,1.67,0,2.49,1.33,2.49,3.38h-4.23c0,1.21.56,1.91,1.68,1.91a1.47,1.47,0,0,0,1.5-1.14Zm-.93-1.54c-.06-.9-.43-1.73-1.62-1.73a1.7,1.7,0,0,0-1.61,1.73Z"/><polygon class="cls-2" points="64.59 153.46 136.75 138.66 134.77 117.3 132.96 97.67 67.12 101.78 70.35 35.96 71.16 19.48 51.67 0 26.16 11.88 23.07 30.19 10.37 105.32 0 166.71 64.59 153.46"/><polygon class="cls-3" points="70.35 35.96 127.9 42.99 134.77 117.3 153.29 135.27 165.08 113.35 162.34 95.83 150.64 21 71.9 4.29 70.35 35.96"/><path class="cls-4" d="M254.19,14.69a3.61,3.61,0,1,0,3.61,3.61A3.61,3.61,0,0,0,254.19,14.69Zm0,5.31a1.69,1.69,0,1,1,1.69-1.69A1.68,1.68,0,0,1,254.19,20Z"/><path class="cls-2" d="M201.79,102.41v36.83h-12.5V57.16h20.18a64.22,64.22,0,0,1,13.2,1A20.55,20.55,0,0,1,230,61.37a19.14,19.14,0,0,1,6.06,7.71,25.7,25.7,0,0,1,2.19,10.68,26.28,26.28,0,0,1-2.19,10.76A18.61,18.61,0,0,1,230,98.26a20.12,20.12,0,0,1-7.37,3.2,65.91,65.91,0,0,1-13.2,1h-7.68Zm.84-10.93H206q11.1,0,14.8-2.41t3.7-8.52q0-6.56-4-9.25T206,68.6h-3.42Z"/><path class="cls-2" d="M349.56,57.16V107q0,11.1-4.7,16.68c-3.09,3.66-7.17,5.51-13.26,5.57s-10.17-1.91-13.26-5.57-4.7-9.28-4.7-16.68V57.16H300v51.07q0,16.71,7.65,24.95c5,5.4,13.53,8.13,23.65,8.22v0h.55v0c10.12-.1,18.64-2.83,23.65-8.22s7.65-13.81,7.65-24.95V57.16Z"/><path class="cls-2" d="M372.23,122.81l10.65-4.93a14.69,14.69,0,0,0,5.55,8.38,17.3,17.3,0,0,0,10.32,2.89q5.94,0,9.45-3.31A11.6,11.6,0,0,0,411.7,117q0-7.23-12-12.89-1.68-.84-2.58-1.23-13.57-6.62-18.08-12a19.63,19.63,0,0,1-4.51-13.09q0-10,6.81-16.26t17.85-6.22q9.08,0,15.19,3.5a18.47,18.47,0,0,1,8.47,10.06l-10.43,5.38A17.37,17.37,0,0,0,407,68.6a12.72,12.72,0,0,0-6.76-1.8q-5.38,0-8.55,2.8a9.53,9.53,0,0,0-3.17,7.51q0,7.4,13.9,13.79l1.68.78q12.17,5.61,16.71,11A20,20,0,0,1,425.38,116q0,11.66-7.35,18.53t-19.84,6.87q-10.48,0-17.18-4.82A22.54,22.54,0,0,1,372.23,122.81Z"/><path class="cls-2" d="M273.75,126.69c-9.8,0-11.86-5.51-11.86-11.26V57.16H248.54v54.26c0,1.17,0,2.59,0,4.16.16,9.39,2.37,23.66,25.18,23.66h18V126.69Z"/><path class="cls-4" d="M198.75,49.78A23.45,23.45,0,0,0,210,41.07c2-3,3-6.84,3-11.73V15.69h-5.92V29.38c0,3.46,0,11.51-12,15.88A11.3,11.3,0,0,1,198.75,49.78Z"/><rect class="cls-4" x="189.56" y="16.42" width="5.89" height="19.57"/><rect class="cls-4" x="263.47" y="29.73" width="32.88" height="6"/><path class="cls-4" d="M312.52,15.69h-6V49.26h6V31l.4.22a59.17,59.17,0,0,1,11.82,8.36c1.46-2.25,1.76-2.69,3.2-4.76l.12-.18a55.76,55.76,0,0,0-13-8.73l-2.54,3.57Z"/><path class="cls-4" d="M232.31,40.26V33.94l.22,0a63.85,63.85,0,0,0,19-6.93l1.65-.89-5-4.23c-4.48,3.49-12.13,5.84-15.58,6.61l-.33.07V16.42H226.5V41.3c0,6.85,2.89,6.85,16.77,6.85,2.72,0,6.79,0,9.56-.07v-.15a35.78,35.78,0,0,1,.72-5.42,146.39,146.39,0,0,1-15.21.72C232.57,43.22,232.31,42.56,232.31,40.26Z"/></g></g></svg>